<?xml version="1.0" standalone="no"?>
<svg id="canvas" preserveAspectRatio="xMidYMid meet" width="750" height="550" viewBox="-137.5 -350 750 550" xmlns="http://www.w3.org/2000/svg">
            <defs>
              <!-- Component definitions will go here -->
            <marker id="arrowhead" markerWidth="10" markerHeight="7" refX="10" refY="3.5" orient="auto" markerUnits="strokeWidth"><path d="M0,0 L10,3.5 L0,7 Z" fill="#2196F3"/></marker><marker id="upVectorArrow" markerWidth="8" markerHeight="6" refX="8" refY="3" orient="auto" markerUnits="userSpaceOnUse"><path d="M0,0 L8,3 L0,6 Z" fill="green"/></marker><marker id="forwardVectorArrow" markerWidth="8" markerHeight="6" refX="8" refY="3" orient="auto" markerUnits="userSpaceOnUse"><path d="M0,0 L8,3 L0,6 Z" fill="blue"/></marker></defs>
            <!-- <circle cx="0" cy="0" r="5" fill="red"/> -->
            <g id="grid" style="display: none;"><line x1="-2400" y1="-2000" x2="-2400" y2="1850" stroke="#e0e0e0" stroke-width="1"/><line x1="-2350" y1="-2000" x2="-2350" y2="1850" stroke="#e0e0e0" stroke-width="1"/><line x1="-2300" y1="-2000" x2="-2300" y2="1850" stroke="#e0e0e0" stroke-width="1"/><line x1="-2250" y1="-2000" x2="-2250" y2="1850" stroke="#e0e0e0" stroke-width="1"/><line x1="-2200" y1="-2000" x2="-2200" y2="1850" stroke="#e0e0e0" stroke-width="1"/><line x1="-2150" y1="-2000" x2="-2150" y2="1850" stroke="#e0e0e0" stroke-width="1"/><line x1="-2100" y1="-2000" x2="-2100" y2="1850" stroke="#e0e0e0" stroke-width="1"/><line x1="-2050" y1="-2000" x2="-2050" y2="1850" stroke="#e0e0e0" stroke-width="1"/><line x1="-2000" y1="-2000" x2="-2000" y2="1850" stroke="#e0e0e0" stroke-width="1"/><line x1="-1950" y1="-2000" x2="-1950" y2="1850" stroke="#e0e0e0" stroke-width="1"/><line x1="-1900" y1="-2000" x2="-1900" y2="1850" stroke="#e0e0e0" stroke-width="1"/><line x1="-1850" y1="-2000" x2="-1850" y2="1850" stroke="#e0e0e0" stroke-width="1"/><line x1="-1800" y1="-2000" x2="-1800" y2="1850" stroke="#e0e0e0" stroke-width="1"/><line x1="-1750" y1="-2000" x2="-1750" y2="1850" stroke="#e0e0e0" stroke-width="1"/><line x1="-1700" y1="-2000" x2="-1700" y2="1850" stroke="#e0e0e0" stroke-width="1"/><line x1="-1650" y1="-2000" x2="-1650" y2="1850" stroke="#e0e0e0" stroke-width="1"/><line x1="-1600" y1="-2000" x2="-1600" y2="1850" stroke="#e0e0e0" stroke-width="1"/><line x1="-1550" y1="-2000" x2="-1550" y2="1850" stroke="#e0e0e0" stroke-width="1"/><line x1="-1500" y1="-2000" x2="-1500" y2="1850" stroke="#e0e0e0" stroke-width="1"/><line x1="-1450" y1="-2000" x2="-1450" y2="1850" stroke="#e0e0e0" stroke-width="1"/><line x1="-1400" y1="-2000" x2="-1400" y2="1850" stroke="#e0e0e0" stroke-width="1"/><line x1="-1350" y1="-2000" x2="-1350" y2="1850" stroke="#e0e0e0" stroke-width="1"/><line x1="-1300" y1="-2000" x2="-1300" y2="1850" stroke="#e0e0e0" stroke-width="1"/><line x1="-1250" y1="-2000" x2="-1250" y2="1850" stroke="#e0e0e0" stroke-width="1"/><line x1="-1200" y1="-2000" x2="-1200" y2="1850" stroke="#e0e0e0" stroke-width="1"/><line x1="-1150" y1="-2000" x2="-1150" y2="1850" stroke="#e0e0e0" stroke-width="1"/><line x1="-1100" y1="-2000" x2="-1100" y2="1850" stroke="#e0e0e0" stroke-width="1"/><line x1="-1050" y1="-2000" x2="-1050" y2="1850" stroke="#e0e0e0" stroke-width="1"/><line x1="-1000" y1="-2000" x2="-1000" y2="1850" stroke="#e0e0e0" stroke-width="1"/><line x1="-950" y1="-2000" x2="-950" y2="1850" stroke="#e0e0e0" stroke-width="1"/><line x1="-900" y1="-2000" x2="-900" y2="1850" stroke="#e0e0e0" stroke-width="1"/><line x1="-850" y1="-2000" x2="-850" y2="1850" stroke="#e0e0e0" stroke-width="1"/><line x1="-800" y1="-2000" x2="-800" y2="1850" stroke="#e0e0e0" stroke-width="1"/><line x1="-750" y1="-2000" x2="-750" y2="1850" stroke="#e0e0e0" stroke-width="1"/><line x1="-700" y1="-2000" x2="-700" y2="1850" stroke="#e0e0e0" stroke-width="1"/><line x1="-650" y1="-2000" x2="-650" y2="1850" stroke="#e0e0e0" stroke-width="1"/><line x1="-600" y1="-2000" x2="-600" y2="1850" stroke="#e0e0e0" stroke-width="1"/><line x1="-550" y1="-2000" x2="-550" y2="1850" stroke="#e0e0e0" stroke-width="1"/><line x1="-500" y1="-2000" x2="-500" y2="1850" stroke="#e0e0e0" stroke-width="1"/><line x1="-450" y1="-2000" x2="-450" y2="1850" stroke="#e0e0e0" stroke-width="1"/><line x1="-400" y1="-2000" x2="-400" y2="1850" stroke="#e0e0e0" stroke-width="1"/><line x1="-350" y1="-2000" x2="-350" y2="1850" stroke="#e0e0e0" stroke-width="1"/><line x1="-300" y1="-2000" x2="-300" y2="1850" stroke="#e0e0e0" stroke-width="1"/><line x1="-250" y1="-2000" x2="-250" y2="1850" stroke="#e0e0e0" stroke-width="1"/><line x1="-200" y1="-2000" x2="-200" y2="1850" stroke="#e0e0e0" stroke-width="1"/><line x1="-150" y1="-2000" x2="-150" y2="1850" stroke="#e0e0e0" stroke-width="1"/><line x1="-100" y1="-2000" x2="-100" y2="1850" stroke="#e0e0e0" stroke-width="1"/><line x1="-50" y1="-2000" x2="-50" y2="1850" stroke="#e0e0e0" stroke-width="1"/><line x1="0" y1="-2000" x2="0" y2="1850" stroke="#e0e0e0" stroke-width="1"/><line x1="50" y1="-2000" x2="50" y2="1850" stroke="#e0e0e0" stroke-width="1"/><line x1="100" y1="-2000" x2="100" y2="1850" stroke="#e0e0e0" stroke-width="1"/><line x1="150" y1="-2000" x2="150" y2="1850" stroke="#e0e0e0" stroke-width="1"/><line x1="200" y1="-2000" x2="200" y2="1850" stroke="#e0e0e0" stroke-width="1"/><line x1="250" y1="-2000" x2="250" y2="1850" stroke="#e0e0e0" stroke-width="1"/><line x1="300" y1="-2000" x2="300" y2="1850" stroke="#e0e0e0" stroke-width="1"/><line x1="350" y1="-2000" x2="350" y2="1850" stroke="#e0e0e0" stroke-width="1"/><line x1="400" y1="-2000" x2="400" y2="1850" stroke="#e0e0e0" stroke-width="1"/><line x1="450" y1="-2000" x2="450" y2="1850" stroke="#e0e0e0" stroke-width="1"/><line x1="500" y1="-2000" x2="500" y2="1850" stroke="#e0e0e0" stroke-width="1"/><line x1="550" y1="-2000" x2="550" y2="1850" stroke="#e0e0e0" stroke-width="1"/><line x1="600" y1="-2000" x2="600" y2="1850" stroke="#e0e0e0" stroke-width="1"/><line x1="650" y1="-2000" x2="650" y2="1850" stroke="#e0e0e0" stroke-width="1"/><line x1="700" y1="-2000" x2="700" y2="1850" stroke="#e0e0e0" stroke-width="1"/><line x1="750" y1="-2000" x2="750" y2="1850" stroke="#e0e0e0" stroke-width="1"/><line x1="800" y1="-2000" x2="800" y2="1850" stroke="#e0e0e0" stroke-width="1"/><line x1="850" y1="-2000" x2="850" y2="1850" stroke="#e0e0e0" stroke-width="1"/><line x1="900" y1="-2000" x2="900" y2="1850" stroke="#e0e0e0" stroke-width="1"/><line x1="950" y1="-2000" x2="950" y2="1850" stroke="#e0e0e0" stroke-width="1"/><line x1="1000" y1="-2000" x2="1000" y2="1850" stroke="#e0e0e0" stroke-width="1"/><line x1="1050" y1="-2000" x2="1050" y2="1850" stroke="#e0e0e0" stroke-width="1"/><line x1="1100" y1="-2000" x2="1100" y2="1850" stroke="#e0e0e0" stroke-width="1"/><line x1="1150" y1="-2000" x2="1150" y2="1850" stroke="#e0e0e0" stroke-width="1"/><line x1="1200" y1="-2000" x2="1200" y2="1850" stroke="#e0e0e0" stroke-width="1"/><line x1="1250" y1="-2000" x2="1250" y2="1850" stroke="#e0e0e0" stroke-width="1"/><line x1="1300" y1="-2000" x2="1300" y2="1850" stroke="#e0e0e0" stroke-width="1"/><line x1="1350" y1="-2000" x2="1350" y2="1850" stroke="#e0e0e0" stroke-width="1"/><line x1="1400" y1="-2000" x2="1400" y2="1850" stroke="#e0e0e0" stroke-width="1"/><line x1="1450" y1="-2000" x2="1450" y2="1850" stroke="#e0e0e0" stroke-width="1"/><line x1="1500" y1="-2000" x2="1500" y2="1850" stroke="#e0e0e0" stroke-width="1"/><line x1="1550" y1="-2000" x2="1550" y2="1850" stroke="#e0e0e0" stroke-width="1"/><line x1="1600" y1="-2000" x2="1600" y2="1850" stroke="#e0e0e0" stroke-width="1"/><line x1="1650" y1="-2000" x2="1650" y2="1850" stroke="#e0e0e0" stroke-width="1"/><line x1="1700" y1="-2000" x2="1700" y2="1850" stroke="#e0e0e0" stroke-width="1"/><line x1="1750" y1="-2000" x2="1750" y2="1850" stroke="#e0e0e0" stroke-width="1"/><line x1="1800" y1="-2000" x2="1800" y2="1850" stroke="#e0e0e0" stroke-width="1"/><line x1="1850" y1="-2000" x2="1850" y2="1850" stroke="#e0e0e0" stroke-width="1"/><line x1="1900" y1="-2000" x2="1900" y2="1850" stroke="#e0e0e0" stroke-width="1"/><line x1="1950" y1="-2000" x2="1950" y2="1850" stroke="#e0e0e0" stroke-width="1"/><line x1="2000" y1="-2000" x2="2000" y2="1850" stroke="#e0e0e0" stroke-width="1"/><line x1="2050" y1="-2000" x2="2050" y2="1850" stroke="#e0e0e0" stroke-width="1"/><line x1="2100" y1="-2000" x2="2100" y2="1850" stroke="#e0e0e0" stroke-width="1"/><line x1="2150" y1="-2000" x2="2150" y2="1850" stroke="#e0e0e0" stroke-width="1"/><line x1="2200" y1="-2000" x2="2200" y2="1850" stroke="#e0e0e0" stroke-width="1"/><line x1="2250" y1="-2000" x2="2250" y2="1850" stroke="#e0e0e0" stroke-width="1"/><line x1="2300" y1="-2000" x2="2300" y2="1850" stroke="#e0e0e0" stroke-width="1"/><line x1="2350" y1="-2000" x2="2350" y2="1850" stroke="#e0e0e0" stroke-width="1"/><line x1="2400" y1="-2000" x2="2400" y2="1850" stroke="#e0e0e0" stroke-width="1"/><line x1="2450" y1="-2000" x2="2450" y2="1850" stroke="#e0e0e0" stroke-width="1"/><line x1="2500" y1="-2000" x2="2500" y2="1850" stroke="#e0e0e0" stroke-width="1"/><line x1="2550" y1="-2000" x2="2550" y2="1850" stroke="#e0e0e0" stroke-width="1"/><line x1="2600" y1="-2000" x2="2600" y2="1850" stroke="#e0e0e0" stroke-width="1"/><line x1="2650" y1="-2000" x2="2650" y2="1850" stroke="#e0e0e0" stroke-width="1"/><line x1="2700" y1="-2000" x2="2700" y2="1850" stroke="#e0e0e0" stroke-width="1"/><line x1="2750" y1="-2000" x2="2750" y2="1850" stroke="#e0e0e0" stroke-width="1"/><line x1="2800" y1="-2000" x2="2800" y2="1850" stroke="#e0e0e0" stroke-width="1"/><line x1="2850" y1="-2000" x2="2850" y2="1850" stroke="#e0e0e0" stroke-width="1"/><line x1="2900" y1="-2000" x2="2900" y2="1850" stroke="#e0e0e0" stroke-width="1"/><line x1="-2387.5" y1="-2000" x2="2862.5" y2="-2000" stroke="#e0e0e0" stroke-width="1"/><line x1="-2387.5" y1="-1950" x2="2862.5" y2="-1950" stroke="#e0e0e0" stroke-width="1"/><line x1="-2387.5" y1="-1900" x2="2862.5" y2="-1900" stroke="#e0e0e0" stroke-width="1"/><line x1="-2387.5" y1="-1850" x2="2862.5" y2="-1850" stroke="#e0e0e0" stroke-width="1"/><line x1="-2387.5" y1="-1800" x2="2862.5" y2="-1800" stroke="#e0e0e0" stroke-width="1"/><line x1="-2387.5" y1="-1750" x2="2862.5" y2="-1750" stroke="#e0e0e0" stroke-width="1"/><line x1="-2387.5" y1="-1700" x2="2862.5" y2="-1700" stroke="#e0e0e0" stroke-width="1"/><line x1="-2387.5" y1="-1650" x2="2862.5" y2="-1650" stroke="#e0e0e0" stroke-width="1"/><line x1="-2387.5" y1="-1600" x2="2862.5" y2="-1600" stroke="#e0e0e0" stroke-width="1"/><line x1="-2387.5" y1="-1550" x2="2862.5" y2="-1550" stroke="#e0e0e0" stroke-width="1"/><line x1="-2387.5" y1="-1500" x2="2862.5" y2="-1500" stroke="#e0e0e0" stroke-width="1"/><line x1="-2387.5" y1="-1450" x2="2862.5" y2="-1450" stroke="#e0e0e0" stroke-width="1"/><line x1="-2387.5" y1="-1400" x2="2862.5" y2="-1400" stroke="#e0e0e0" stroke-width="1"/><line x1="-2387.5" y1="-1350" x2="2862.5" y2="-1350" stroke="#e0e0e0" stroke-width="1"/><line x1="-2387.5" y1="-1300" x2="2862.5" y2="-1300" stroke="#e0e0e0" stroke-width="1"/><line x1="-2387.5" y1="-1250" x2="2862.5" y2="-1250" stroke="#e0e0e0" stroke-width="1"/><line x1="-2387.5" y1="-1200" x2="2862.5" y2="-1200" stroke="#e0e0e0" stroke-width="1"/><line x1="-2387.5" y1="-1150" x2="2862.5" y2="-1150" stroke="#e0e0e0" stroke-width="1"/><line x1="-2387.5" y1="-1100" x2="2862.5" y2="-1100" stroke="#e0e0e0" stroke-width="1"/><line x1="-2387.5" y1="-1050" x2="2862.5" y2="-1050" stroke="#e0e0e0" stroke-width="1"/><line x1="-2387.5" y1="-1000" x2="2862.5" y2="-1000" stroke="#e0e0e0" stroke-width="1"/><line x1="-2387.5" y1="-950" x2="2862.5" y2="-950" stroke="#e0e0e0" stroke-width="1"/><line x1="-2387.5" y1="-900" x2="2862.5" y2="-900" stroke="#e0e0e0" stroke-width="1"/><line x1="-2387.5" y1="-850" x2="2862.5" y2="-850" stroke="#e0e0e0" stroke-width="1"/><line x1="-2387.5" y1="-800" x2="2862.5" y2="-800" stroke="#e0e0e0" stroke-width="1"/><line x1="-2387.5" y1="-750" x2="2862.5" y2="-750" stroke="#e0e0e0" stroke-width="1"/><line x1="-2387.5" y1="-700" x2="2862.5" y2="-700" stroke="#e0e0e0" stroke-width="1"/><line x1="-2387.5" y1="-650" x2="2862.5" y2="-650" stroke="#e0e0e0" stroke-width="1"/><line x1="-2387.5" y1="-600" x2="2862.5" y2="-600" stroke="#e0e0e0" stroke-width="1"/><line x1="-2387.5" y1="-550" x2="2862.5" y2="-550" stroke="#e0e0e0" stroke-width="1"/><line x1="-2387.5" y1="-500" x2="2862.5" y2="-500" stroke="#e0e0e0" stroke-width="1"/><line x1="-2387.5" y1="-450" x2="2862.5" y2="-450" stroke="#e0e0e0" stroke-width="1"/><line x1="-2387.5" y1="-400" x2="2862.5" y2="-400" stroke="#e0e0e0" stroke-width="1"/><line x1="-2387.5" y1="-350" x2="2862.5" y2="-350" stroke="#e0e0e0" stroke-width="1"/><line x1="-2387.5" y1="-300" x2="2862.5" y2="-300" stroke="#e0e0e0" stroke-width="1"/><line x1="-2387.5" y1="-250" x2="2862.5" y2="-250" stroke="#e0e0e0" stroke-width="1"/><line x1="-2387.5" y1="-200" x2="2862.5" y2="-200" stroke="#e0e0e0" stroke-width="1"/><line x1="-2387.5" y1="-150" x2="2862.5" y2="-150" stroke="#e0e0e0" stroke-width="1"/><line x1="-2387.5" y1="-100" x2="2862.5" y2="-100" stroke="#e0e0e0" stroke-width="1"/><line x1="-2387.5" y1="-50" x2="2862.5" y2="-50" stroke="#e0e0e0" stroke-width="1"/><line x1="-2387.5" y1="0" x2="2862.5" y2="0" stroke="#e0e0e0" stroke-width="1"/><line x1="-2387.5" y1="50" x2="2862.5" y2="50" stroke="#e0e0e0" stroke-width="1"/><line x1="-2387.5" y1="100" x2="2862.5" y2="100" stroke="#e0e0e0" stroke-width="1"/><line x1="-2387.5" y1="150" x2="2862.5" y2="150" stroke="#e0e0e0" stroke-width="1"/><line x1="-2387.5" y1="200" x2="2862.5" y2="200" stroke="#e0e0e0" stroke-width="1"/><line x1="-2387.5" y1="250" x2="2862.5" y2="250" stroke="#e0e0e0" stroke-width="1"/><line x1="-2387.5" y1="300" x2="2862.5" y2="300" stroke="#e0e0e0" stroke-width="1"/><line x1="-2387.5" y1="350" x2="2862.5" y2="350" stroke="#e0e0e0" stroke-width="1"/><line x1="-2387.5" y1="400" x2="2862.5" y2="400" stroke="#e0e0e0" stroke-width="1"/><line x1="-2387.5" y1="450" x2="2862.5" y2="450" stroke="#e0e0e0" stroke-width="1"/><line x1="-2387.5" y1="500" x2="2862.5" y2="500" stroke="#e0e0e0" stroke-width="1"/><line x1="-2387.5" y1="550" x2="2862.5" y2="550" stroke="#e0e0e0" stroke-width="1"/><line x1="-2387.5" y1="600" x2="2862.5" y2="600" stroke="#e0e0e0" stroke-width="1"/><line x1="-2387.5" y1="650" x2="2862.5" y2="650" stroke="#e0e0e0" stroke-width="1"/><line x1="-2387.5" y1="700" x2="2862.5" y2="700" stroke="#e0e0e0" stroke-width="1"/><line x1="-2387.5" y1="750" x2="2862.5" y2="750" stroke="#e0e0e0" stroke-width="1"/><line x1="-2387.5" y1="800" x2="2862.5" y2="800" stroke="#e0e0e0" stroke-width="1"/><line x1="-2387.5" y1="850" x2="2862.5" y2="850" stroke="#e0e0e0" stroke-width="1"/><line x1="-2387.5" y1="900" x2="2862.5" y2="900" stroke="#e0e0e0" stroke-width="1"/><line x1="-2387.5" y1="950" x2="2862.5" y2="950" stroke="#e0e0e0" stroke-width="1"/><line x1="-2387.5" y1="1000" x2="2862.5" y2="1000" stroke="#e0e0e0" stroke-width="1"/><line x1="-2387.5" y1="1050" x2="2862.5" y2="1050" stroke="#e0e0e0" stroke-width="1"/><line x1="-2387.5" y1="1100" x2="2862.5" y2="1100" stroke="#e0e0e0" stroke-width="1"/><line x1="-2387.5" y1="1150" x2="2862.5" y2="1150" stroke="#e0e0e0" stroke-width="1"/><line x1="-2387.5" y1="1200" x2="2862.5" y2="1200" stroke="#e0e0e0" stroke-width="1"/><line x1="-2387.5" y1="1250" x2="2862.5" y2="1250" stroke="#e0e0e0" stroke-width="1"/><line x1="-2387.5" y1="1300" x2="2862.5" y2="1300" stroke="#e0e0e0" stroke-width="1"/><line x1="-2387.5" y1="1350" x2="2862.5" y2="1350" stroke="#e0e0e0" stroke-width="1"/><line x1="-2387.5" y1="1400" x2="2862.5" y2="1400" stroke="#e0e0e0" stroke-width="1"/><line x1="-2387.5" y1="1450" x2="2862.5" y2="1450" stroke="#e0e0e0" stroke-width="1"/><line x1="-2387.5" y1="1500" x2="2862.5" y2="1500" stroke="#e0e0e0" stroke-width="1"/><line x1="-2387.5" y1="1550" x2="2862.5" y2="1550" stroke="#e0e0e0" stroke-width="1"/><line x1="-2387.5" y1="1600" x2="2862.5" y2="1600" stroke="#e0e0e0" stroke-width="1"/><line x1="-2387.5" y1="1650" x2="2862.5" y2="1650" stroke="#e0e0e0" stroke-width="1"/><line x1="-2387.5" y1="1700" x2="2862.5" y2="1700" stroke="#e0e0e0" stroke-width="1"/><line x1="-2387.5" y1="1750" x2="2862.5" y2="1750" stroke="#e0e0e0" stroke-width="1"/><line x1="-2387.5" y1="1800" x2="2862.5" y2="1800" stroke="#e0e0e0" stroke-width="1"/><line x1="-2387.5" y1="1850" x2="2862.5" y2="1850" stroke="#e0e0e0" stroke-width="1"/></g>
            <g id="center-trace-lines"><line x1="0" y1="0" x2="0" y2="-100" stroke="black" stroke-width="1" stroke-dasharray="5,5" pointer-events="none"/><line x1="0" y1="-100" x2="0" y2="-150" stroke="black" stroke-width="1" stroke-dasharray="5,5" pointer-events="none"/><line x1="0" y1="-150" x2="0" y2="-215" stroke="black" stroke-width="1" stroke-dasharray="5,5" pointer-events="none"/><line x1="0" y1="-215" x2="-65" y2="-215" stroke="black" stroke-width="1" stroke-dasharray="5,5" pointer-events="none"/><line x1="-65" y1="-215" x2="75" y2="-215" stroke="black" stroke-width="1" stroke-dasharray="5,5" pointer-events="none"/><line x1="75" y1="-215" x2="150" y2="-215" stroke="black" stroke-width="1" stroke-dasharray="5,5" pointer-events="none"/><line x1="150" y1="-215" x2="200" y2="-215" stroke="black" stroke-width="1" stroke-dasharray="5,5" pointer-events="none"/><line x1="200" y1="-215" x2="250" y2="-215" stroke="black" stroke-width="1" stroke-dasharray="5,5" pointer-events="none"/><line x1="250" y1="-215" x2="325" y2="-215" stroke="black" stroke-width="1" stroke-dasharray="5,5" pointer-events="none"/><line x1="325" y1="-215" x2="400" y2="-215" stroke="black" stroke-width="1" stroke-dasharray="5,5" pointer-events="none"/><line x1="400" y1="-215" x2="465" y2="-215" stroke="black" stroke-width="1" stroke-dasharray="5,5" pointer-events="none"/><line x1="465" y1="-215" x2="400" y2="-215" stroke="black" stroke-width="1" stroke-dasharray="5,5" pointer-events="none"/><line x1="400" y1="-215" x2="400" y2="-150" stroke="black" stroke-width="1" stroke-dasharray="5,5" pointer-events="none"/><line x1="400" y1="-150" x2="400" y2="-100" stroke="black" stroke-width="1" stroke-dasharray="5,5" pointer-events="none"/><line x1="400" y1="-100" x2="400" y2="-50" stroke="black" stroke-width="1" stroke-dasharray="5,5" pointer-events="none"/><line x1="400" y1="-50" x2="400" y2="0" stroke="black" stroke-width="1" stroke-dasharray="5,5" pointer-events="none"/></g><g id="aperture-rays"><polygon points="0,0 -15,-100 15,-100 0,0" fill="#00ffff" fill-opacity="0.2" stroke="none" pointer-events="none"/><line x1="0" y1="0" x2="-15" y2="-100" stroke="black" stroke-width="1" stroke-dasharray="3,3" pointer-events="none"/><line x1="0" y1="0" x2="15" y2="-100" stroke="black" stroke-width="1" stroke-dasharray="3,3" pointer-events="none"/><polygon points="-15,-100 -22.2,-150 22.2,-150 15,-100" fill="#00ffff" fill-opacity="0.2" stroke="none" pointer-events="none"/><line x1="-15" y1="-100" x2="-22.2" y2="-150" stroke="black" stroke-width="1" stroke-dasharray="3,3" pointer-events="none"/><line x1="15" y1="-100" x2="22.2" y2="-150" stroke="black" stroke-width="1" stroke-dasharray="3,3" pointer-events="none"/><polygon points="-22.2,-150 -22.2,-237.2 22.2,-192.8 22.2,-150" fill="#00ffff" fill-opacity="0.2" stroke="none" pointer-events="none"/><line x1="-22.2" y1="-150" x2="-22.2" y2="-237.2" stroke="black" stroke-width="1" stroke-dasharray="3,3" pointer-events="none"/><line x1="22.2" y1="-150" x2="22.2" y2="-192.8" stroke="black" stroke-width="1" stroke-dasharray="3,3" pointer-events="none"/><polygon points="-22.2,-237.2 -65,-237.2 -65,-192.8 22.2,-192.8" fill="#00ffff" fill-opacity="0.2" stroke="none" pointer-events="none"/><line x1="-22.2" y1="-237.2" x2="-65" y2="-237.2" stroke="black" stroke-width="1" stroke-dasharray="3,3" pointer-events="none"/><line x1="22.2" y1="-192.8" x2="-65" y2="-192.8" stroke="black" stroke-width="1" stroke-dasharray="3,3" pointer-events="none"/><polygon points="-65,-237.2 75,-237.2 75,-192.8 -65,-192.8" fill="#00ffff" fill-opacity="0.2" stroke="none" pointer-events="none"/><line x1="-65" y1="-237.2" x2="75" y2="-237.2" stroke="black" stroke-width="1" stroke-dasharray="3,3" pointer-events="none"/><line x1="-65" y1="-192.8" x2="75" y2="-192.8" stroke="black" stroke-width="1" stroke-dasharray="3,3" pointer-events="none"/><polygon points="75,-237.2 150,-237.2 150,-192.8 75,-192.8" fill="#00ffff" fill-opacity="0.2" stroke="none" pointer-events="none"/><line x1="75" y1="-237.2" x2="150" y2="-237.2" stroke="black" stroke-width="1" stroke-dasharray="3,3" pointer-events="none"/><line x1="75" y1="-192.8" x2="150" y2="-192.8" stroke="black" stroke-width="1" stroke-dasharray="3,3" pointer-events="none"/><polygon points="150,-237.2 200,-215 200,-215 150,-192.8" fill="#00ffff" fill-opacity="0.2" stroke="none" pointer-events="none"/><line x1="150" y1="-237.2" x2="200" y2="-215" stroke="black" stroke-width="1" stroke-dasharray="3,3" pointer-events="none"/><line x1="150" y1="-192.8" x2="200" y2="-215" stroke="black" stroke-width="1" stroke-dasharray="3,3" pointer-events="none"/><polygon points="200,-215 250,-237.2 250,-192.8 200,-215" fill="#00ffff" fill-opacity="0.2" stroke="none" pointer-events="none"/><line x1="200" y1="-215" x2="250" y2="-237.2" stroke="black" stroke-width="1" stroke-dasharray="3,3" pointer-events="none"/><line x1="200" y1="-215" x2="250" y2="-192.8" stroke="black" stroke-width="1" stroke-dasharray="3,3" pointer-events="none"/><polygon points="250,-237.2 325,-237.2 325,-192.8 250,-192.8" fill="#00ffff" fill-opacity="0.2" stroke="none" pointer-events="none"/><line x1="250" y1="-237.2" x2="325" y2="-237.2" stroke="black" stroke-width="1" stroke-dasharray="3,3" pointer-events="none"/><line x1="250" y1="-192.8" x2="325" y2="-192.8" stroke="black" stroke-width="1" stroke-dasharray="3,3" pointer-events="none"/><polygon points="325,-237.2 422.2,-237.2 377.8,-192.8 325,-192.8" fill="#00ffff" fill-opacity="0.2" stroke="none" pointer-events="none"/><line x1="325" y1="-237.2" x2="422.2" y2="-237.2" stroke="black" stroke-width="1" stroke-dasharray="3,3" pointer-events="none"/><line x1="325" y1="-192.8" x2="377.8" y2="-192.8" stroke="black" stroke-width="1" stroke-dasharray="3,3" pointer-events="none"/><polygon points="422.2,-237.2 465,-237.2 465,-192.8 377.8,-192.8" fill="#00ffff" fill-opacity="0.2" stroke="none" pointer-events="none"/><line x1="422.2" y1="-237.2" x2="465" y2="-237.2" stroke="black" stroke-width="1" stroke-dasharray="3,3" pointer-events="none"/><line x1="377.8" y1="-192.8" x2="465" y2="-192.8" stroke="black" stroke-width="1" stroke-dasharray="3,3" pointer-events="none"/><polygon points="465,-237.2 422.2,-237.2 377.8,-192.8 465,-192.8" fill="#00ffff" fill-opacity="0.2" stroke="none" pointer-events="none"/><line x1="465" y1="-237.2" x2="422.2" y2="-237.2" stroke="black" stroke-width="1" stroke-dasharray="3,3" pointer-events="none"/><line x1="465" y1="-192.8" x2="377.8" y2="-192.8" stroke="black" stroke-width="1" stroke-dasharray="3,3" pointer-events="none"/><polygon points="422.2,-237.2 422.2,-150 377.8,-150 377.8,-192.8" fill="#00ffff" fill-opacity="0.2" stroke="none" pointer-events="none"/><line x1="422.2" y1="-237.2" x2="422.2" y2="-150" stroke="black" stroke-width="1" stroke-dasharray="3,3" pointer-events="none"/><line x1="377.8" y1="-192.8" x2="377.8" y2="-150" stroke="black" stroke-width="1" stroke-dasharray="3,3" pointer-events="none"/><polygon points="422.2,-150 400,-100 400,-100 377.8,-150" fill="#00ffff" fill-opacity="0.2" stroke="none" pointer-events="none"/><line x1="422.2" y1="-150" x2="400" y2="-100" stroke="black" stroke-width="1" stroke-dasharray="3,3" pointer-events="none"/><line x1="377.8" y1="-150" x2="400" y2="-100" stroke="black" stroke-width="1" stroke-dasharray="3,3" pointer-events="none"/><polygon points="400,-100 422.2,-50 377.8,-50 400,-100" fill="#00ffff" fill-opacity="0.2" stroke="none" pointer-events="none"/><line x1="400" y1="-100" x2="422.2" y2="-50" stroke="black" stroke-width="1" stroke-dasharray="3,3" pointer-events="none"/><line x1="400" y1="-100" x2="377.8" y2="-50" stroke="black" stroke-width="1" stroke-dasharray="3,3" pointer-events="none"/><polygon points="422.2,-50 422.2,-1.3593579470535616e-15 377.8,1.3593579470535616e-15 377.8,-50" fill="#00ffff" fill-opacity="0.2" stroke="none" pointer-events="none"/><line x1="422.2" y1="-50" x2="422.2" y2="-1.3593579470535616e-15" stroke="black" stroke-width="1" stroke-dasharray="3,3" pointer-events="none"/><line x1="377.8" y1="-50" x2="377.8" y2="1.3593579470535616e-15" stroke="black" stroke-width="1" stroke-dasharray="3,3" pointer-events="none"/></g><g id="components"><g class="component" data-id="0" data-type="plane" transform="translate(0,0) rotate(-90 0 0)"><rect class="component-hit-area" x="-3" y="-30" width="6" height="60" visibility="hidden"/><line x1="0" y1="-20" x2="0" y2="20" stroke="black" stroke-width="1.5" pointer-events="none" style="opacity: 0;"/></g><g class="component" data-id="1" data-type="plate" transform="translate(0,-100) rotate(-90 0 0)"><rect class="component-hit-area" x="-30" y="-30" width="60" height="60" visibility="hidden"/><path d="M -3 -30 L 3 -30 L 3 30 L -3 30 Z" stroke="black" stroke-width="1.5" fill="#145ec0" fill-opacity="0.4" pointer-events="none"/></g><g class="component" data-id="2" data-type="lens" transform="translate(0,-150) rotate(-90 0 0)"><rect class="component-hit-area" x="-30" y="-30" width="60" height="60" visibility="hidden"/><path d="M 0 -30 C 6 -27 6 27 0 30 C -6 27 -6 -27 0 -30" stroke="black" stroke-width="1.5" fill="#145ec0" fill-opacity="0.3" pointer-events="none"/></g><g class="component" data-id="3" data-type="cube" transform="translate(0,-215) rotate(-45 0 0)"><rect class="component-hit-area" x="-42" y="-42" width="84" height="84" visibility="hidden"/><path d="M 0 -42 L -42 0 L 0 42 L 42 0 Z" stroke="black" stroke-width="1.5" fill="#145ec0" fill-opacity="0.4" pointer-events="none"/><line x1="0" y1="-42" x2="0" y2="42" stroke="black" stroke-width="2.5" pointer-events="none"/></g><g class="component" data-id="4" data-type="slm" transform="translate(-65,-215) rotate(180 0 0)"><rect class="component-hit-area" x="-5" y="-40" width="10" height="80" visibility="hidden"/><rect x="0" y="-40" width="5" height="80" stroke="black" stroke-width="1.5" fill="#868686" pointer-events="none"/><rect x="-5" y="-30" width="5" height="60" fill="#145ec0" fill-opacity="0.5" pointer-events="none"/></g><g class="component" data-id="5" data-type="plate" transform="translate(75,-215) rotate(0 0 0)"><rect class="component-hit-area" x="-30" y="-30" width="60" height="60" visibility="hidden"/><path d="M -3 -30 L 3 -30 L 3 30 L -3 30 Z" stroke="black" stroke-width="1.5" fill="#145ec0" fill-opacity="0.4" pointer-events="none"/></g><g class="component" data-id="6" data-type="lens" transform="translate(150,-215) rotate(0 0 0)"><rect class="component-hit-area" x="-30" y="-30" width="60" height="60" visibility="hidden"/><path d="M 0 -30 C 6 -27 6 27 0 30 C -6 27 -6 -27 0 -30" stroke="black" stroke-width="1.5" fill="#145ec0" fill-opacity="0.3" pointer-events="none"/></g><g class="component" data-id="7" data-type="plane" transform="translate(200,-215) rotate(0 0 0)"><rect class="component-hit-area" x="-3" y="-30" width="6" height="60" visibility="hidden"/><line x1="0" y1="-20" x2="0" y2="20" stroke="black" stroke-width="1.5" pointer-events="none" style="opacity: 0;"/></g><g class="component" data-id="8" data-type="lens" transform="translate(250,-215) rotate(0 0 0)"><rect class="component-hit-area" x="-30" y="-30" width="60" height="60" visibility="hidden"/><path d="M 0 -30 C 6 -27 6 27 0 30 C -6 27 -6 -27 0 -30" stroke="black" stroke-width="1.5" fill="#145ec0" fill-opacity="0.3" pointer-events="none"/></g><g class="component" data-id="9" data-type="plate" transform="translate(325,-215) rotate(0 0 0)"><rect class="component-hit-area" x="-30" y="-30" width="60" height="60" visibility="hidden"/><path d="M -3 -30 L 3 -30 L 3 30 L -3 30 Z" stroke="black" stroke-width="1.5" fill="#145ec0" fill-opacity="0.4" pointer-events="none"/></g><g class="component" data-id="10" data-type="cube" transform="translate(400,-215) rotate(45 0 0)"><rect class="component-hit-area" x="-42" y="-42" width="84" height="84" visibility="hidden"/><path d="M 0 -42 L -42 0 L 0 42 L 42 0 Z" stroke="black" stroke-width="1.5" fill="#145ec0" fill-opacity="0.4" pointer-events="none"/><line x1="0" y1="-42" x2="0" y2="42" stroke="black" stroke-width="2.5" pointer-events="none"/></g><g class="component" data-id="11" data-type="slm" transform="translate(465,-215) rotate(0 0 0)"><rect class="component-hit-area" x="-5" y="-40" width="10" height="80" visibility="hidden"/><rect x="0" y="-40" width="5" height="80" stroke="black" stroke-width="1.5" fill="#868686" pointer-events="none"/><rect x="-5" y="-30" width="5" height="60" fill="#145ec0" fill-opacity="0.5" pointer-events="none"/></g><g class="component" data-id="12" data-type="plane" transform="translate(400,-215) rotate(225 0 0)"><rect class="component-hit-area" x="-3" y="-30" width="6" height="60" visibility="hidden"/><line x1="0" y1="-20" x2="0" y2="20" stroke="black" stroke-width="1.5" pointer-events="none" style="opacity: 0;"/></g><g class="component" data-id="13" data-type="lens" transform="translate(400,-150) rotate(90 0 0)"><rect class="component-hit-area" x="-30" y="-30" width="60" height="60" visibility="hidden"/><path d="M 0 -30 C 6 -27 6 27 0 30 C -6 27 -6 -27 0 -30" stroke="black" stroke-width="1.5" fill="#145ec0" fill-opacity="0.3" pointer-events="none"/></g><g class="component" data-id="14" data-type="plane" transform="translate(400,-100) rotate(90 0 0)"><rect class="component-hit-area" x="-3" y="-30" width="6" height="60" visibility="hidden"/><line x1="0" y1="-20" x2="0" y2="20" stroke="black" stroke-width="1.5" pointer-events="none" style="opacity: 0;"/></g><g class="component" data-id="15" data-type="lens" transform="translate(400,-50) rotate(90 0 0)"><rect class="component-hit-area" x="-30" y="-30" width="60" height="60" visibility="hidden"/><path d="M 0 -30 C 6 -27 6 27 0 30 C -6 27 -6 -27 0 -30" stroke="black" stroke-width="1.5" fill="#145ec0" fill-opacity="0.3" pointer-events="none"/></g><g class="component" data-id="16" data-type="detector" transform="translate(445,0) rotate(90 -45 0)"><rect class="component-hit-area" x="-42.5" y="-30" width="85" height="60" visibility="hidden"/><path d="&#10;            M -40 -30&#10;            H 40&#10;            V 30&#10;            H -40&#10;            Z&#10;            " fill="#cccccc" stroke="black" stroke-width="1.5" pointer-events="none"/><rect x="-45" y="-20" width="5" height="40" fill="#2e2e2e" stroke="black" stroke-width="1.5" pointer-events="none"/></g></g>
          </svg>