<?xml version="1.0" standalone="no"?>
<svg id="canvas" preserveAspectRatio="xMidYMid meet" width="627" height="693" viewBox="-107.25 -630.25 627 693" xmlns="http://www.w3.org/2000/svg">
            <defs>
              <!-- Component definitions will go here -->
            </defs>
            <!-- <circle cx="0" cy="0" r="5" fill="red"/> -->
            <g id="grid" style="display: none;"><line x1="-3250" y1="-4095.25" x2="-3250" y2="3527.75" stroke="#e0e0e0" stroke-width="1"/><line x1="-3200" y1="-4095.25" x2="-3200" y2="3527.75" stroke="#e0e0e0" stroke-width="1"/><line x1="-3150" y1="-4095.25" x2="-3150" y2="3527.75" stroke="#e0e0e0" stroke-width="1"/><line x1="-3100" y1="-4095.25" x2="-3100" y2="3527.75" stroke="#e0e0e0" stroke-width="1"/><line x1="-3050" y1="-4095.25" x2="-3050" y2="3527.75" stroke="#e0e0e0" stroke-width="1"/><line x1="-3000" y1="-4095.25" x2="-3000" y2="3527.75" stroke="#e0e0e0" stroke-width="1"/><line x1="-2950" y1="-4095.25" x2="-2950" y2="3527.75" stroke="#e0e0e0" stroke-width="1"/><line x1="-2900" y1="-4095.25" x2="-2900" y2="3527.75" stroke="#e0e0e0" stroke-width="1"/><line x1="-2850" y1="-4095.25" x2="-2850" y2="3527.75" stroke="#e0e0e0" stroke-width="1"/><line x1="-2800" y1="-4095.25" x2="-2800" y2="3527.75" stroke="#e0e0e0" stroke-width="1"/><line x1="-2750" y1="-4095.25" x2="-2750" y2="3527.75" stroke="#e0e0e0" stroke-width="1"/><line x1="-2700" y1="-4095.25" x2="-2700" y2="3527.75" stroke="#e0e0e0" stroke-width="1"/><line x1="-2650" y1="-4095.25" x2="-2650" y2="3527.75" stroke="#e0e0e0" stroke-width="1"/><line x1="-2600" y1="-4095.25" x2="-2600" y2="3527.75" stroke="#e0e0e0" stroke-width="1"/><line x1="-2550" y1="-4095.25" x2="-2550" y2="3527.75" stroke="#e0e0e0" stroke-width="1"/><line x1="-2500" y1="-4095.25" x2="-2500" y2="3527.75" stroke="#e0e0e0" stroke-width="1"/><line x1="-2450" y1="-4095.25" x2="-2450" y2="3527.75" stroke="#e0e0e0" stroke-width="1"/><line x1="-2400" y1="-4095.25" x2="-2400" y2="3527.75" stroke="#e0e0e0" stroke-width="1"/><line x1="-2350" y1="-4095.25" x2="-2350" y2="3527.75" stroke="#e0e0e0" stroke-width="1"/><line x1="-2300" y1="-4095.25" x2="-2300" y2="3527.75" stroke="#e0e0e0" stroke-width="1"/><line x1="-2250" y1="-4095.25" x2="-2250" y2="3527.75" stroke="#e0e0e0" stroke-width="1"/><line x1="-2200" y1="-4095.25" x2="-2200" y2="3527.75" stroke="#e0e0e0" stroke-width="1"/><line x1="-2150" y1="-4095.25" x2="-2150" y2="3527.75" stroke="#e0e0e0" stroke-width="1"/><line x1="-2100" y1="-4095.25" x2="-2100" y2="3527.75" stroke="#e0e0e0" stroke-width="1"/><line x1="-2050" y1="-4095.25" x2="-2050" y2="3527.75" stroke="#e0e0e0" stroke-width="1"/><line x1="-2000" y1="-4095.25" x2="-2000" y2="3527.75" stroke="#e0e0e0" stroke-width="1"/><line x1="-1950" y1="-4095.25" x2="-1950" y2="3527.75" stroke="#e0e0e0" stroke-width="1"/><line x1="-1900" y1="-4095.25" x2="-1900" y2="3527.75" stroke="#e0e0e0" stroke-width="1"/><line x1="-1850" y1="-4095.25" x2="-1850" y2="3527.75" stroke="#e0e0e0" stroke-width="1"/><line x1="-1800" y1="-4095.25" x2="-1800" y2="3527.75" stroke="#e0e0e0" stroke-width="1"/><line x1="-1750" y1="-4095.25" x2="-1750" y2="3527.75" stroke="#e0e0e0" stroke-width="1"/><line x1="-1700" y1="-4095.25" x2="-1700" y2="3527.75" stroke="#e0e0e0" stroke-width="1"/><line x1="-1650" y1="-4095.25" x2="-1650" y2="3527.75" stroke="#e0e0e0" stroke-width="1"/><line x1="-1600" y1="-4095.25" x2="-1600" y2="3527.75" stroke="#e0e0e0" stroke-width="1"/><line x1="-1550" y1="-4095.25" x2="-1550" y2="3527.75" stroke="#e0e0e0" stroke-width="1"/><line x1="-1500" y1="-4095.25" x2="-1500" y2="3527.75" stroke="#e0e0e0" stroke-width="1"/><line x1="-1450" y1="-4095.25" x2="-1450" y2="3527.75" stroke="#e0e0e0" stroke-width="1"/><line x1="-1400" y1="-4095.25" x2="-1400" y2="3527.75" stroke="#e0e0e0" stroke-width="1"/><line x1="-1350" y1="-4095.25" x2="-1350" y2="3527.75" stroke="#e0e0e0" stroke-width="1"/><line x1="-1300" y1="-4095.25" x2="-1300" y2="3527.75" stroke="#e0e0e0" stroke-width="1"/><line x1="-1250" y1="-4095.25" x2="-1250" y2="3527.75" stroke="#e0e0e0" stroke-width="1"/><line x1="-1200" y1="-4095.25" x2="-1200" y2="3527.75" stroke="#e0e0e0" stroke-width="1"/><line x1="-1150" y1="-4095.25" x2="-1150" y2="3527.75" stroke="#e0e0e0" stroke-width="1"/><line x1="-1100" y1="-4095.25" x2="-1100" y2="3527.75" stroke="#e0e0e0" stroke-width="1"/><line x1="-1050" y1="-4095.25" x2="-1050" y2="3527.75" stroke="#e0e0e0" stroke-width="1"/><line x1="-1000" y1="-4095.25" x2="-1000" y2="3527.75" stroke="#e0e0e0" stroke-width="1"/><line x1="-950" y1="-4095.25" x2="-950" y2="3527.75" stroke="#e0e0e0" stroke-width="1"/><line x1="-900" y1="-4095.25" x2="-900" y2="3527.75" stroke="#e0e0e0" stroke-width="1"/><line x1="-850" y1="-4095.25" x2="-850" y2="3527.75" stroke="#e0e0e0" stroke-width="1"/><line x1="-800" y1="-4095.25" x2="-800" y2="3527.75" stroke="#e0e0e0" stroke-width="1"/><line x1="-750" y1="-4095.25" x2="-750" y2="3527.75" stroke="#e0e0e0" stroke-width="1"/><line x1="-700" y1="-4095.25" x2="-700" y2="3527.75" stroke="#e0e0e0" stroke-width="1"/><line x1="-650" y1="-4095.25" x2="-650" y2="3527.75" stroke="#e0e0e0" stroke-width="1"/><line x1="-600" y1="-4095.25" x2="-600" y2="3527.75" stroke="#e0e0e0" stroke-width="1"/><line x1="-550" y1="-4095.25" x2="-550" y2="3527.75" stroke="#e0e0e0" stroke-width="1"/><line x1="-500" y1="-4095.25" x2="-500" y2="3527.75" stroke="#e0e0e0" stroke-width="1"/><line x1="-450" y1="-4095.25" x2="-450" y2="3527.75" stroke="#e0e0e0" stroke-width="1"/><line x1="-400" y1="-4095.25" x2="-400" y2="3527.75" stroke="#e0e0e0" stroke-width="1"/><line x1="-350" y1="-4095.25" x2="-350" y2="3527.75" stroke="#e0e0e0" stroke-width="1"/><line x1="-300" y1="-4095.25" x2="-300" y2="3527.75" stroke="#e0e0e0" stroke-width="1"/><line x1="-250" y1="-4095.25" x2="-250" y2="3527.75" stroke="#e0e0e0" stroke-width="1"/><line x1="-200" y1="-4095.25" x2="-200" y2="3527.75" stroke="#e0e0e0" stroke-width="1"/><line x1="-150" y1="-4095.25" x2="-150" y2="3527.75" stroke="#e0e0e0" stroke-width="1"/><line x1="-100" y1="-4095.25" x2="-100" y2="3527.75" stroke="#e0e0e0" stroke-width="1"/><line x1="-50" y1="-4095.25" x2="-50" y2="3527.75" stroke="#e0e0e0" stroke-width="1"/><line x1="0" y1="-4095.25" x2="0" y2="3527.75" stroke="#e0e0e0" stroke-width="1"/><line x1="50" y1="-4095.25" x2="50" y2="3527.75" stroke="#e0e0e0" stroke-width="1"/><line x1="100" y1="-4095.25" x2="100" y2="3527.75" stroke="#e0e0e0" stroke-width="1"/><line x1="150" y1="-4095.25" x2="150" y2="3527.75" stroke="#e0e0e0" stroke-width="1"/><line x1="200" y1="-4095.25" x2="200" y2="3527.75" stroke="#e0e0e0" stroke-width="1"/><line x1="250" y1="-4095.25" x2="250" y2="3527.75" stroke="#e0e0e0" stroke-width="1"/><line x1="300" y1="-4095.25" x2="300" y2="3527.75" stroke="#e0e0e0" stroke-width="1"/><line x1="350" y1="-4095.25" x2="350" y2="3527.75" stroke="#e0e0e0" stroke-width="1"/><line x1="400" y1="-4095.25" x2="400" y2="3527.75" stroke="#e0e0e0" stroke-width="1"/><line x1="450" y1="-4095.25" x2="450" y2="3527.75" stroke="#e0e0e0" stroke-width="1"/><line x1="500" y1="-4095.25" x2="500" y2="3527.75" stroke="#e0e0e0" stroke-width="1"/><line x1="550" y1="-4095.25" x2="550" y2="3527.75" stroke="#e0e0e0" stroke-width="1"/><line x1="600" y1="-4095.25" x2="600" y2="3527.75" stroke="#e0e0e0" stroke-width="1"/><line x1="650" y1="-4095.25" x2="650" y2="3527.75" stroke="#e0e0e0" stroke-width="1"/><line x1="700" y1="-4095.25" x2="700" y2="3527.75" stroke="#e0e0e0" stroke-width="1"/><line x1="750" y1="-4095.25" x2="750" y2="3527.75" stroke="#e0e0e0" stroke-width="1"/><line x1="800" y1="-4095.25" x2="800" y2="3527.75" stroke="#e0e0e0" stroke-width="1"/><line x1="850" y1="-4095.25" x2="850" y2="3527.75" stroke="#e0e0e0" stroke-width="1"/><line x1="900" y1="-4095.25" x2="900" y2="3527.75" stroke="#e0e0e0" stroke-width="1"/><line x1="950" y1="-4095.25" x2="950" y2="3527.75" stroke="#e0e0e0" stroke-width="1"/><line x1="1000" y1="-4095.25" x2="1000" y2="3527.75" stroke="#e0e0e0" stroke-width="1"/><line x1="1050" y1="-4095.25" x2="1050" y2="3527.75" stroke="#e0e0e0" stroke-width="1"/><line x1="1100" y1="-4095.25" x2="1100" y2="3527.75" stroke="#e0e0e0" stroke-width="1"/><line x1="1150" y1="-4095.25" x2="1150" y2="3527.75" stroke="#e0e0e0" stroke-width="1"/><line x1="1200" y1="-4095.25" x2="1200" y2="3527.75" stroke="#e0e0e0" stroke-width="1"/><line x1="1250" y1="-4095.25" x2="1250" y2="3527.75" stroke="#e0e0e0" stroke-width="1"/><line x1="1300" y1="-4095.25" x2="1300" y2="3527.75" stroke="#e0e0e0" stroke-width="1"/><line x1="1350" y1="-4095.25" x2="1350" y2="3527.75" stroke="#e0e0e0" stroke-width="1"/><line x1="1400" y1="-4095.25" x2="1400" y2="3527.75" stroke="#e0e0e0" stroke-width="1"/><line x1="1450" y1="-4095.25" x2="1450" y2="3527.75" stroke="#e0e0e0" stroke-width="1"/><line x1="1500" y1="-4095.25" x2="1500" y2="3527.75" stroke="#e0e0e0" stroke-width="1"/><line x1="1550" y1="-4095.25" x2="1550" y2="3527.75" stroke="#e0e0e0" stroke-width="1"/><line x1="1600" y1="-4095.25" x2="1600" y2="3527.75" stroke="#e0e0e0" stroke-width="1"/><line x1="1650" y1="-4095.25" x2="1650" y2="3527.75" stroke="#e0e0e0" stroke-width="1"/><line x1="1700" y1="-4095.25" x2="1700" y2="3527.75" stroke="#e0e0e0" stroke-width="1"/><line x1="1750" y1="-4095.25" x2="1750" y2="3527.75" stroke="#e0e0e0" stroke-width="1"/><line x1="1800" y1="-4095.25" x2="1800" y2="3527.75" stroke="#e0e0e0" stroke-width="1"/><line x1="1850" y1="-4095.25" x2="1850" y2="3527.75" stroke="#e0e0e0" stroke-width="1"/><line x1="1900" y1="-4095.25" x2="1900" y2="3527.75" stroke="#e0e0e0" stroke-width="1"/><line x1="1950" y1="-4095.25" x2="1950" y2="3527.75" stroke="#e0e0e0" stroke-width="1"/><line x1="2000" y1="-4095.25" x2="2000" y2="3527.75" stroke="#e0e0e0" stroke-width="1"/><line x1="2050" y1="-4095.25" x2="2050" y2="3527.75" stroke="#e0e0e0" stroke-width="1"/><line x1="2100" y1="-4095.25" x2="2100" y2="3527.75" stroke="#e0e0e0" stroke-width="1"/><line x1="2150" y1="-4095.25" x2="2150" y2="3527.75" stroke="#e0e0e0" stroke-width="1"/><line x1="2200" y1="-4095.25" x2="2200" y2="3527.75" stroke="#e0e0e0" stroke-width="1"/><line x1="2250" y1="-4095.25" x2="2250" y2="3527.75" stroke="#e0e0e0" stroke-width="1"/><line x1="2300" y1="-4095.25" x2="2300" y2="3527.75" stroke="#e0e0e0" stroke-width="1"/><line x1="2350" y1="-4095.25" x2="2350" y2="3527.75" stroke="#e0e0e0" stroke-width="1"/><line x1="2400" y1="-4095.25" x2="2400" y2="3527.75" stroke="#e0e0e0" stroke-width="1"/><line x1="2450" y1="-4095.25" x2="2450" y2="3527.75" stroke="#e0e0e0" stroke-width="1"/><line x1="2500" y1="-4095.25" x2="2500" y2="3527.75" stroke="#e0e0e0" stroke-width="1"/><line x1="2550" y1="-4095.25" x2="2550" y2="3527.75" stroke="#e0e0e0" stroke-width="1"/><line x1="2600" y1="-4095.25" x2="2600" y2="3527.75" stroke="#e0e0e0" stroke-width="1"/><line x1="2650" y1="-4095.25" x2="2650" y2="3527.75" stroke="#e0e0e0" stroke-width="1"/><line x1="2700" y1="-4095.25" x2="2700" y2="3527.75" stroke="#e0e0e0" stroke-width="1"/><line x1="2750" y1="-4095.25" x2="2750" y2="3527.75" stroke="#e0e0e0" stroke-width="1"/><line x1="2800" y1="-4095.25" x2="2800" y2="3527.75" stroke="#e0e0e0" stroke-width="1"/><line x1="2850" y1="-4095.25" x2="2850" y2="3527.75" stroke="#e0e0e0" stroke-width="1"/><line x1="2900" y1="-4095.25" x2="2900" y2="3527.75" stroke="#e0e0e0" stroke-width="1"/><line x1="2950" y1="-4095.25" x2="2950" y2="3527.75" stroke="#e0e0e0" stroke-width="1"/><line x1="3000" y1="-4095.25" x2="3000" y2="3527.75" stroke="#e0e0e0" stroke-width="1"/><line x1="3050" y1="-4095.25" x2="3050" y2="3527.75" stroke="#e0e0e0" stroke-width="1"/><line x1="3100" y1="-4095.25" x2="3100" y2="3527.75" stroke="#e0e0e0" stroke-width="1"/><line x1="3150" y1="-4095.25" x2="3150" y2="3527.75" stroke="#e0e0e0" stroke-width="1"/><line x1="3200" y1="-4095.25" x2="3200" y2="3527.75" stroke="#e0e0e0" stroke-width="1"/><line x1="3250" y1="-4095.25" x2="3250" y2="3527.75" stroke="#e0e0e0" stroke-width="1"/><line x1="3300" y1="-4095.25" x2="3300" y2="3527.75" stroke="#e0e0e0" stroke-width="1"/><line x1="3350" y1="-4095.25" x2="3350" y2="3527.75" stroke="#e0e0e0" stroke-width="1"/><line x1="3400" y1="-4095.25" x2="3400" y2="3527.75" stroke="#e0e0e0" stroke-width="1"/><line x1="3450" y1="-4095.25" x2="3450" y2="3527.75" stroke="#e0e0e0" stroke-width="1"/><line x1="3500" y1="-4095.25" x2="3500" y2="3527.75" stroke="#e0e0e0" stroke-width="1"/><line x1="3550" y1="-4095.25" x2="3550" y2="3527.75" stroke="#e0e0e0" stroke-width="1"/><line x1="3600" y1="-4095.25" x2="3600" y2="3527.75" stroke="#e0e0e0" stroke-width="1"/><line x1="3650" y1="-4095.25" x2="3650" y2="3527.75" stroke="#e0e0e0" stroke-width="1"/><line x1="3700" y1="-4095.25" x2="3700" y2="3527.75" stroke="#e0e0e0" stroke-width="1"/><line x1="-3242.25" y1="-4100" x2="3654.75" y2="-4100" stroke="#e0e0e0" stroke-width="1"/><line x1="-3242.25" y1="-4050" x2="3654.75" y2="-4050" stroke="#e0e0e0" stroke-width="1"/><line x1="-3242.25" y1="-4000" x2="3654.75" y2="-4000" stroke="#e0e0e0" stroke-width="1"/><line x1="-3242.25" y1="-3950" x2="3654.75" y2="-3950" stroke="#e0e0e0" stroke-width="1"/><line x1="-3242.25" y1="-3900" x2="3654.75" y2="-3900" stroke="#e0e0e0" stroke-width="1"/><line x1="-3242.25" y1="-3850" x2="3654.75" y2="-3850" stroke="#e0e0e0" stroke-width="1"/><line x1="-3242.25" y1="-3800" x2="3654.75" y2="-3800" stroke="#e0e0e0" stroke-width="1"/><line x1="-3242.25" y1="-3750" x2="3654.75" y2="-3750" stroke="#e0e0e0" stroke-width="1"/><line x1="-3242.25" y1="-3700" x2="3654.75" y2="-3700" stroke="#e0e0e0" stroke-width="1"/><line x1="-3242.25" y1="-3650" x2="3654.75" y2="-3650" stroke="#e0e0e0" stroke-width="1"/><line x1="-3242.25" y1="-3600" x2="3654.75" y2="-3600" stroke="#e0e0e0" stroke-width="1"/><line x1="-3242.25" y1="-3550" x2="3654.75" y2="-3550" stroke="#e0e0e0" stroke-width="1"/><line x1="-3242.25" y1="-3500" x2="3654.75" y2="-3500" stroke="#e0e0e0" stroke-width="1"/><line x1="-3242.25" y1="-3450" x2="3654.75" y2="-3450" stroke="#e0e0e0" stroke-width="1"/><line x1="-3242.25" y1="-3400" x2="3654.75" y2="-3400" stroke="#e0e0e0" stroke-width="1"/><line x1="-3242.25" y1="-3350" x2="3654.75" y2="-3350" stroke="#e0e0e0" stroke-width="1"/><line x1="-3242.25" y1="-3300" x2="3654.75" y2="-3300" stroke="#e0e0e0" stroke-width="1"/><line x1="-3242.25" y1="-3250" x2="3654.75" y2="-3250" stroke="#e0e0e0" stroke-width="1"/><line x1="-3242.25" y1="-3200" x2="3654.75" y2="-3200" stroke="#e0e0e0" stroke-width="1"/><line x1="-3242.25" y1="-3150" x2="3654.75" y2="-3150" stroke="#e0e0e0" stroke-width="1"/><line x1="-3242.25" y1="-3100" x2="3654.75" y2="-3100" stroke="#e0e0e0" stroke-width="1"/><line x1="-3242.25" y1="-3050" x2="3654.75" y2="-3050" stroke="#e0e0e0" stroke-width="1"/><line x1="-3242.25" y1="-3000" x2="3654.75" y2="-3000" stroke="#e0e0e0" stroke-width="1"/><line x1="-3242.25" y1="-2950" x2="3654.75" y2="-2950" stroke="#e0e0e0" stroke-width="1"/><line x1="-3242.25" y1="-2900" x2="3654.75" y2="-2900" stroke="#e0e0e0" stroke-width="1"/><line x1="-3242.25" y1="-2850" x2="3654.75" y2="-2850" stroke="#e0e0e0" stroke-width="1"/><line x1="-3242.25" y1="-2800" x2="3654.75" y2="-2800" stroke="#e0e0e0" stroke-width="1"/><line x1="-3242.25" y1="-2750" x2="3654.75" y2="-2750" stroke="#e0e0e0" stroke-width="1"/><line x1="-3242.25" y1="-2700" x2="3654.75" y2="-2700" stroke="#e0e0e0" stroke-width="1"/><line x1="-3242.25" y1="-2650" x2="3654.75" y2="-2650" stroke="#e0e0e0" stroke-width="1"/><line x1="-3242.25" y1="-2600" x2="3654.75" y2="-2600" stroke="#e0e0e0" stroke-width="1"/><line x1="-3242.25" y1="-2550" x2="3654.75" y2="-2550" stroke="#e0e0e0" stroke-width="1"/><line x1="-3242.25" y1="-2500" x2="3654.75" y2="-2500" stroke="#e0e0e0" stroke-width="1"/><line x1="-3242.25" y1="-2450" x2="3654.75" y2="-2450" stroke="#e0e0e0" stroke-width="1"/><line x1="-3242.25" y1="-2400" x2="3654.75" y2="-2400" stroke="#e0e0e0" stroke-width="1"/><line x1="-3242.25" y1="-2350" x2="3654.75" y2="-2350" stroke="#e0e0e0" stroke-width="1"/><line x1="-3242.25" y1="-2300" x2="3654.75" y2="-2300" stroke="#e0e0e0" stroke-width="1"/><line x1="-3242.25" y1="-2250" x2="3654.75" y2="-2250" stroke="#e0e0e0" stroke-width="1"/><line x1="-3242.25" y1="-2200" x2="3654.75" y2="-2200" stroke="#e0e0e0" stroke-width="1"/><line x1="-3242.25" y1="-2150" x2="3654.75" y2="-2150" stroke="#e0e0e0" stroke-width="1"/><line x1="-3242.25" y1="-2100" x2="3654.75" y2="-2100" stroke="#e0e0e0" stroke-width="1"/><line x1="-3242.25" y1="-2050" x2="3654.75" y2="-2050" stroke="#e0e0e0" stroke-width="1"/><line x1="-3242.25" y1="-2000" x2="3654.75" y2="-2000" stroke="#e0e0e0" stroke-width="1"/><line x1="-3242.25" y1="-1950" x2="3654.75" y2="-1950" stroke="#e0e0e0" stroke-width="1"/><line x1="-3242.25" y1="-1900" x2="3654.75" y2="-1900" stroke="#e0e0e0" stroke-width="1"/><line x1="-3242.25" y1="-1850" x2="3654.75" y2="-1850" stroke="#e0e0e0" stroke-width="1"/><line x1="-3242.25" y1="-1800" x2="3654.75" y2="-1800" stroke="#e0e0e0" stroke-width="1"/><line x1="-3242.25" y1="-1750" x2="3654.75" y2="-1750" stroke="#e0e0e0" stroke-width="1"/><line x1="-3242.25" y1="-1700" x2="3654.75" y2="-1700" stroke="#e0e0e0" stroke-width="1"/><line x1="-3242.25" y1="-1650" x2="3654.75" y2="-1650" stroke="#e0e0e0" stroke-width="1"/><line x1="-3242.25" y1="-1600" x2="3654.75" y2="-1600" stroke="#e0e0e0" stroke-width="1"/><line x1="-3242.25" y1="-1550" x2="3654.75" y2="-1550" stroke="#e0e0e0" stroke-width="1"/><line x1="-3242.25" y1="-1500" x2="3654.75" y2="-1500" stroke="#e0e0e0" stroke-width="1"/><line x1="-3242.25" y1="-1450" x2="3654.75" y2="-1450" stroke="#e0e0e0" stroke-width="1"/><line x1="-3242.25" y1="-1400" x2="3654.75" y2="-1400" stroke="#e0e0e0" stroke-width="1"/><line x1="-3242.25" y1="-1350" x2="3654.75" y2="-1350" stroke="#e0e0e0" stroke-width="1"/><line x1="-3242.25" y1="-1300" x2="3654.75" y2="-1300" stroke="#e0e0e0" stroke-width="1"/><line x1="-3242.25" y1="-1250" x2="3654.75" y2="-1250" stroke="#e0e0e0" stroke-width="1"/><line x1="-3242.25" y1="-1200" x2="3654.75" y2="-1200" stroke="#e0e0e0" stroke-width="1"/><line x1="-3242.25" y1="-1150" x2="3654.75" y2="-1150" stroke="#e0e0e0" stroke-width="1"/><line x1="-3242.25" y1="-1100" x2="3654.75" y2="-1100" stroke="#e0e0e0" stroke-width="1"/><line x1="-3242.25" y1="-1050" x2="3654.75" y2="-1050" stroke="#e0e0e0" stroke-width="1"/><line x1="-3242.25" y1="-1000" x2="3654.75" y2="-1000" stroke="#e0e0e0" stroke-width="1"/><line x1="-3242.25" y1="-950" x2="3654.75" y2="-950" stroke="#e0e0e0" stroke-width="1"/><line x1="-3242.25" y1="-900" x2="3654.75" y2="-900" stroke="#e0e0e0" stroke-width="1"/><line x1="-3242.25" y1="-850" x2="3654.75" y2="-850" stroke="#e0e0e0" stroke-width="1"/><line x1="-3242.25" y1="-800" x2="3654.75" y2="-800" stroke="#e0e0e0" stroke-width="1"/><line x1="-3242.25" y1="-750" x2="3654.75" y2="-750" stroke="#e0e0e0" stroke-width="1"/><line x1="-3242.25" y1="-700" x2="3654.75" y2="-700" stroke="#e0e0e0" stroke-width="1"/><line x1="-3242.25" y1="-650" x2="3654.75" y2="-650" stroke="#e0e0e0" stroke-width="1"/><line x1="-3242.25" y1="-600" x2="3654.75" y2="-600" stroke="#e0e0e0" stroke-width="1"/><line x1="-3242.25" y1="-550" x2="3654.75" y2="-550" stroke="#e0e0e0" stroke-width="1"/><line x1="-3242.25" y1="-500" x2="3654.75" y2="-500" stroke="#e0e0e0" stroke-width="1"/><line x1="-3242.25" y1="-450" x2="3654.75" y2="-450" stroke="#e0e0e0" stroke-width="1"/><line x1="-3242.25" y1="-400" x2="3654.75" y2="-400" stroke="#e0e0e0" stroke-width="1"/><line x1="-3242.25" y1="-350" x2="3654.75" y2="-350" stroke="#e0e0e0" stroke-width="1"/><line x1="-3242.25" y1="-300" x2="3654.75" y2="-300" stroke="#e0e0e0" stroke-width="1"/><line x1="-3242.25" y1="-250" x2="3654.75" y2="-250" stroke="#e0e0e0" stroke-width="1"/><line x1="-3242.25" y1="-200" x2="3654.75" y2="-200" stroke="#e0e0e0" stroke-width="1"/><line x1="-3242.25" y1="-150" x2="3654.75" y2="-150" stroke="#e0e0e0" stroke-width="1"/><line x1="-3242.25" y1="-100" x2="3654.75" y2="-100" stroke="#e0e0e0" stroke-width="1"/><line x1="-3242.25" y1="-50" x2="3654.75" y2="-50" stroke="#e0e0e0" stroke-width="1"/><line x1="-3242.25" y1="0" x2="3654.75" y2="0" stroke="#e0e0e0" stroke-width="1"/><line x1="-3242.25" y1="50" x2="3654.75" y2="50" stroke="#e0e0e0" stroke-width="1"/><line x1="-3242.25" y1="100" x2="3654.75" y2="100" stroke="#e0e0e0" stroke-width="1"/><line x1="-3242.25" y1="150" x2="3654.75" y2="150" stroke="#e0e0e0" stroke-width="1"/><line x1="-3242.25" y1="200" x2="3654.75" y2="200" stroke="#e0e0e0" stroke-width="1"/><line x1="-3242.25" y1="250" x2="3654.75" y2="250" stroke="#e0e0e0" stroke-width="1"/><line x1="-3242.25" y1="300" x2="3654.75" y2="300" stroke="#e0e0e0" stroke-width="1"/><line x1="-3242.25" y1="350" x2="3654.75" y2="350" stroke="#e0e0e0" stroke-width="1"/><line x1="-3242.25" y1="400" x2="3654.75" y2="400" stroke="#e0e0e0" stroke-width="1"/><line x1="-3242.25" y1="450" x2="3654.75" y2="450" stroke="#e0e0e0" stroke-width="1"/><line x1="-3242.25" y1="500" x2="3654.75" y2="500" stroke="#e0e0e0" stroke-width="1"/><line x1="-3242.25" y1="550" x2="3654.75" y2="550" stroke="#e0e0e0" stroke-width="1"/><line x1="-3242.25" y1="600" x2="3654.75" y2="600" stroke="#e0e0e0" stroke-width="1"/><line x1="-3242.25" y1="650" x2="3654.75" y2="650" stroke="#e0e0e0" stroke-width="1"/><line x1="-3242.25" y1="700" x2="3654.75" y2="700" stroke="#e0e0e0" stroke-width="1"/><line x1="-3242.25" y1="750" x2="3654.75" y2="750" stroke="#e0e0e0" stroke-width="1"/><line x1="-3242.25" y1="800" x2="3654.75" y2="800" stroke="#e0e0e0" stroke-width="1"/><line x1="-3242.25" y1="850" x2="3654.75" y2="850" stroke="#e0e0e0" stroke-width="1"/><line x1="-3242.25" y1="900" x2="3654.75" y2="900" stroke="#e0e0e0" stroke-width="1"/><line x1="-3242.25" y1="950" x2="3654.75" y2="950" stroke="#e0e0e0" stroke-width="1"/><line x1="-3242.25" y1="1000" x2="3654.75" y2="1000" stroke="#e0e0e0" stroke-width="1"/><line x1="-3242.25" y1="1050" x2="3654.75" y2="1050" stroke="#e0e0e0" stroke-width="1"/><line x1="-3242.25" y1="1100" x2="3654.75" y2="1100" stroke="#e0e0e0" stroke-width="1"/><line x1="-3242.25" y1="1150" x2="3654.75" y2="1150" stroke="#e0e0e0" stroke-width="1"/><line x1="-3242.25" y1="1200" x2="3654.75" y2="1200" stroke="#e0e0e0" stroke-width="1"/><line x1="-3242.25" y1="1250" x2="3654.75" y2="1250" stroke="#e0e0e0" stroke-width="1"/><line x1="-3242.25" y1="1300" x2="3654.75" y2="1300" stroke="#e0e0e0" stroke-width="1"/><line x1="-3242.25" y1="1350" x2="3654.75" y2="1350" stroke="#e0e0e0" stroke-width="1"/><line x1="-3242.25" y1="1400" x2="3654.75" y2="1400" stroke="#e0e0e0" stroke-width="1"/><line x1="-3242.25" y1="1450" x2="3654.75" y2="1450" stroke="#e0e0e0" stroke-width="1"/><line x1="-3242.25" y1="1500" x2="3654.75" y2="1500" stroke="#e0e0e0" stroke-width="1"/><line x1="-3242.25" y1="1550" x2="3654.75" y2="1550" stroke="#e0e0e0" stroke-width="1"/><line x1="-3242.25" y1="1600" x2="3654.75" y2="1600" stroke="#e0e0e0" stroke-width="1"/><line x1="-3242.25" y1="1650" x2="3654.75" y2="1650" stroke="#e0e0e0" stroke-width="1"/><line x1="-3242.25" y1="1700" x2="3654.75" y2="1700" stroke="#e0e0e0" stroke-width="1"/><line x1="-3242.25" y1="1750" x2="3654.75" y2="1750" stroke="#e0e0e0" stroke-width="1"/><line x1="-3242.25" y1="1800" x2="3654.75" y2="1800" stroke="#e0e0e0" stroke-width="1"/><line x1="-3242.25" y1="1850" x2="3654.75" y2="1850" stroke="#e0e0e0" stroke-width="1"/><line x1="-3242.25" y1="1900" x2="3654.75" y2="1900" stroke="#e0e0e0" stroke-width="1"/><line x1="-3242.25" y1="1950" x2="3654.75" y2="1950" stroke="#e0e0e0" stroke-width="1"/><line x1="-3242.25" y1="2000" x2="3654.75" y2="2000" stroke="#e0e0e0" stroke-width="1"/><line x1="-3242.25" y1="2050" x2="3654.75" y2="2050" stroke="#e0e0e0" stroke-width="1"/><line x1="-3242.25" y1="2100" x2="3654.75" y2="2100" stroke="#e0e0e0" stroke-width="1"/><line x1="-3242.25" y1="2150" x2="3654.75" y2="2150" stroke="#e0e0e0" stroke-width="1"/><line x1="-3242.25" y1="2200" x2="3654.75" y2="2200" stroke="#e0e0e0" stroke-width="1"/><line x1="-3242.25" y1="2250" x2="3654.75" y2="2250" stroke="#e0e0e0" stroke-width="1"/><line x1="-3242.25" y1="2300" x2="3654.75" y2="2300" stroke="#e0e0e0" stroke-width="1"/><line x1="-3242.25" y1="2350" x2="3654.75" y2="2350" stroke="#e0e0e0" stroke-width="1"/><line x1="-3242.25" y1="2400" x2="3654.75" y2="2400" stroke="#e0e0e0" stroke-width="1"/><line x1="-3242.25" y1="2450" x2="3654.75" y2="2450" stroke="#e0e0e0" stroke-width="1"/><line x1="-3242.25" y1="2500" x2="3654.75" y2="2500" stroke="#e0e0e0" stroke-width="1"/><line x1="-3242.25" y1="2550" x2="3654.75" y2="2550" stroke="#e0e0e0" stroke-width="1"/><line x1="-3242.25" y1="2600" x2="3654.75" y2="2600" stroke="#e0e0e0" stroke-width="1"/><line x1="-3242.25" y1="2650" x2="3654.75" y2="2650" stroke="#e0e0e0" stroke-width="1"/><line x1="-3242.25" y1="2700" x2="3654.75" y2="2700" stroke="#e0e0e0" stroke-width="1"/><line x1="-3242.25" y1="2750" x2="3654.75" y2="2750" stroke="#e0e0e0" stroke-width="1"/><line x1="-3242.25" y1="2800" x2="3654.75" y2="2800" stroke="#e0e0e0" stroke-width="1"/><line x1="-3242.25" y1="2850" x2="3654.75" y2="2850" stroke="#e0e0e0" stroke-width="1"/><line x1="-3242.25" y1="2900" x2="3654.75" y2="2900" stroke="#e0e0e0" stroke-width="1"/><line x1="-3242.25" y1="2950" x2="3654.75" y2="2950" stroke="#e0e0e0" stroke-width="1"/><line x1="-3242.25" y1="3000" x2="3654.75" y2="3000" stroke="#e0e0e0" stroke-width="1"/><line x1="-3242.25" y1="3050" x2="3654.75" y2="3050" stroke="#e0e0e0" stroke-width="1"/><line x1="-3242.25" y1="3100" x2="3654.75" y2="3100" stroke="#e0e0e0" stroke-width="1"/><line x1="-3242.25" y1="3150" x2="3654.75" y2="3150" stroke="#e0e0e0" stroke-width="1"/><line x1="-3242.25" y1="3200" x2="3654.75" y2="3200" stroke="#e0e0e0" stroke-width="1"/><line x1="-3242.25" y1="3250" x2="3654.75" y2="3250" stroke="#e0e0e0" stroke-width="1"/><line x1="-3242.25" y1="3300" x2="3654.75" y2="3300" stroke="#e0e0e0" stroke-width="1"/><line x1="-3242.25" y1="3350" x2="3654.75" y2="3350" stroke="#e0e0e0" stroke-width="1"/><line x1="-3242.25" y1="3400" x2="3654.75" y2="3400" stroke="#e0e0e0" stroke-width="1"/><line x1="-3242.25" y1="3450" x2="3654.75" y2="3450" stroke="#e0e0e0" stroke-width="1"/><line x1="-3242.25" y1="3500" x2="3654.75" y2="3500" stroke="#e0e0e0" stroke-width="1"/><line x1="-3242.25" y1="3550" x2="3654.75" y2="3550" stroke="#e0e0e0" stroke-width="1"/></g>
            <g id="aperture-rays"><polygon points="0.09999999999999964,-14.999999999999998 0.09999999999999964,-55 9.9,-55 9.9,-15.000000000000002" fill="#00ff81" fill-opacity="0.2" stroke="none" pointer-events="none"/><line x1="0.09999999999999964" y1="-14.999999999999998" x2="0.09999999999999964" y2="-55" stroke="black" stroke-width="1" stroke-dasharray="3,3" pointer-events="none"/><line x1="9.9" y1="-15.000000000000002" x2="9.9" y2="-55" stroke="black" stroke-width="1" stroke-dasharray="3,3" pointer-events="none"/><polygon points="0.09999999999999964,-55 0.09999999999999964,-102.15258834476056 9.9,-112.84741165523944 9.9,-55" fill="#00ff81" fill-opacity="0.2" stroke="none" pointer-events="none"/><line x1="0.09999999999999964" y1="-55" x2="0.09999999999999964" y2="-102.15258834476056" stroke="black" stroke-width="1" stroke-dasharray="3,3" pointer-events="none"/><line x1="9.9" y1="-55" x2="9.9" y2="-112.84741165523944" stroke="black" stroke-width="1" stroke-dasharray="3,3" pointer-events="none"/><polygon points="0.09999999999999964,-102.15258834476056 62.5,-102.15258834476056 62.5,-112.84741165523944 9.9,-112.84741165523944" fill="#00ff81" fill-opacity="0.2" stroke="none" pointer-events="none"/><line x1="0.09999999999999964" y1="-102.15258834476056" x2="62.5" y2="-102.15258834476056" stroke="black" stroke-width="1" stroke-dasharray="3,3" pointer-events="none"/><line x1="9.9" y1="-112.84741165523944" x2="62.5" y2="-112.84741165523944" stroke="black" stroke-width="1" stroke-dasharray="3,3" pointer-events="none"/><polygon points="62.5,-102.15258834476056 112.5,-102.15258834476056 112.5,-112.84741165523944 62.5,-112.84741165523944" fill="#00ff81" fill-opacity="0.2" stroke="none" pointer-events="none"/><line x1="62.5" y1="-102.15258834476056" x2="112.5" y2="-102.15258834476056" stroke="black" stroke-width="1" stroke-dasharray="3,3" pointer-events="none"/><line x1="62.5" y1="-112.84741165523944" x2="112.5" y2="-112.84741165523944" stroke="black" stroke-width="1" stroke-dasharray="3,3" pointer-events="none"/><polygon points="112.5,-102.15258834476056 185,-102.15258834476056 185,-112.84741165523944 112.5,-112.84741165523944" fill="#00ff81" fill-opacity="0.2" stroke="none" pointer-events="none"/><line x1="112.5" y1="-102.15258834476056" x2="185" y2="-102.15258834476056" stroke="black" stroke-width="1" stroke-dasharray="3,3" pointer-events="none"/><line x1="112.5" y1="-112.84741165523944" x2="185" y2="-112.84741165523944" stroke="black" stroke-width="1" stroke-dasharray="3,3" pointer-events="none"/><polygon points="185,-102.15258834476056 317.5,-102.15258834476056 317.5,-112.84741165523944 185,-112.84741165523944" fill="#00ff81" fill-opacity="0.2" stroke="none" pointer-events="none"/><line x1="185" y1="-102.15258834476056" x2="317.5" y2="-102.15258834476056" stroke="black" stroke-width="1" stroke-dasharray="3,3" pointer-events="none"/><line x1="185" y1="-112.84741165523944" x2="317.5" y2="-112.84741165523944" stroke="black" stroke-width="1" stroke-dasharray="3,3" pointer-events="none"/><polygon points="300,-107.5 287.3,-210 312.7,-210 300,-107.5" fill="#ff5e00" fill-opacity="0.2" stroke="none" pointer-events="none"/><line x1="300" y1="-107.5" x2="287.3" y2="-210" stroke="black" stroke-width="1" stroke-dasharray="3,3" pointer-events="none"/><line x1="300" y1="-107.5" x2="312.7" y2="-210" stroke="black" stroke-width="1" stroke-dasharray="3,3" pointer-events="none"/><polygon points="287.3,-210 287.3,-332.7 312.7,-307.3 312.7,-210" fill="#ff5e00" fill-opacity="0.2" stroke="none" pointer-events="none"/><line x1="287.3" y1="-210" x2="287.3" y2="-332.7" stroke="black" stroke-width="1" stroke-dasharray="3,3" pointer-events="none"/><line x1="312.7" y1="-210" x2="312.7" y2="-307.3" stroke="black" stroke-width="1" stroke-dasharray="3,3" pointer-events="none"/><polygon points="287.3,-332.7 245,-332.7 245,-307.3 312.7,-307.3" fill="#ff5e00" fill-opacity="0.2" stroke="none" pointer-events="none"/><line x1="287.3" y1="-332.7" x2="245" y2="-332.7" stroke="black" stroke-width="1" stroke-dasharray="3,3" pointer-events="none"/><line x1="312.7" y1="-307.3" x2="245" y2="-307.3" stroke="black" stroke-width="1" stroke-dasharray="3,3" pointer-events="none"/><polygon points="245,-332.7 193.5653282912024,-326.43467170879757 206.4346717087976,-313.56532829120243 245,-307.3" fill="#ff5e00" fill-opacity="0.2" stroke="none" pointer-events="none"/><line x1="245" y1="-332.7" x2="193.5653282912024" y2="-326.43467170879757" stroke="black" stroke-width="1" stroke-dasharray="3,3" pointer-events="none"/><line x1="245" y1="-307.3" x2="206.4346717087976" y2="-313.56532829120243" stroke="black" stroke-width="1" stroke-dasharray="3,3" pointer-events="none"/><polygon points="193.5653282912024,-326.43467170879757 200,-345 200,-345 206.4346717087976,-313.56532829120243" fill="#ff5e00" fill-opacity="0.2" stroke="none" pointer-events="none"/><line x1="193.5653282912024" y1="-326.43467170879757" x2="200" y2="-345" stroke="black" stroke-width="1" stroke-dasharray="3,3" pointer-events="none"/><line x1="206.4346717087976" y1="-313.56532829120243" x2="200" y2="-345" stroke="black" stroke-width="1" stroke-dasharray="3,3" pointer-events="none"/><polygon points="200,-345 189.0610580950441,-387.5 210.9389419049559,-387.5 200,-345" fill="#ff5e00" fill-opacity="0.2" stroke="none" pointer-events="none"/><line x1="200" y1="-345" x2="189.0610580950441" y2="-387.5" stroke="black" stroke-width="1" stroke-dasharray="3,3" pointer-events="none"/><line x1="200" y1="-345" x2="210.9389419049559" y2="-387.5" stroke="black" stroke-width="1" stroke-dasharray="3,3" pointer-events="none"/><polygon points="189.0610580950441,-387.5 169.0610580950441,-475 190.9389419049559,-475 210.9389419049559,-387.5" fill="#ff5e00" fill-opacity="0.2" stroke="none" pointer-events="none"/><line x1="189.0610580950441" y1="-387.5" x2="169.0610580950441" y2="-475" stroke="black" stroke-width="1" stroke-dasharray="3,3" pointer-events="none"/><line x1="210.9389419049559" y1="-387.5" x2="190.9389419049559" y2="-475" stroke="black" stroke-width="1" stroke-dasharray="3,3" pointer-events="none"/><polygon points="169.0610580950441,-475 176.18162338159263,-528.6816233815927 183.81837661840737,-536.3183766184073 190.9389419049559,-475" fill="#ff5e00" fill-opacity="0.2" stroke="none" pointer-events="none"/><line x1="169.0610580950441" y1="-475" x2="176.18162338159263" y2="-528.6816233815927" stroke="black" stroke-width="1" stroke-dasharray="3,3" pointer-events="none"/><line x1="190.9389419049559" y1="-475" x2="183.81837661840737" y2="-536.3183766184073" stroke="black" stroke-width="1" stroke-dasharray="3,3" pointer-events="none"/><polygon points="176.18162338159263,-528.6816233815927 190,-532.5 190,-532.5 183.81837661840737,-536.3183766184073" fill="#ff5e00" fill-opacity="0.2" stroke="none" pointer-events="none"/><line x1="176.18162338159263" y1="-528.6816233815927" x2="190" y2="-532.5" stroke="black" stroke-width="1" stroke-dasharray="3,3" pointer-events="none"/><line x1="183.81837661840737" y1="-536.3183766184073" x2="190" y2="-532.5" stroke="black" stroke-width="1" stroke-dasharray="3,3" pointer-events="none"/><polygon points="190,-532.5 196.18162338159263,-536.3183766184073 203.81837661840737,-528.6816233815927 190,-532.5" fill="#ff5e00" fill-opacity="0.2" stroke="none" pointer-events="none"/><line x1="190" y1="-532.5" x2="196.18162338159263" y2="-536.3183766184073" stroke="black" stroke-width="1" stroke-dasharray="3,3" pointer-events="none"/><line x1="190" y1="-532.5" x2="203.81837661840737" y2="-528.6816233815927" stroke="black" stroke-width="1" stroke-dasharray="3,3" pointer-events="none"/><polygon points="196.18162338159263,-536.3183766184073 189.9,-472.5 210.1,-472.5 203.81837661840737,-528.6816233815927" fill="#ff5e00" fill-opacity="0.2" stroke="none" pointer-events="none"/><line x1="196.18162338159263" y1="-536.3183766184073" x2="189.9" y2="-472.5" stroke="black" stroke-width="1" stroke-dasharray="3,3" pointer-events="none"/><line x1="203.81837661840737" y1="-528.6816233815927" x2="210.1" y2="-472.5" stroke="black" stroke-width="1" stroke-dasharray="3,3" pointer-events="none"/><polygon points="189.9,-472.5 169.9,-387.5 190.1,-387.5 210.1,-472.5" fill="#ff5e00" fill-opacity="0.2" stroke="none" pointer-events="none"/><line x1="189.9" y1="-472.5" x2="169.9" y2="-387.5" stroke="black" stroke-width="1" stroke-dasharray="3,3" pointer-events="none"/><line x1="210.1" y1="-472.5" x2="190.1" y2="-387.5" stroke="black" stroke-width="1" stroke-dasharray="3,3" pointer-events="none"/><polygon points="169.9,-387.5 180,-345 180,-345 190.1,-387.5" fill="#ff5e00" fill-opacity="0.2" stroke="none" pointer-events="none"/><line x1="169.9" y1="-387.5" x2="180" y2="-345" stroke="black" stroke-width="1" stroke-dasharray="3,3" pointer-events="none"/><line x1="190.1" y1="-387.5" x2="180" y2="-345" stroke="black" stroke-width="1" stroke-dasharray="3,3" pointer-events="none"/><polygon points="180,-345 185.94117647058823,-325.94117647058823 174.05882352941177,-314.05882352941177 180,-345" fill="#ff5e00" fill-opacity="0.2" stroke="none" pointer-events="none"/><line x1="180" y1="-345" x2="185.94117647058823" y2="-325.94117647058823" stroke="black" stroke-width="1" stroke-dasharray="3,3" pointer-events="none"/><line x1="180" y1="-345" x2="174.05882352941177" y2="-314.05882352941177" stroke="black" stroke-width="1" stroke-dasharray="3,3" pointer-events="none"/><polygon points="185.94117647058823,-325.94117647058823 140,-331.7 140,-308.3 174.05882352941177,-314.05882352941177" fill="#ff5e00" fill-opacity="0.2" stroke="none" pointer-events="none"/><line x1="185.94117647058823" y1="-325.94117647058823" x2="140" y2="-331.7" stroke="black" stroke-width="1" stroke-dasharray="3,3" pointer-events="none"/><line x1="174.05882352941177" y1="-314.05882352941177" x2="140" y2="-308.3" stroke="black" stroke-width="1" stroke-dasharray="3,3" pointer-events="none"/><polygon points="140,-331.7 95,-320 95,-320 140,-308.3" fill="#ff5e00" fill-opacity="0.2" stroke="none" pointer-events="none"/><line x1="140" y1="-331.7" x2="95" y2="-320" stroke="black" stroke-width="1" stroke-dasharray="3,3" pointer-events="none"/><line x1="140" y1="-308.3" x2="95" y2="-320" stroke="black" stroke-width="1" stroke-dasharray="3,3" pointer-events="none"/></g><g id="components"><g class="component" data-id="0" data-type="plane" transform="translate(5,-15) rotate(270 0 0)" data-flipped-h="false" data-flipped-v="false"><rect class="component-hit-area" x="-3" y="-20" width="6" height="40" visibility="hidden"/><line x1="0" y1="-20" x2="0" y2="20" stroke="black" stroke-width="1.5" pointer-events="none" style="opacity: 0;"/></g><g class="component" data-id="1" data-type="lens" transform="translate(5,-55) rotate(-90 0 0)" data-flipped-h="false" data-flipped-v="false"><rect class="component-hit-area" x="-5" y="-30" width="10" height="60" visibility="hidden"/><path d="M 0 -30 C 6 -27 6 27 0 30 C -6 27 -6 -27 0 -30" stroke="black" stroke-width="1.5" fill="#145ec0" fill-opacity="0.3" pointer-events="none" style="opacity: 1;"/></g><g class="component" data-id="2" data-type="mirror" transform="translate(8,-107.5) rotate(222.5 -3 0)" data-flipped-h="false" data-flipped-v="false"><rect class="component-hit-area" x="-3" y="-30" width="6" height="60" visibility="hidden"/><path d="M -3 -30 L 3 -30 L 3 30 L -3 30 Z" stroke="black" stroke-width="1.5" fill="#8caed6" fill-opacity="1" pointer-events="none" style="opacity: 1;"/><line x1="-3" y1="-30.75" x2="-3" y2="30.75" stroke="black" stroke-width="2.5" pointer-events="none" style="opacity: 1;"/></g><g class="component" data-id="3" data-type="lens" transform="translate(62.5,-107.5) rotate(0 0 0)" data-flipped-h="false" data-flipped-v="false"><rect class="component-hit-area" x="-5" y="-30" width="10" height="60" visibility="hidden"/><path d="M 0 -30 C 6 -27 6 27 0 30 C -6 27 -6 -27 0 -30" stroke="black" stroke-width="1.5" fill="#145ec0" fill-opacity="0.3" pointer-events="none" style="opacity: 1;"/></g><g class="component" data-id="4" data-type="lens" transform="translate(112.5,-107.5) rotate(0 0 0)" data-flipped-h="false" data-flipped-v="false"><rect class="component-hit-area" x="-5" y="-30" width="10" height="60" visibility="hidden"/><path d="M 0 -30 C 6 -27 6 27 0 30 C -6 27 -6 -27 0 -30" stroke="black" stroke-width="1.5" fill="#145ec0" fill-opacity="0.3" pointer-events="none" style="opacity: 1;"/></g><g class="component" data-id="5" data-type="objective3" transform="translate(185,-107.5) rotate(0 0 0) translate(0,0) scale(-1,1) translate(0,0)" data-flipped-h="true" data-flipped-v="false"><rect class="component-hit-area" x="-38" y="-30" width="76" height="60" visibility="hidden"/><path d="M -26 -30 L -28 -30 L -38 -22 L -38 22 L -28 30 L -26 30 Z" fill="#d9d9d9" stroke="black" stroke-width="1.5" pointer-events="none" style="opacity: 1;"/><rect x="-28" y="-30" width="10" height="60" fill="#5a5a5a" stroke="black" stroke-width="1.5" pointer-events="none" style="opacity: 1;"/><rect x="-18" y="-30" width="5" height="60" fill="#d9d9d9" stroke="black" stroke-width="1" pointer-events="none" style="opacity: 1;"/><rect x="-13" y="-30" width="51" height="60" fill="#888888" stroke="black" stroke-width="1.5" pointer-events="none" style="opacity: 1;"/></g><g class="component" data-id="6" data-type="plane" transform="translate(317.5,-107.5) rotate(0 0 0)" data-flipped-h="false" data-flipped-v="false"><rect class="component-hit-area" x="-3" y="-20" width="6" height="40" visibility="hidden"/><line x1="0" y1="-20" x2="0" y2="20" stroke="black" stroke-width="1.5" pointer-events="none" style="opacity: 0;"/></g><g class="component" data-id="7" data-type="point" transform="translate(300,-107.5) rotate(0 0 0)" data-flipped-h="false" data-flipped-v="false"><rect class="component-hit-area" x="-2.5" y="-2.5" width="5" height="5" visibility="hidden"/><circle cx="0" cy="0" r="2.5" stroke="black" pointer-events="none" style="opacity: 0;"/></g><g class="component" data-id="8" data-type="objective" transform="translate(300,-210) rotate(-90 0 0)" data-flipped-h="false" data-flipped-v="false"><rect class="component-hit-area" x="-64.5" y="-30" width="129" height="60" visibility="hidden"/><path d="M -46.5 -30 L -48.5 -30 L -64.5 -15 L -64.5 15 L -48.5 30 L -46.5 30 Z" fill="#d9d9d9" stroke="black" stroke-width="1.5" pointer-events="none" style="opacity: 1;"/><rect x="-48.5" y="-30" width="10" height="60" fill="#5a5a5a" stroke="black" stroke-width="1.5" pointer-events="none" style="opacity: 1;"/><rect x="-38.5" y="-30" width="5" height="60" fill="#d9d9d9" stroke="black" stroke-width="1" pointer-events="none" style="opacity: 1;"/><rect x="-33.5" y="-30" width="90" height="60" fill="#888888" stroke="black" stroke-width="1.5" pointer-events="none" style="opacity: 1;"/><rect x="56.5" y="-21" width="8" height="42" fill="#686868" fill-opacity="1" stroke="black" stroke-width="1.5" pointer-events="none" style="opacity: 1;"/></g><g class="component" data-id="9" data-type="mirror" transform="translate(303,-320) rotate(-45 -3 0)" data-flipped-h="false" data-flipped-v="false"><rect class="component-hit-area" x="-3" y="-30" width="6" height="60" visibility="hidden"/><path d="M -3 -30 L 3 -30 L 3 30 L -3 30 Z" stroke="black" stroke-width="1.5" fill="#8caed6" fill-opacity="1" pointer-events="none" style="opacity: 1;"/><line x1="-3" y1="-30.75" x2="-3" y2="30.75" stroke="black" stroke-width="2.5" pointer-events="none" style="opacity: 1;"/></g><g class="component" data-id="10" data-type="lens" transform="translate(245,-320) rotate(180 0 0)" data-flipped-h="false" data-flipped-v="false"><rect class="component-hit-area" x="-5" y="-30" width="10" height="60" visibility="hidden"/><path d="M 0 -30 C 6 -27 6 27 0 30 C -6 27 -6 -27 0 -30" stroke="black" stroke-width="1.5" fill="#145ec0" fill-opacity="0.3" pointer-events="none" style="opacity: 1;"/></g><g class="component" data-id="11" data-type="plane" transform="translate(200,-320) rotate(135 0 0)" data-flipped-h="false" data-flipped-v="false"><rect class="component-hit-area" x="-3" y="-20" width="6" height="40" visibility="hidden"/><line x1="0" y1="-20" x2="0" y2="20" stroke="black" stroke-width="1.5" pointer-events="none" style="opacity: 0;"/></g><g class="component" data-id="12" data-type="point" transform="translate(200,-345) rotate(-90 0 0)" data-flipped-h="false" data-flipped-v="false"><rect class="component-hit-area" x="-2.5" y="-2.5" width="5" height="5" visibility="hidden"/><circle cx="0" cy="0" r="2.5" stroke="black" pointer-events="none" style="opacity: 0;"/></g><g class="component" data-id="13" data-type="plane" transform="translate(200,-387.5) rotate(-90 0 0)" data-flipped-h="false" data-flipped-v="false"><rect class="component-hit-area" x="-3" y="-20" width="6" height="40" visibility="hidden"/><line x1="0" y1="-20" x2="0" y2="20" stroke="black" stroke-width="1.5" pointer-events="none" style="opacity: 0;"/></g><g class="component" data-id="14" data-type="plane" transform="translate(180,-475) rotate(270 0 0)" data-flipped-h="false" data-flipped-v="false"><rect class="component-hit-area" x="-3" y="-20" width="6" height="40" visibility="hidden"/><line x1="0" y1="-20" x2="0" y2="20" stroke="black" stroke-width="1.5" pointer-events="none" style="opacity: 0;"/></g><g class="component" data-id="15" data-type="plane" transform="translate(180,-532.5) rotate(225 0 0)" data-flipped-h="false" data-flipped-v="false"><rect class="component-hit-area" x="-3" y="-20" width="6" height="40" visibility="hidden"/><line x1="0" y1="-20" x2="0" y2="20" stroke="black" stroke-width="1.5" pointer-events="none" style="opacity: 0;"/></g><g class="component" data-id="16" data-type="point" transform="translate(190,-532.5) rotate(0 0 0)" data-flipped-h="false" data-flipped-v="false"><rect class="component-hit-area" x="-2.5" y="-2.5" width="5" height="5" visibility="hidden"/><circle cx="0" cy="0" r="2.5" stroke="black" pointer-events="none" style="opacity: 0;"/></g><g class="component" data-id="17" data-type="plane" transform="translate(200,-532.5) rotate(-45 0 0)" data-flipped-h="false" data-flipped-v="false"><rect class="component-hit-area" x="-3" y="-20" width="6" height="40" visibility="hidden"/><line x1="0" y1="-20" x2="0" y2="20" stroke="black" stroke-width="1.5" pointer-events="none" style="opacity: 0;"/></g><g class="component" data-id="18" data-type="plane" transform="translate(200,-472.5) rotate(90 0 0)" data-flipped-h="false" data-flipped-v="false"><rect class="component-hit-area" x="-3" y="-20" width="6" height="40" visibility="hidden"/><line x1="0" y1="-20" x2="0" y2="20" stroke="black" stroke-width="1.5" pointer-events="none" style="opacity: 0;"/></g><g class="component" data-id="19" data-type="plane" transform="translate(180,-387.5) rotate(90 0 0)" data-flipped-h="false" data-flipped-v="false"><rect class="component-hit-area" x="-3" y="-20" width="6" height="40" visibility="hidden"/><line x1="0" y1="-20" x2="0" y2="20" stroke="black" stroke-width="1.5" pointer-events="none" style="opacity: 0;"/></g><g class="component" data-id="21" data-type="objective3" transform="translate(190,-465) rotate(90 0 0)" data-flipped-h="false" data-flipped-v="false"><rect class="component-hit-area" x="-38" y="-30" width="76" height="60" visibility="hidden"/><path d="M -26 -30 L -28 -30 L -38 -22 L -38 22 L -28 30 L -26 30 Z" fill="#d9d9d9" stroke="black" stroke-width="1.5" pointer-events="none" style="opacity: 1;"/><rect x="-28" y="-30" width="10" height="60" fill="#5a5a5a" stroke="black" stroke-width="1.5" pointer-events="none" style="opacity: 1;"/><rect x="-18" y="-30" width="5" height="60" fill="#d9d9d9" stroke="black" stroke-width="1" pointer-events="none" style="opacity: 1;"/><rect x="-13" y="-30" width="51" height="60" fill="#888888" stroke="black" stroke-width="1.5" pointer-events="none" style="opacity: 1;"/></g><g class="component" data-id="23" data-type="lens" transform="translate(190,-387.5) rotate(-90 0 0)" data-flipped-h="false" data-flipped-v="false"><rect class="component-hit-area" x="-5" y="-30" width="10" height="60" visibility="hidden"/><path d="M 0 -30 C 6 -27 6 27 0 30 C -6 27 -6 -27 0 -30" stroke="black" stroke-width="1.5" fill="#145ec0" fill-opacity="0.3" pointer-events="none" style="opacity: 1;"/></g><g class="component" data-id="24" data-type="point" transform="translate(180,-345) rotate(90 0 0)" data-flipped-h="false" data-flipped-v="false"><rect class="component-hit-area" x="-2.5" y="-2.5" width="5" height="5" visibility="hidden"/><circle cx="0" cy="0" r="2.5" stroke="black" pointer-events="none" style="opacity: 0;"/></g><g class="component" data-id="25" data-type="plane" transform="translate(180,-320) rotate(45 0 0)" data-flipped-h="false" data-flipped-v="false"><rect class="component-hit-area" x="-3" y="-20" width="6" height="40" visibility="hidden"/><line x1="0" y1="-20" x2="0" y2="20" stroke="black" stroke-width="1.5" pointer-events="none" style="opacity: 0;"/></g><g class="component" data-id="28" data-type="right-angle-prism" transform="translate(190,-300) rotate(90 0 0)" data-flipped-h="false" data-flipped-v="false"><rect class="component-hit-area" x="-30" y="-30" width="30" height="60" visibility="hidden"/><path d="M 0 -30 L 0 30 L -30 0 Z" fill="#145ec0" fill-opacity="0.3" stroke="black" stroke-width="1.5" pointer-events="none" style="opacity: 1;"/></g><g class="component" data-id="29" data-type="lens" transform="translate(140,-320) rotate(180 0 0)" data-flipped-h="false" data-flipped-v="false"><rect class="component-hit-area" x="-5" y="-30" width="10" height="60" visibility="hidden"/><path d="M 0 -30 C 6 -27 6 27 0 30 C -6 27 -6 -27 0 -30" stroke="black" stroke-width="1.5" fill="#145ec0" fill-opacity="0.3" pointer-events="none" style="opacity: 1;"/></g><g class="component" data-id="30" data-type="detector" transform="translate(140,-320) rotate(180 -45 0)" data-flipped-h="false" data-flipped-v="false"><rect class="component-hit-area" x="-42.5" y="-30" width="85" height="60" visibility="hidden"/><path d="&#10;            M -40 -30&#10;            H 40&#10;            V 30&#10;            H -40&#10;            Z&#10;            " fill="#cccccc" stroke="black" stroke-width="1.5" pointer-events="none" style="opacity: 1;"/><rect x="-45" y="-20" width="5" height="40" fill="#2e2e2e" stroke="black" stroke-width="1.5" pointer-events="none" style="opacity: 1;"/></g><g class="component" data-id="31" data-type="voice-coil-mirror2" transform="translate(193,-542.5) rotate(-90 -3 0)" data-flipped-h="false" data-flipped-v="false"><rect class="component-hit-area" x="-3" y="-30" width="19" height="60" visibility="hidden"/><path d="M -3 -20 L 3 -20 L 3 20 L -3 20 L -3 12 L -15 12 L -3 0 L -15 -12 L -3 -12 Z" stroke="black" stroke-width="1.5" fill="#145ec0" fill-opacity="0.4" pointer-events="none" style="opacity: 1;"/><line x1="-3" y1="-20.75" x2="-3" y2="20.75" stroke="black" stroke-width="2" pointer-events="none" style="opacity: 1;"/><rect x="3" y="-8" width="5" height="16" fill="#252525ff" stroke="black" stroke-width="1.5" pointer-events="none" style="opacity: 1;"/><rect x="8" y="-30" width="8" height="60" fill="#828282" stroke="black" stroke-width="1.5" pointer-events="none" style="opacity: 1;"/></g></g>
          </svg>