<?xml version="1.0" standalone="no"?>
<svg id="canvas" preserveAspectRatio="xMidYMid meet" width="900" height="400" viewBox="-325 -212.5 900 400" xmlns="http://www.w3.org/2000/svg">
            <defs>
              <!-- Component definitions will go here -->
            <linearGradient id="gradient-2-0" gradientUnits="userSpaceOnUse" x1="192.5" y1="-23.9" x2="192.5" y2="23.9"><stop offset="0%" stop-color="#ff0000" stop-opacity="0.2"/><stop offset="25%" stop-color="#ffa500" stop-opacity="0.2"/><stop offset="50%" stop-color="#b4ff00" stop-opacity="0.2"/><stop offset="75%" stop-color="#0fff00" stop-opacity="0.2"/><stop offset="100%" stop-color="#00ff97" stop-opacity="0.2"/></linearGradient><linearGradient id="gradient-3-0" gradientUnits="userSpaceOnUse" x1="218.75" y1="-23.9" x2="218.75" y2="23.9"><stop offset="0%" stop-color="#ff0000" stop-opacity="0.2"/><stop offset="25%" stop-color="#ffa500" stop-opacity="0.2"/><stop offset="50%" stop-color="#b4ff00" stop-opacity="0.2"/><stop offset="75%" stop-color="#0fff00" stop-opacity="0.2"/><stop offset="100%" stop-color="#00ff97" stop-opacity="0.2"/></linearGradient><linearGradient id="gradient-4-0" gradientUnits="userSpaceOnUse" x1="236.25" y1="-19.5" x2="236.25" y2="19.5"><stop offset="0%" stop-color="#ff0000" stop-opacity="0.2"/><stop offset="25%" stop-color="#ffa500" stop-opacity="0.2"/><stop offset="50%" stop-color="#b4ff00" stop-opacity="0.2"/><stop offset="75%" stop-color="#0fff00" stop-opacity="0.2"/><stop offset="100%" stop-color="#00ff97" stop-opacity="0.2"/></linearGradient></defs>
            <!-- <circle cx="0" cy="0" r="5" fill="red"/> -->
            <g id="grid" style="display: none;"><line x1="-4850" y1="-2212.5" x2="-4850" y2="2187.5" stroke="#e0e0e0" stroke-width="1"/><line x1="-4800" y1="-2212.5" x2="-4800" y2="2187.5" stroke="#e0e0e0" stroke-width="1"/><line x1="-4750" y1="-2212.5" x2="-4750" y2="2187.5" stroke="#e0e0e0" stroke-width="1"/><line x1="-4700" y1="-2212.5" x2="-4700" y2="2187.5" stroke="#e0e0e0" stroke-width="1"/><line x1="-4650" y1="-2212.5" x2="-4650" y2="2187.5" stroke="#e0e0e0" stroke-width="1"/><line x1="-4600" y1="-2212.5" x2="-4600" y2="2187.5" stroke="#e0e0e0" stroke-width="1"/><line x1="-4550" y1="-2212.5" x2="-4550" y2="2187.5" stroke="#e0e0e0" stroke-width="1"/><line x1="-4500" y1="-2212.5" x2="-4500" y2="2187.5" stroke="#e0e0e0" stroke-width="1"/><line x1="-4450" y1="-2212.5" x2="-4450" y2="2187.5" stroke="#e0e0e0" stroke-width="1"/><line x1="-4400" y1="-2212.5" x2="-4400" y2="2187.5" stroke="#e0e0e0" stroke-width="1"/><line x1="-4350" y1="-2212.5" x2="-4350" y2="2187.5" stroke="#e0e0e0" stroke-width="1"/><line x1="-4300" y1="-2212.5" x2="-4300" y2="2187.5" stroke="#e0e0e0" stroke-width="1"/><line x1="-4250" y1="-2212.5" x2="-4250" y2="2187.5" stroke="#e0e0e0" stroke-width="1"/><line x1="-4200" y1="-2212.5" x2="-4200" y2="2187.5" stroke="#e0e0e0" stroke-width="1"/><line x1="-4150" y1="-2212.5" x2="-4150" y2="2187.5" stroke="#e0e0e0" stroke-width="1"/><line x1="-4100" y1="-2212.5" x2="-4100" y2="2187.5" stroke="#e0e0e0" stroke-width="1"/><line x1="-4050" y1="-2212.5" x2="-4050" y2="2187.5" stroke="#e0e0e0" stroke-width="1"/><line x1="-4000" y1="-2212.5" x2="-4000" y2="2187.5" stroke="#e0e0e0" stroke-width="1"/><line x1="-3950" y1="-2212.5" x2="-3950" y2="2187.5" stroke="#e0e0e0" stroke-width="1"/><line x1="-3900" y1="-2212.5" x2="-3900" y2="2187.5" stroke="#e0e0e0" stroke-width="1"/><line x1="-3850" y1="-2212.5" x2="-3850" y2="2187.5" stroke="#e0e0e0" stroke-width="1"/><line x1="-3800" y1="-2212.5" x2="-3800" y2="2187.5" stroke="#e0e0e0" stroke-width="1"/><line x1="-3750" y1="-2212.5" x2="-3750" y2="2187.5" stroke="#e0e0e0" stroke-width="1"/><line x1="-3700" y1="-2212.5" x2="-3700" y2="2187.5" stroke="#e0e0e0" stroke-width="1"/><line x1="-3650" y1="-2212.5" x2="-3650" y2="2187.5" stroke="#e0e0e0" stroke-width="1"/><line x1="-3600" y1="-2212.5" x2="-3600" y2="2187.5" stroke="#e0e0e0" stroke-width="1"/><line x1="-3550" y1="-2212.5" x2="-3550" y2="2187.5" stroke="#e0e0e0" stroke-width="1"/><line x1="-3500" y1="-2212.5" x2="-3500" y2="2187.5" stroke="#e0e0e0" stroke-width="1"/><line x1="-3450" y1="-2212.5" x2="-3450" y2="2187.5" stroke="#e0e0e0" stroke-width="1"/><line x1="-3400" y1="-2212.5" x2="-3400" y2="2187.5" stroke="#e0e0e0" stroke-width="1"/><line x1="-3350" y1="-2212.5" x2="-3350" y2="2187.5" stroke="#e0e0e0" stroke-width="1"/><line x1="-3300" y1="-2212.5" x2="-3300" y2="2187.5" stroke="#e0e0e0" stroke-width="1"/><line x1="-3250" y1="-2212.5" x2="-3250" y2="2187.5" stroke="#e0e0e0" stroke-width="1"/><line x1="-3200" y1="-2212.5" x2="-3200" y2="2187.5" stroke="#e0e0e0" stroke-width="1"/><line x1="-3150" y1="-2212.5" x2="-3150" y2="2187.5" stroke="#e0e0e0" stroke-width="1"/><line x1="-3100" y1="-2212.5" x2="-3100" y2="2187.5" stroke="#e0e0e0" stroke-width="1"/><line x1="-3050" y1="-2212.5" x2="-3050" y2="2187.5" stroke="#e0e0e0" stroke-width="1"/><line x1="-3000" y1="-2212.5" x2="-3000" y2="2187.5" stroke="#e0e0e0" stroke-width="1"/><line x1="-2950" y1="-2212.5" x2="-2950" y2="2187.5" stroke="#e0e0e0" stroke-width="1"/><line x1="-2900" y1="-2212.5" x2="-2900" y2="2187.5" stroke="#e0e0e0" stroke-width="1"/><line x1="-2850" y1="-2212.5" x2="-2850" y2="2187.5" stroke="#e0e0e0" stroke-width="1"/><line x1="-2800" y1="-2212.5" x2="-2800" y2="2187.5" stroke="#e0e0e0" stroke-width="1"/><line x1="-2750" y1="-2212.5" x2="-2750" y2="2187.5" stroke="#e0e0e0" stroke-width="1"/><line x1="-2700" y1="-2212.5" x2="-2700" y2="2187.5" stroke="#e0e0e0" stroke-width="1"/><line x1="-2650" y1="-2212.5" x2="-2650" y2="2187.5" stroke="#e0e0e0" stroke-width="1"/><line x1="-2600" y1="-2212.5" x2="-2600" y2="2187.5" stroke="#e0e0e0" stroke-width="1"/><line x1="-2550" y1="-2212.5" x2="-2550" y2="2187.5" stroke="#e0e0e0" stroke-width="1"/><line x1="-2500" y1="-2212.5" x2="-2500" y2="2187.5" stroke="#e0e0e0" stroke-width="1"/><line x1="-2450" y1="-2212.5" x2="-2450" y2="2187.5" stroke="#e0e0e0" stroke-width="1"/><line x1="-2400" y1="-2212.5" x2="-2400" y2="2187.5" stroke="#e0e0e0" stroke-width="1"/><line x1="-2350" y1="-2212.5" x2="-2350" y2="2187.5" stroke="#e0e0e0" stroke-width="1"/><line x1="-2300" y1="-2212.5" x2="-2300" y2="2187.5" stroke="#e0e0e0" stroke-width="1"/><line x1="-2250" y1="-2212.5" x2="-2250" y2="2187.5" stroke="#e0e0e0" stroke-width="1"/><line x1="-2200" y1="-2212.5" x2="-2200" y2="2187.5" stroke="#e0e0e0" stroke-width="1"/><line x1="-2150" y1="-2212.5" x2="-2150" y2="2187.5" stroke="#e0e0e0" stroke-width="1"/><line x1="-2100" y1="-2212.5" x2="-2100" y2="2187.5" stroke="#e0e0e0" stroke-width="1"/><line x1="-2050" y1="-2212.5" x2="-2050" y2="2187.5" stroke="#e0e0e0" stroke-width="1"/><line x1="-2000" y1="-2212.5" x2="-2000" y2="2187.5" stroke="#e0e0e0" stroke-width="1"/><line x1="-1950" y1="-2212.5" x2="-1950" y2="2187.5" stroke="#e0e0e0" stroke-width="1"/><line x1="-1900" y1="-2212.5" x2="-1900" y2="2187.5" stroke="#e0e0e0" stroke-width="1"/><line x1="-1850" y1="-2212.5" x2="-1850" y2="2187.5" stroke="#e0e0e0" stroke-width="1"/><line x1="-1800" y1="-2212.5" x2="-1800" y2="2187.5" stroke="#e0e0e0" stroke-width="1"/><line x1="-1750" y1="-2212.5" x2="-1750" y2="2187.5" stroke="#e0e0e0" stroke-width="1"/><line x1="-1700" y1="-2212.5" x2="-1700" y2="2187.5" stroke="#e0e0e0" stroke-width="1"/><line x1="-1650" y1="-2212.5" x2="-1650" y2="2187.5" stroke="#e0e0e0" stroke-width="1"/><line x1="-1600" y1="-2212.5" x2="-1600" y2="2187.5" stroke="#e0e0e0" stroke-width="1"/><line x1="-1550" y1="-2212.5" x2="-1550" y2="2187.5" stroke="#e0e0e0" stroke-width="1"/><line x1="-1500" y1="-2212.5" x2="-1500" y2="2187.5" stroke="#e0e0e0" stroke-width="1"/><line x1="-1450" y1="-2212.5" x2="-1450" y2="2187.5" stroke="#e0e0e0" stroke-width="1"/><line x1="-1400" y1="-2212.5" x2="-1400" y2="2187.5" stroke="#e0e0e0" stroke-width="1"/><line x1="-1350" y1="-2212.5" x2="-1350" y2="2187.5" stroke="#e0e0e0" stroke-width="1"/><line x1="-1300" y1="-2212.5" x2="-1300" y2="2187.5" stroke="#e0e0e0" stroke-width="1"/><line x1="-1250" y1="-2212.5" x2="-1250" y2="2187.5" stroke="#e0e0e0" stroke-width="1"/><line x1="-1200" y1="-2212.5" x2="-1200" y2="2187.5" stroke="#e0e0e0" stroke-width="1"/><line x1="-1150" y1="-2212.5" x2="-1150" y2="2187.5" stroke="#e0e0e0" stroke-width="1"/><line x1="-1100" y1="-2212.5" x2="-1100" y2="2187.5" stroke="#e0e0e0" stroke-width="1"/><line x1="-1050" y1="-2212.5" x2="-1050" y2="2187.5" stroke="#e0e0e0" stroke-width="1"/><line x1="-1000" y1="-2212.5" x2="-1000" y2="2187.5" stroke="#e0e0e0" stroke-width="1"/><line x1="-950" y1="-2212.5" x2="-950" y2="2187.5" stroke="#e0e0e0" stroke-width="1"/><line x1="-900" y1="-2212.5" x2="-900" y2="2187.5" stroke="#e0e0e0" stroke-width="1"/><line x1="-850" y1="-2212.5" x2="-850" y2="2187.5" stroke="#e0e0e0" stroke-width="1"/><line x1="-800" y1="-2212.5" x2="-800" y2="2187.5" stroke="#e0e0e0" stroke-width="1"/><line x1="-750" y1="-2212.5" x2="-750" y2="2187.5" stroke="#e0e0e0" stroke-width="1"/><line x1="-700" y1="-2212.5" x2="-700" y2="2187.5" stroke="#e0e0e0" stroke-width="1"/><line x1="-650" y1="-2212.5" x2="-650" y2="2187.5" stroke="#e0e0e0" stroke-width="1"/><line x1="-600" y1="-2212.5" x2="-600" y2="2187.5" stroke="#e0e0e0" stroke-width="1"/><line x1="-550" y1="-2212.5" x2="-550" y2="2187.5" stroke="#e0e0e0" stroke-width="1"/><line x1="-500" y1="-2212.5" x2="-500" y2="2187.5" stroke="#e0e0e0" stroke-width="1"/><line x1="-450" y1="-2212.5" x2="-450" y2="2187.5" stroke="#e0e0e0" stroke-width="1"/><line x1="-400" y1="-2212.5" x2="-400" y2="2187.5" stroke="#e0e0e0" stroke-width="1"/><line x1="-350" y1="-2212.5" x2="-350" y2="2187.5" stroke="#e0e0e0" stroke-width="1"/><line x1="-300" y1="-2212.5" x2="-300" y2="2187.5" stroke="#e0e0e0" stroke-width="1"/><line x1="-250" y1="-2212.5" x2="-250" y2="2187.5" stroke="#e0e0e0" stroke-width="1"/><line x1="-200" y1="-2212.5" x2="-200" y2="2187.5" stroke="#e0e0e0" stroke-width="1"/><line x1="-150" y1="-2212.5" x2="-150" y2="2187.5" stroke="#e0e0e0" stroke-width="1"/><line x1="-100" y1="-2212.5" x2="-100" y2="2187.5" stroke="#e0e0e0" stroke-width="1"/><line x1="-50" y1="-2212.5" x2="-50" y2="2187.5" stroke="#e0e0e0" stroke-width="1"/><line x1="0" y1="-2212.5" x2="0" y2="2187.5" stroke="#e0e0e0" stroke-width="1"/><line x1="50" y1="-2212.5" x2="50" y2="2187.5" stroke="#e0e0e0" stroke-width="1"/><line x1="100" y1="-2212.5" x2="100" y2="2187.5" stroke="#e0e0e0" stroke-width="1"/><line x1="150" y1="-2212.5" x2="150" y2="2187.5" stroke="#e0e0e0" stroke-width="1"/><line x1="200" y1="-2212.5" x2="200" y2="2187.5" stroke="#e0e0e0" stroke-width="1"/><line x1="250" y1="-2212.5" x2="250" y2="2187.5" stroke="#e0e0e0" stroke-width="1"/><line x1="300" y1="-2212.5" x2="300" y2="2187.5" stroke="#e0e0e0" stroke-width="1"/><line x1="350" y1="-2212.5" x2="350" y2="2187.5" stroke="#e0e0e0" stroke-width="1"/><line x1="400" y1="-2212.5" x2="400" y2="2187.5" stroke="#e0e0e0" stroke-width="1"/><line x1="450" y1="-2212.5" x2="450" y2="2187.5" stroke="#e0e0e0" stroke-width="1"/><line x1="500" y1="-2212.5" x2="500" y2="2187.5" stroke="#e0e0e0" stroke-width="1"/><line x1="550" y1="-2212.5" x2="550" y2="2187.5" stroke="#e0e0e0" stroke-width="1"/><line x1="600" y1="-2212.5" x2="600" y2="2187.5" stroke="#e0e0e0" stroke-width="1"/><line x1="650" y1="-2212.5" x2="650" y2="2187.5" stroke="#e0e0e0" stroke-width="1"/><line x1="700" y1="-2212.5" x2="700" y2="2187.5" stroke="#e0e0e0" stroke-width="1"/><line x1="750" y1="-2212.5" x2="750" y2="2187.5" stroke="#e0e0e0" stroke-width="1"/><line x1="800" y1="-2212.5" x2="800" y2="2187.5" stroke="#e0e0e0" stroke-width="1"/><line x1="850" y1="-2212.5" x2="850" y2="2187.5" stroke="#e0e0e0" stroke-width="1"/><line x1="900" y1="-2212.5" x2="900" y2="2187.5" stroke="#e0e0e0" stroke-width="1"/><line x1="950" y1="-2212.5" x2="950" y2="2187.5" stroke="#e0e0e0" stroke-width="1"/><line x1="1000" y1="-2212.5" x2="1000" y2="2187.5" stroke="#e0e0e0" stroke-width="1"/><line x1="1050" y1="-2212.5" x2="1050" y2="2187.5" stroke="#e0e0e0" stroke-width="1"/><line x1="1100" y1="-2212.5" x2="1100" y2="2187.5" stroke="#e0e0e0" stroke-width="1"/><line x1="1150" y1="-2212.5" x2="1150" y2="2187.5" stroke="#e0e0e0" stroke-width="1"/><line x1="1200" y1="-2212.5" x2="1200" y2="2187.5" stroke="#e0e0e0" stroke-width="1"/><line x1="1250" y1="-2212.5" x2="1250" y2="2187.5" stroke="#e0e0e0" stroke-width="1"/><line x1="1300" y1="-2212.5" x2="1300" y2="2187.5" stroke="#e0e0e0" stroke-width="1"/><line x1="1350" y1="-2212.5" x2="1350" y2="2187.5" stroke="#e0e0e0" stroke-width="1"/><line x1="1400" y1="-2212.5" x2="1400" y2="2187.5" stroke="#e0e0e0" stroke-width="1"/><line x1="1450" y1="-2212.5" x2="1450" y2="2187.5" stroke="#e0e0e0" stroke-width="1"/><line x1="1500" y1="-2212.5" x2="1500" y2="2187.5" stroke="#e0e0e0" stroke-width="1"/><line x1="1550" y1="-2212.5" x2="1550" y2="2187.5" stroke="#e0e0e0" stroke-width="1"/><line x1="1600" y1="-2212.5" x2="1600" y2="2187.5" stroke="#e0e0e0" stroke-width="1"/><line x1="1650" y1="-2212.5" x2="1650" y2="2187.5" stroke="#e0e0e0" stroke-width="1"/><line x1="1700" y1="-2212.5" x2="1700" y2="2187.5" stroke="#e0e0e0" stroke-width="1"/><line x1="1750" y1="-2212.5" x2="1750" y2="2187.5" stroke="#e0e0e0" stroke-width="1"/><line x1="1800" y1="-2212.5" x2="1800" y2="2187.5" stroke="#e0e0e0" stroke-width="1"/><line x1="1850" y1="-2212.5" x2="1850" y2="2187.5" stroke="#e0e0e0" stroke-width="1"/><line x1="1900" y1="-2212.5" x2="1900" y2="2187.5" stroke="#e0e0e0" stroke-width="1"/><line x1="1950" y1="-2212.5" x2="1950" y2="2187.5" stroke="#e0e0e0" stroke-width="1"/><line x1="2000" y1="-2212.5" x2="2000" y2="2187.5" stroke="#e0e0e0" stroke-width="1"/><line x1="2050" y1="-2212.5" x2="2050" y2="2187.5" stroke="#e0e0e0" stroke-width="1"/><line x1="2100" y1="-2212.5" x2="2100" y2="2187.5" stroke="#e0e0e0" stroke-width="1"/><line x1="2150" y1="-2212.5" x2="2150" y2="2187.5" stroke="#e0e0e0" stroke-width="1"/><line x1="2200" y1="-2212.5" x2="2200" y2="2187.5" stroke="#e0e0e0" stroke-width="1"/><line x1="2250" y1="-2212.5" x2="2250" y2="2187.5" stroke="#e0e0e0" stroke-width="1"/><line x1="2300" y1="-2212.5" x2="2300" y2="2187.5" stroke="#e0e0e0" stroke-width="1"/><line x1="2350" y1="-2212.5" x2="2350" y2="2187.5" stroke="#e0e0e0" stroke-width="1"/><line x1="2400" y1="-2212.5" x2="2400" y2="2187.5" stroke="#e0e0e0" stroke-width="1"/><line x1="2450" y1="-2212.5" x2="2450" y2="2187.5" stroke="#e0e0e0" stroke-width="1"/><line x1="2500" y1="-2212.5" x2="2500" y2="2187.5" stroke="#e0e0e0" stroke-width="1"/><line x1="2550" y1="-2212.5" x2="2550" y2="2187.5" stroke="#e0e0e0" stroke-width="1"/><line x1="2600" y1="-2212.5" x2="2600" y2="2187.5" stroke="#e0e0e0" stroke-width="1"/><line x1="2650" y1="-2212.5" x2="2650" y2="2187.5" stroke="#e0e0e0" stroke-width="1"/><line x1="2700" y1="-2212.5" x2="2700" y2="2187.5" stroke="#e0e0e0" stroke-width="1"/><line x1="2750" y1="-2212.5" x2="2750" y2="2187.5" stroke="#e0e0e0" stroke-width="1"/><line x1="2800" y1="-2212.5" x2="2800" y2="2187.5" stroke="#e0e0e0" stroke-width="1"/><line x1="2850" y1="-2212.5" x2="2850" y2="2187.5" stroke="#e0e0e0" stroke-width="1"/><line x1="2900" y1="-2212.5" x2="2900" y2="2187.5" stroke="#e0e0e0" stroke-width="1"/><line x1="2950" y1="-2212.5" x2="2950" y2="2187.5" stroke="#e0e0e0" stroke-width="1"/><line x1="3000" y1="-2212.5" x2="3000" y2="2187.5" stroke="#e0e0e0" stroke-width="1"/><line x1="3050" y1="-2212.5" x2="3050" y2="2187.5" stroke="#e0e0e0" stroke-width="1"/><line x1="3100" y1="-2212.5" x2="3100" y2="2187.5" stroke="#e0e0e0" stroke-width="1"/><line x1="3150" y1="-2212.5" x2="3150" y2="2187.5" stroke="#e0e0e0" stroke-width="1"/><line x1="3200" y1="-2212.5" x2="3200" y2="2187.5" stroke="#e0e0e0" stroke-width="1"/><line x1="3250" y1="-2212.5" x2="3250" y2="2187.5" stroke="#e0e0e0" stroke-width="1"/><line x1="3300" y1="-2212.5" x2="3300" y2="2187.5" stroke="#e0e0e0" stroke-width="1"/><line x1="3350" y1="-2212.5" x2="3350" y2="2187.5" stroke="#e0e0e0" stroke-width="1"/><line x1="3400" y1="-2212.5" x2="3400" y2="2187.5" stroke="#e0e0e0" stroke-width="1"/><line x1="3450" y1="-2212.5" x2="3450" y2="2187.5" stroke="#e0e0e0" stroke-width="1"/><line x1="3500" y1="-2212.5" x2="3500" y2="2187.5" stroke="#e0e0e0" stroke-width="1"/><line x1="3550" y1="-2212.5" x2="3550" y2="2187.5" stroke="#e0e0e0" stroke-width="1"/><line x1="3600" y1="-2212.5" x2="3600" y2="2187.5" stroke="#e0e0e0" stroke-width="1"/><line x1="3650" y1="-2212.5" x2="3650" y2="2187.5" stroke="#e0e0e0" stroke-width="1"/><line x1="3700" y1="-2212.5" x2="3700" y2="2187.5" stroke="#e0e0e0" stroke-width="1"/><line x1="3750" y1="-2212.5" x2="3750" y2="2187.5" stroke="#e0e0e0" stroke-width="1"/><line x1="3800" y1="-2212.5" x2="3800" y2="2187.5" stroke="#e0e0e0" stroke-width="1"/><line x1="3850" y1="-2212.5" x2="3850" y2="2187.5" stroke="#e0e0e0" stroke-width="1"/><line x1="3900" y1="-2212.5" x2="3900" y2="2187.5" stroke="#e0e0e0" stroke-width="1"/><line x1="3950" y1="-2212.5" x2="3950" y2="2187.5" stroke="#e0e0e0" stroke-width="1"/><line x1="4000" y1="-2212.5" x2="4000" y2="2187.5" stroke="#e0e0e0" stroke-width="1"/><line x1="4050" y1="-2212.5" x2="4050" y2="2187.5" stroke="#e0e0e0" stroke-width="1"/><line x1="4100" y1="-2212.5" x2="4100" y2="2187.5" stroke="#e0e0e0" stroke-width="1"/><line x1="4150" y1="-2212.5" x2="4150" y2="2187.5" stroke="#e0e0e0" stroke-width="1"/><line x1="4200" y1="-2212.5" x2="4200" y2="2187.5" stroke="#e0e0e0" stroke-width="1"/><line x1="4250" y1="-2212.5" x2="4250" y2="2187.5" stroke="#e0e0e0" stroke-width="1"/><line x1="4300" y1="-2212.5" x2="4300" y2="2187.5" stroke="#e0e0e0" stroke-width="1"/><line x1="4350" y1="-2212.5" x2="4350" y2="2187.5" stroke="#e0e0e0" stroke-width="1"/><line x1="4400" y1="-2212.5" x2="4400" y2="2187.5" stroke="#e0e0e0" stroke-width="1"/><line x1="4450" y1="-2212.5" x2="4450" y2="2187.5" stroke="#e0e0e0" stroke-width="1"/><line x1="4500" y1="-2212.5" x2="4500" y2="2187.5" stroke="#e0e0e0" stroke-width="1"/><line x1="4550" y1="-2212.5" x2="4550" y2="2187.5" stroke="#e0e0e0" stroke-width="1"/><line x1="4600" y1="-2212.5" x2="4600" y2="2187.5" stroke="#e0e0e0" stroke-width="1"/><line x1="4650" y1="-2212.5" x2="4650" y2="2187.5" stroke="#e0e0e0" stroke-width="1"/><line x1="4700" y1="-2212.5" x2="4700" y2="2187.5" stroke="#e0e0e0" stroke-width="1"/><line x1="4750" y1="-2212.5" x2="4750" y2="2187.5" stroke="#e0e0e0" stroke-width="1"/><line x1="4800" y1="-2212.5" x2="4800" y2="2187.5" stroke="#e0e0e0" stroke-width="1"/><line x1="4850" y1="-2212.5" x2="4850" y2="2187.5" stroke="#e0e0e0" stroke-width="1"/><line x1="4900" y1="-2212.5" x2="4900" y2="2187.5" stroke="#e0e0e0" stroke-width="1"/><line x1="4950" y1="-2212.5" x2="4950" y2="2187.5" stroke="#e0e0e0" stroke-width="1"/><line x1="5000" y1="-2212.5" x2="5000" y2="2187.5" stroke="#e0e0e0" stroke-width="1"/><line x1="5050" y1="-2212.5" x2="5050" y2="2187.5" stroke="#e0e0e0" stroke-width="1"/><line x1="5100" y1="-2212.5" x2="5100" y2="2187.5" stroke="#e0e0e0" stroke-width="1"/><line x1="-4825" y1="-2250" x2="5075" y2="-2250" stroke="#e0e0e0" stroke-width="1"/><line x1="-4825" y1="-2200" x2="5075" y2="-2200" stroke="#e0e0e0" stroke-width="1"/><line x1="-4825" y1="-2150" x2="5075" y2="-2150" stroke="#e0e0e0" stroke-width="1"/><line x1="-4825" y1="-2100" x2="5075" y2="-2100" stroke="#e0e0e0" stroke-width="1"/><line x1="-4825" y1="-2050" x2="5075" y2="-2050" stroke="#e0e0e0" stroke-width="1"/><line x1="-4825" y1="-2000" x2="5075" y2="-2000" stroke="#e0e0e0" stroke-width="1"/><line x1="-4825" y1="-1950" x2="5075" y2="-1950" stroke="#e0e0e0" stroke-width="1"/><line x1="-4825" y1="-1900" x2="5075" y2="-1900" stroke="#e0e0e0" stroke-width="1"/><line x1="-4825" y1="-1850" x2="5075" y2="-1850" stroke="#e0e0e0" stroke-width="1"/><line x1="-4825" y1="-1800" x2="5075" y2="-1800" stroke="#e0e0e0" stroke-width="1"/><line x1="-4825" y1="-1750" x2="5075" y2="-1750" stroke="#e0e0e0" stroke-width="1"/><line x1="-4825" y1="-1700" x2="5075" y2="-1700" stroke="#e0e0e0" stroke-width="1"/><line x1="-4825" y1="-1650" x2="5075" y2="-1650" stroke="#e0e0e0" stroke-width="1"/><line x1="-4825" y1="-1600" x2="5075" y2="-1600" stroke="#e0e0e0" stroke-width="1"/><line x1="-4825" y1="-1550" x2="5075" y2="-1550" stroke="#e0e0e0" stroke-width="1"/><line x1="-4825" y1="-1500" x2="5075" y2="-1500" stroke="#e0e0e0" stroke-width="1"/><line x1="-4825" y1="-1450" x2="5075" y2="-1450" stroke="#e0e0e0" stroke-width="1"/><line x1="-4825" y1="-1400" x2="5075" y2="-1400" stroke="#e0e0e0" stroke-width="1"/><line x1="-4825" y1="-1350" x2="5075" y2="-1350" stroke="#e0e0e0" stroke-width="1"/><line x1="-4825" y1="-1300" x2="5075" y2="-1300" stroke="#e0e0e0" stroke-width="1"/><line x1="-4825" y1="-1250" x2="5075" y2="-1250" stroke="#e0e0e0" stroke-width="1"/><line x1="-4825" y1="-1200" x2="5075" y2="-1200" stroke="#e0e0e0" stroke-width="1"/><line x1="-4825" y1="-1150" x2="5075" y2="-1150" stroke="#e0e0e0" stroke-width="1"/><line x1="-4825" y1="-1100" x2="5075" y2="-1100" stroke="#e0e0e0" stroke-width="1"/><line x1="-4825" y1="-1050" x2="5075" y2="-1050" stroke="#e0e0e0" stroke-width="1"/><line x1="-4825" y1="-1000" x2="5075" y2="-1000" stroke="#e0e0e0" stroke-width="1"/><line x1="-4825" y1="-950" x2="5075" y2="-950" stroke="#e0e0e0" stroke-width="1"/><line x1="-4825" y1="-900" x2="5075" y2="-900" stroke="#e0e0e0" stroke-width="1"/><line x1="-4825" y1="-850" x2="5075" y2="-850" stroke="#e0e0e0" stroke-width="1"/><line x1="-4825" y1="-800" x2="5075" y2="-800" stroke="#e0e0e0" stroke-width="1"/><line x1="-4825" y1="-750" x2="5075" y2="-750" stroke="#e0e0e0" stroke-width="1"/><line x1="-4825" y1="-700" x2="5075" y2="-700" stroke="#e0e0e0" stroke-width="1"/><line x1="-4825" y1="-650" x2="5075" y2="-650" stroke="#e0e0e0" stroke-width="1"/><line x1="-4825" y1="-600" x2="5075" y2="-600" stroke="#e0e0e0" stroke-width="1"/><line x1="-4825" y1="-550" x2="5075" y2="-550" stroke="#e0e0e0" stroke-width="1"/><line x1="-4825" y1="-500" x2="5075" y2="-500" stroke="#e0e0e0" stroke-width="1"/><line x1="-4825" y1="-450" x2="5075" y2="-450" stroke="#e0e0e0" stroke-width="1"/><line x1="-4825" y1="-400" x2="5075" y2="-400" stroke="#e0e0e0" stroke-width="1"/><line x1="-4825" y1="-350" x2="5075" y2="-350" stroke="#e0e0e0" stroke-width="1"/><line x1="-4825" y1="-300" x2="5075" y2="-300" stroke="#e0e0e0" stroke-width="1"/><line x1="-4825" y1="-250" x2="5075" y2="-250" stroke="#e0e0e0" stroke-width="1"/><line x1="-4825" y1="-200" x2="5075" y2="-200" stroke="#e0e0e0" stroke-width="1"/><line x1="-4825" y1="-150" x2="5075" y2="-150" stroke="#e0e0e0" stroke-width="1"/><line x1="-4825" y1="-100" x2="5075" y2="-100" stroke="#e0e0e0" stroke-width="1"/><line x1="-4825" y1="-50" x2="5075" y2="-50" stroke="#e0e0e0" stroke-width="1"/><line x1="-4825" y1="0" x2="5075" y2="0" stroke="#e0e0e0" stroke-width="1"/><line x1="-4825" y1="50" x2="5075" y2="50" stroke="#e0e0e0" stroke-width="1"/><line x1="-4825" y1="100" x2="5075" y2="100" stroke="#e0e0e0" stroke-width="1"/><line x1="-4825" y1="150" x2="5075" y2="150" stroke="#e0e0e0" stroke-width="1"/><line x1="-4825" y1="200" x2="5075" y2="200" stroke="#e0e0e0" stroke-width="1"/><line x1="-4825" y1="250" x2="5075" y2="250" stroke="#e0e0e0" stroke-width="1"/><line x1="-4825" y1="300" x2="5075" y2="300" stroke="#e0e0e0" stroke-width="1"/><line x1="-4825" y1="350" x2="5075" y2="350" stroke="#e0e0e0" stroke-width="1"/><line x1="-4825" y1="400" x2="5075" y2="400" stroke="#e0e0e0" stroke-width="1"/><line x1="-4825" y1="450" x2="5075" y2="450" stroke="#e0e0e0" stroke-width="1"/><line x1="-4825" y1="500" x2="5075" y2="500" stroke="#e0e0e0" stroke-width="1"/><line x1="-4825" y1="550" x2="5075" y2="550" stroke="#e0e0e0" stroke-width="1"/><line x1="-4825" y1="600" x2="5075" y2="600" stroke="#e0e0e0" stroke-width="1"/><line x1="-4825" y1="650" x2="5075" y2="650" stroke="#e0e0e0" stroke-width="1"/><line x1="-4825" y1="700" x2="5075" y2="700" stroke="#e0e0e0" stroke-width="1"/><line x1="-4825" y1="750" x2="5075" y2="750" stroke="#e0e0e0" stroke-width="1"/><line x1="-4825" y1="800" x2="5075" y2="800" stroke="#e0e0e0" stroke-width="1"/><line x1="-4825" y1="850" x2="5075" y2="850" stroke="#e0e0e0" stroke-width="1"/><line x1="-4825" y1="900" x2="5075" y2="900" stroke="#e0e0e0" stroke-width="1"/><line x1="-4825" y1="950" x2="5075" y2="950" stroke="#e0e0e0" stroke-width="1"/><line x1="-4825" y1="1000" x2="5075" y2="1000" stroke="#e0e0e0" stroke-width="1"/><line x1="-4825" y1="1050" x2="5075" y2="1050" stroke="#e0e0e0" stroke-width="1"/><line x1="-4825" y1="1100" x2="5075" y2="1100" stroke="#e0e0e0" stroke-width="1"/><line x1="-4825" y1="1150" x2="5075" y2="1150" stroke="#e0e0e0" stroke-width="1"/><line x1="-4825" y1="1200" x2="5075" y2="1200" stroke="#e0e0e0" stroke-width="1"/><line x1="-4825" y1="1250" x2="5075" y2="1250" stroke="#e0e0e0" stroke-width="1"/><line x1="-4825" y1="1300" x2="5075" y2="1300" stroke="#e0e0e0" stroke-width="1"/><line x1="-4825" y1="1350" x2="5075" y2="1350" stroke="#e0e0e0" stroke-width="1"/><line x1="-4825" y1="1400" x2="5075" y2="1400" stroke="#e0e0e0" stroke-width="1"/><line x1="-4825" y1="1450" x2="5075" y2="1450" stroke="#e0e0e0" stroke-width="1"/><line x1="-4825" y1="1500" x2="5075" y2="1500" stroke="#e0e0e0" stroke-width="1"/><line x1="-4825" y1="1550" x2="5075" y2="1550" stroke="#e0e0e0" stroke-width="1"/><line x1="-4825" y1="1600" x2="5075" y2="1600" stroke="#e0e0e0" stroke-width="1"/><line x1="-4825" y1="1650" x2="5075" y2="1650" stroke="#e0e0e0" stroke-width="1"/><line x1="-4825" y1="1700" x2="5075" y2="1700" stroke="#e0e0e0" stroke-width="1"/><line x1="-4825" y1="1750" x2="5075" y2="1750" stroke="#e0e0e0" stroke-width="1"/><line x1="-4825" y1="1800" x2="5075" y2="1800" stroke="#e0e0e0" stroke-width="1"/><line x1="-4825" y1="1850" x2="5075" y2="1850" stroke="#e0e0e0" stroke-width="1"/><line x1="-4825" y1="1900" x2="5075" y2="1900" stroke="#e0e0e0" stroke-width="1"/><line x1="-4825" y1="1950" x2="5075" y2="1950" stroke="#e0e0e0" stroke-width="1"/><line x1="-4825" y1="2000" x2="5075" y2="2000" stroke="#e0e0e0" stroke-width="1"/><line x1="-4825" y1="2050" x2="5075" y2="2050" stroke="#e0e0e0" stroke-width="1"/><line x1="-4825" y1="2100" x2="5075" y2="2100" stroke="#e0e0e0" stroke-width="1"/><line x1="-4825" y1="2150" x2="5075" y2="2150" stroke="#e0e0e0" stroke-width="1"/><line x1="-4825" y1="2200" x2="5075" y2="2200" stroke="#e0e0e0" stroke-width="1"/></g>
            <g id="center-trace-lines"><line x1="35" y1="0" x2="175" y2="0" stroke="black" stroke-width="1" stroke-dasharray="5,5" pointer-events="none"/><line x1="175" y1="0" x2="210" y2="0" stroke="black" stroke-width="1" stroke-dasharray="5,5" pointer-events="none"/><line x1="210" y1="0" x2="227.5" y2="0" stroke="black" stroke-width="1" stroke-dasharray="5,5" pointer-events="none"/><line x1="227.5" y1="0" x2="245" y2="0" stroke="black" stroke-width="1" stroke-dasharray="5,5" pointer-events="none"/><line x1="245" y1="0" x2="350" y2="0" stroke="black" stroke-width="1" stroke-dasharray="5,5" pointer-events="none"/><line x1="245" y1="0" x2="350" y2="-17.5" stroke="black" stroke-width="1" stroke-dasharray="5,5" pointer-events="none"/><line x1="245" y1="0" x2="350" y2="-35" stroke="black" stroke-width="1" stroke-dasharray="5,5" pointer-events="none"/><line x1="35" y1="0" x2="-100" y2="0" stroke="black" stroke-width="1" stroke-dasharray="5,5" pointer-events="none"/><line x1="35" y1="0" x2="-75" y2="0" stroke="black" stroke-width="1" stroke-dasharray="5,5" pointer-events="none"/><line x1="35" y1="0" x2="-50" y2="0" stroke="black" stroke-width="1" stroke-dasharray="5,5" pointer-events="none"/></g><g id="aperture-rays"><polygon points="35,-15 175,-15 175,15 35,15" fill="#fff700" fill-opacity="0.2" stroke="none" pointer-events="none"/><line x1="35" y1="-15" x2="175" y2="-15" stroke="black" stroke-width="1" stroke-dasharray="3,3" pointer-events="none"/><line x1="35" y1="15" x2="175" y2="15" stroke="black" stroke-width="1" stroke-dasharray="3,3" pointer-events="none"/><polygon points="175,-15 210,-23.9 210,23.9 175,15" fill="url(#gradient-2-0)" fill-opacity="1" stroke="none" pointer-events="none"/><line x1="175" y1="-15" x2="210" y2="-23.9" stroke="black" stroke-width="1" stroke-dasharray="3,3" pointer-events="none"/><line x1="175" y1="15" x2="210" y2="23.9" stroke="black" stroke-width="1" stroke-dasharray="3,3" pointer-events="none"/><polygon points="210,-23.9 227.5,-14.2 227.5,14.2 210,23.9" fill="url(#gradient-3-0)" fill-opacity="1" stroke="none" pointer-events="none"/><line x1="210" y1="-23.9" x2="227.5" y2="-14.2" stroke="black" stroke-width="1" stroke-dasharray="3,3" pointer-events="none"/><line x1="210" y1="23.9" x2="227.5" y2="14.2" stroke="black" stroke-width="1" stroke-dasharray="3,3" pointer-events="none"/><polygon points="227.5,-14.2 245,-19.5 245,19.5 227.5,14.2" fill="url(#gradient-4-0)" fill-opacity="1" stroke="none" pointer-events="none"/><line x1="227.5" y1="-14.2" x2="245" y2="-19.5" stroke="black" stroke-width="1" stroke-dasharray="3,3" pointer-events="none"/><line x1="227.5" y1="14.2" x2="245" y2="19.5" stroke="black" stroke-width="1" stroke-dasharray="3,3" pointer-events="none"/><polygon points="245,-19.5 350,0 350,0 245,19.5" fill="#00ff97" fill-opacity="0.2" stroke="none" pointer-events="none"/><line x1="245" y1="-19.5" x2="350" y2="0" stroke="black" stroke-width="1" stroke-dasharray="3,3" pointer-events="none"/><line x1="245" y1="19.5" x2="350" y2="0" stroke="black" stroke-width="1" stroke-dasharray="3,3" pointer-events="none"/><polygon points="245,-19.5 350,-17.5 350,-17.5 245,19.5" fill="#c3ff00" fill-opacity="0.2" stroke="none" pointer-events="none"/><line x1="245" y1="-19.5" x2="350" y2="-17.5" stroke="black" stroke-width="1" stroke-dasharray="3,3" pointer-events="none"/><line x1="245" y1="19.5" x2="350" y2="-17.5" stroke="black" stroke-width="1" stroke-dasharray="3,3" pointer-events="none"/><polygon points="245,-19.5 350,-35 350,-35 245,19.5" fill="#ff0000" fill-opacity="0.2" stroke="none" pointer-events="none"/><line x1="245" y1="-19.5" x2="350" y2="-35" stroke="black" stroke-width="1" stroke-dasharray="3,3" pointer-events="none"/><line x1="245" y1="19.5" x2="350" y2="-35" stroke="black" stroke-width="1" stroke-dasharray="3,3" pointer-events="none"/><polygon points="35,-15 -100,0 -100,0 35,15" fill="#00ffff" fill-opacity="0.2" stroke="none" pointer-events="none"/><line x1="35" y1="-15" x2="-100" y2="0" stroke="black" stroke-width="1" stroke-dasharray="3,3" pointer-events="none"/><line x1="35" y1="15" x2="-100" y2="0" stroke="black" stroke-width="1" stroke-dasharray="3,3" pointer-events="none"/><polygon points="35,-15 -75,0 -75,0 35,15" fill="#00ff97" fill-opacity="0.2" stroke="none" pointer-events="none"/><line x1="35" y1="-15" x2="-75" y2="0" stroke="black" stroke-width="1" stroke-dasharray="3,3" pointer-events="none"/><line x1="35" y1="15" x2="-75" y2="0" stroke="black" stroke-width="1" stroke-dasharray="3,3" pointer-events="none"/><polygon points="35,-15 -50,0 -50,0 35,15" fill="#ff0000" fill-opacity="0.2" stroke="none" pointer-events="none"/><line x1="35" y1="-15" x2="-50" y2="0" stroke="black" stroke-width="1" stroke-dasharray="3,3" pointer-events="none"/><line x1="35" y1="15" x2="-50" y2="0" stroke="black" stroke-width="1" stroke-dasharray="3,3" pointer-events="none"/></g><g id="components"><g class="component" data-id="0" data-type="objective" transform="translate(35,0) rotate(0 0 0)"><rect class="component-hit-area" x="-64.5" y="-30" width="129" height="60" visibility="hidden"/><path d="M -46.5 -30 L -48.5 -30 L -64.5 -15 L -64.5 15 L -48.5 30 L -46.5 30 Z" fill="#d9d9d9" stroke="black" stroke-width="1.5" pointer-events="none" style="opacity: 1;"/><rect x="-48.5" y="-30" width="10" height="60" fill="#5a5a5a" stroke="black" stroke-width="1.5" pointer-events="none" style="opacity: 1;"/><rect x="-38.5" y="-30" width="5" height="60" fill="green" stroke="black" stroke-width="1" pointer-events="none" style="opacity: 1;"/><rect x="-33.5" y="-30" width="90" height="60" fill="#888888" stroke="black" stroke-width="1.5" pointer-events="none" style="opacity: 1;"/><rect x="56.5" y="-21" width="8" height="42" fill="#686868" fill-opacity="1" stroke="black" stroke-width="1.5" pointer-events="none" style="opacity: 1;"/></g><g class="component" data-id="1" data-type="doe" transform="translate(175,0) rotate(0 0 0)"><rect class="component-hit-area" x="-5" y="-30" width="10" height="60" visibility="hidden"/><path d="M 0 -30 L 4 -30 L 4 30 L 0 30 L 0 28 L -2 28 L -2 20 L -1 20 L -1 12 L -3 12 L -3 4 L -1 4 L -1 -4 L -4 -4 L -4 -12 L -1 -12 L -1 -20 L -2 -20 L -2 -28 L 0 -28 L 0 -30" stroke="black" stroke-width="1.5" fill="#145ec0" fill-opacity="0.4" pointer-events="none" style="opacity: 1;"/></g><g class="component" data-id="2" data-type="lens3" transform="translate(210,0) rotate(0 0 0)"><rect class="component-hit-area" x="-9" y="-30" width="18" height="60" visibility="hidden"/><path d="M 3 -30 L 3 30 L -3 30 C 0 20 -9 15 -9 0 C -9 -15 0 -20 -3 -30 Z" stroke="black" stroke-width="1.5" fill="#145ec0" fill-opacity="0.3" pointer-events="none" style="opacity: 1;"/></g><g class="component" data-id="3" data-type="lens2" transform="translate(227.5,0) rotate(0 0 0)"><rect class="component-hit-area" x="-5" y="-30" width="10" height="60" visibility="hidden"/><path d="M 5 -30 C 0 -22 0 22 5 30 L -5 30 C 0 22 0 -22 -5 -30 Z" stroke="black" stroke-width="1.5" fill="#145ec0" fill-opacity="0.3" pointer-events="none" style="opacity: 1;"/></g><g class="component" data-id="4" data-type="lens" transform="translate(245,0) rotate(0 0 0)"><rect class="component-hit-area" x="-5" y="-30" width="10" height="60" visibility="hidden"/><path d="M 0 -30 C 6 -27 6 27 0 30 C -6 27 -6 -27 0 -30" stroke="black" stroke-width="1.5" fill="#145ec0" fill-opacity="0.3" pointer-events="none" style="opacity: 1;"/></g><g class="component" data-id="5" data-type="point" transform="translate(350,0) rotate(0 0 0)"><rect class="component-hit-area" x="-2.5" y="-2.5" width="5" height="5" visibility="hidden"/><circle cx="0" cy="0" r="2.5" stroke="black" pointer-events="none" style="opacity: 1;"/></g><g class="component" data-id="6" data-type="point" transform="translate(350,-17.5) rotate(-5.527540151656172 0 0)"><rect class="component-hit-area" x="-2.5" y="-2.5" width="5" height="5" visibility="hidden"/><circle cx="0" cy="0" r="2.5" stroke="black" pointer-events="none" style="opacity: 1;"/></g><g class="component" data-id="7" data-type="point" transform="translate(350,-35) rotate(-8.325650330426837 0 0)"><rect class="component-hit-area" x="-2.5" y="-2.5" width="5" height="5" visibility="hidden"/><circle cx="0" cy="0" r="2.5" stroke="black" pointer-events="none" style="opacity: 1;"/></g><g class="component" data-id="12" data-type="point" transform="translate(-100,0) rotate(180 0 0)"><rect class="component-hit-area" x="-2.5" y="-2.5" width="5" height="5" visibility="hidden"/><circle cx="0" cy="0" r="2.5" stroke="black" pointer-events="none" style="opacity: 1;"/></g><g class="component" data-id="13" data-type="point" transform="translate(-75,0) rotate(180 0 0)"><rect class="component-hit-area" x="-2.5" y="-2.5" width="5" height="5" visibility="hidden"/><circle cx="0" cy="0" r="2.5" stroke="black" pointer-events="none" style="opacity: 1;"/></g><g class="component" data-id="14" data-type="point" transform="translate(-50,0) rotate(180 0 0)"><rect class="component-hit-area" x="-2.5" y="-2.5" width="5" height="5" visibility="hidden"/><circle cx="0" cy="0" r="2.5" stroke="black" pointer-events="none" style="opacity: 1;"/></g></g>
          </svg>