<?xml version="1.0" standalone="no"?>
<svg id="canvas" preserveAspectRatio="xMidYMid meet" width="500" height="852" viewBox="-206.25 -341 500 852" xmlns="http://www.w3.org/2000/svg">
            <defs>
              <!-- Component definitions will go here -->
            <marker id="arrowhead" markerWidth="10" markerHeight="7" refX="10" refY="3.5" orient="auto" markerUnits="strokeWidth"><path d="M0,0 L10,3.5 L0,7 Z" fill="#2196F3"/></marker><marker id="upVectorArrow" markerWidth="8" markerHeight="6" refX="8" refY="3" orient="auto" markerUnits="userSpaceOnUse"><path d="M0,0 L8,3 L0,6 Z" fill="green"/></marker><marker id="forwardVectorArrow" markerWidth="8" markerHeight="6" refX="8" refY="3" orient="auto" markerUnits="userSpaceOnUse"><path d="M0,0 L8,3 L0,6 Z" fill="blue"/></marker><linearGradient id="gradient-5-0" gradientUnits="userSpaceOnUse" x1="160" y1="98.75" x2="140" y2="98.75"><stop offset="0%" stop-color="#00fdff" stop-opacity="0.2"/><stop offset="25%" stop-color="#007eff" stop-opacity="0.2"/><stop offset="50%" stop-color="#0100ff" stop-opacity="0.2"/><stop offset="75%" stop-color="#7f00ff" stop-opacity="0.2"/><stop offset="100%" stop-color="#fe00ff" stop-opacity="0.2"/></linearGradient></defs>
            <!-- <circle cx="0" cy="0" r="5" fill="red"/> -->
            <g id="grid" style="display: none;"><line x1="-2750" y1="-4601" x2="-2750" y2="4771" stroke="#e0e0e0" stroke-width="1"/><line x1="-2700" y1="-4601" x2="-2700" y2="4771" stroke="#e0e0e0" stroke-width="1"/><line x1="-2650" y1="-4601" x2="-2650" y2="4771" stroke="#e0e0e0" stroke-width="1"/><line x1="-2600" y1="-4601" x2="-2600" y2="4771" stroke="#e0e0e0" stroke-width="1"/><line x1="-2550" y1="-4601" x2="-2550" y2="4771" stroke="#e0e0e0" stroke-width="1"/><line x1="-2500" y1="-4601" x2="-2500" y2="4771" stroke="#e0e0e0" stroke-width="1"/><line x1="-2450" y1="-4601" x2="-2450" y2="4771" stroke="#e0e0e0" stroke-width="1"/><line x1="-2400" y1="-4601" x2="-2400" y2="4771" stroke="#e0e0e0" stroke-width="1"/><line x1="-2350" y1="-4601" x2="-2350" y2="4771" stroke="#e0e0e0" stroke-width="1"/><line x1="-2300" y1="-4601" x2="-2300" y2="4771" stroke="#e0e0e0" stroke-width="1"/><line x1="-2250" y1="-4601" x2="-2250" y2="4771" stroke="#e0e0e0" stroke-width="1"/><line x1="-2200" y1="-4601" x2="-2200" y2="4771" stroke="#e0e0e0" stroke-width="1"/><line x1="-2150" y1="-4601" x2="-2150" y2="4771" stroke="#e0e0e0" stroke-width="1"/><line x1="-2100" y1="-4601" x2="-2100" y2="4771" stroke="#e0e0e0" stroke-width="1"/><line x1="-2050" y1="-4601" x2="-2050" y2="4771" stroke="#e0e0e0" stroke-width="1"/><line x1="-2000" y1="-4601" x2="-2000" y2="4771" stroke="#e0e0e0" stroke-width="1"/><line x1="-1950" y1="-4601" x2="-1950" y2="4771" stroke="#e0e0e0" stroke-width="1"/><line x1="-1900" y1="-4601" x2="-1900" y2="4771" stroke="#e0e0e0" stroke-width="1"/><line x1="-1850" y1="-4601" x2="-1850" y2="4771" stroke="#e0e0e0" stroke-width="1"/><line x1="-1800" y1="-4601" x2="-1800" y2="4771" stroke="#e0e0e0" stroke-width="1"/><line x1="-1750" y1="-4601" x2="-1750" y2="4771" stroke="#e0e0e0" stroke-width="1"/><line x1="-1700" y1="-4601" x2="-1700" y2="4771" stroke="#e0e0e0" stroke-width="1"/><line x1="-1650" y1="-4601" x2="-1650" y2="4771" stroke="#e0e0e0" stroke-width="1"/><line x1="-1600" y1="-4601" x2="-1600" y2="4771" stroke="#e0e0e0" stroke-width="1"/><line x1="-1550" y1="-4601" x2="-1550" y2="4771" stroke="#e0e0e0" stroke-width="1"/><line x1="-1500" y1="-4601" x2="-1500" y2="4771" stroke="#e0e0e0" stroke-width="1"/><line x1="-1450" y1="-4601" x2="-1450" y2="4771" stroke="#e0e0e0" stroke-width="1"/><line x1="-1400" y1="-4601" x2="-1400" y2="4771" stroke="#e0e0e0" stroke-width="1"/><line x1="-1350" y1="-4601" x2="-1350" y2="4771" stroke="#e0e0e0" stroke-width="1"/><line x1="-1300" y1="-4601" x2="-1300" y2="4771" stroke="#e0e0e0" stroke-width="1"/><line x1="-1250" y1="-4601" x2="-1250" y2="4771" stroke="#e0e0e0" stroke-width="1"/><line x1="-1200" y1="-4601" x2="-1200" y2="4771" stroke="#e0e0e0" stroke-width="1"/><line x1="-1150" y1="-4601" x2="-1150" y2="4771" stroke="#e0e0e0" stroke-width="1"/><line x1="-1100" y1="-4601" x2="-1100" y2="4771" stroke="#e0e0e0" stroke-width="1"/><line x1="-1050" y1="-4601" x2="-1050" y2="4771" stroke="#e0e0e0" stroke-width="1"/><line x1="-1000" y1="-4601" x2="-1000" y2="4771" stroke="#e0e0e0" stroke-width="1"/><line x1="-950" y1="-4601" x2="-950" y2="4771" stroke="#e0e0e0" stroke-width="1"/><line x1="-900" y1="-4601" x2="-900" y2="4771" stroke="#e0e0e0" stroke-width="1"/><line x1="-850" y1="-4601" x2="-850" y2="4771" stroke="#e0e0e0" stroke-width="1"/><line x1="-800" y1="-4601" x2="-800" y2="4771" stroke="#e0e0e0" stroke-width="1"/><line x1="-750" y1="-4601" x2="-750" y2="4771" stroke="#e0e0e0" stroke-width="1"/><line x1="-700" y1="-4601" x2="-700" y2="4771" stroke="#e0e0e0" stroke-width="1"/><line x1="-650" y1="-4601" x2="-650" y2="4771" stroke="#e0e0e0" stroke-width="1"/><line x1="-600" y1="-4601" x2="-600" y2="4771" stroke="#e0e0e0" stroke-width="1"/><line x1="-550" y1="-4601" x2="-550" y2="4771" stroke="#e0e0e0" stroke-width="1"/><line x1="-500" y1="-4601" x2="-500" y2="4771" stroke="#e0e0e0" stroke-width="1"/><line x1="-450" y1="-4601" x2="-450" y2="4771" stroke="#e0e0e0" stroke-width="1"/><line x1="-400" y1="-4601" x2="-400" y2="4771" stroke="#e0e0e0" stroke-width="1"/><line x1="-350" y1="-4601" x2="-350" y2="4771" stroke="#e0e0e0" stroke-width="1"/><line x1="-300" y1="-4601" x2="-300" y2="4771" stroke="#e0e0e0" stroke-width="1"/><line x1="-250" y1="-4601" x2="-250" y2="4771" stroke="#e0e0e0" stroke-width="1"/><line x1="-200" y1="-4601" x2="-200" y2="4771" stroke="#e0e0e0" stroke-width="1"/><line x1="-150" y1="-4601" x2="-150" y2="4771" stroke="#e0e0e0" stroke-width="1"/><line x1="-100" y1="-4601" x2="-100" y2="4771" stroke="#e0e0e0" stroke-width="1"/><line x1="-50" y1="-4601" x2="-50" y2="4771" stroke="#e0e0e0" stroke-width="1"/><line x1="0" y1="-4601" x2="0" y2="4771" stroke="#e0e0e0" stroke-width="1"/><line x1="50" y1="-4601" x2="50" y2="4771" stroke="#e0e0e0" stroke-width="1"/><line x1="100" y1="-4601" x2="100" y2="4771" stroke="#e0e0e0" stroke-width="1"/><line x1="150" y1="-4601" x2="150" y2="4771" stroke="#e0e0e0" stroke-width="1"/><line x1="200" y1="-4601" x2="200" y2="4771" stroke="#e0e0e0" stroke-width="1"/><line x1="250" y1="-4601" x2="250" y2="4771" stroke="#e0e0e0" stroke-width="1"/><line x1="300" y1="-4601" x2="300" y2="4771" stroke="#e0e0e0" stroke-width="1"/><line x1="350" y1="-4601" x2="350" y2="4771" stroke="#e0e0e0" stroke-width="1"/><line x1="400" y1="-4601" x2="400" y2="4771" stroke="#e0e0e0" stroke-width="1"/><line x1="450" y1="-4601" x2="450" y2="4771" stroke="#e0e0e0" stroke-width="1"/><line x1="500" y1="-4601" x2="500" y2="4771" stroke="#e0e0e0" stroke-width="1"/><line x1="550" y1="-4601" x2="550" y2="4771" stroke="#e0e0e0" stroke-width="1"/><line x1="600" y1="-4601" x2="600" y2="4771" stroke="#e0e0e0" stroke-width="1"/><line x1="650" y1="-4601" x2="650" y2="4771" stroke="#e0e0e0" stroke-width="1"/><line x1="700" y1="-4601" x2="700" y2="4771" stroke="#e0e0e0" stroke-width="1"/><line x1="750" y1="-4601" x2="750" y2="4771" stroke="#e0e0e0" stroke-width="1"/><line x1="800" y1="-4601" x2="800" y2="4771" stroke="#e0e0e0" stroke-width="1"/><line x1="850" y1="-4601" x2="850" y2="4771" stroke="#e0e0e0" stroke-width="1"/><line x1="900" y1="-4601" x2="900" y2="4771" stroke="#e0e0e0" stroke-width="1"/><line x1="950" y1="-4601" x2="950" y2="4771" stroke="#e0e0e0" stroke-width="1"/><line x1="1000" y1="-4601" x2="1000" y2="4771" stroke="#e0e0e0" stroke-width="1"/><line x1="1050" y1="-4601" x2="1050" y2="4771" stroke="#e0e0e0" stroke-width="1"/><line x1="1100" y1="-4601" x2="1100" y2="4771" stroke="#e0e0e0" stroke-width="1"/><line x1="1150" y1="-4601" x2="1150" y2="4771" stroke="#e0e0e0" stroke-width="1"/><line x1="1200" y1="-4601" x2="1200" y2="4771" stroke="#e0e0e0" stroke-width="1"/><line x1="1250" y1="-4601" x2="1250" y2="4771" stroke="#e0e0e0" stroke-width="1"/><line x1="1300" y1="-4601" x2="1300" y2="4771" stroke="#e0e0e0" stroke-width="1"/><line x1="1350" y1="-4601" x2="1350" y2="4771" stroke="#e0e0e0" stroke-width="1"/><line x1="1400" y1="-4601" x2="1400" y2="4771" stroke="#e0e0e0" stroke-width="1"/><line x1="1450" y1="-4601" x2="1450" y2="4771" stroke="#e0e0e0" stroke-width="1"/><line x1="1500" y1="-4601" x2="1500" y2="4771" stroke="#e0e0e0" stroke-width="1"/><line x1="1550" y1="-4601" x2="1550" y2="4771" stroke="#e0e0e0" stroke-width="1"/><line x1="1600" y1="-4601" x2="1600" y2="4771" stroke="#e0e0e0" stroke-width="1"/><line x1="1650" y1="-4601" x2="1650" y2="4771" stroke="#e0e0e0" stroke-width="1"/><line x1="1700" y1="-4601" x2="1700" y2="4771" stroke="#e0e0e0" stroke-width="1"/><line x1="1750" y1="-4601" x2="1750" y2="4771" stroke="#e0e0e0" stroke-width="1"/><line x1="1800" y1="-4601" x2="1800" y2="4771" stroke="#e0e0e0" stroke-width="1"/><line x1="1850" y1="-4601" x2="1850" y2="4771" stroke="#e0e0e0" stroke-width="1"/><line x1="1900" y1="-4601" x2="1900" y2="4771" stroke="#e0e0e0" stroke-width="1"/><line x1="1950" y1="-4601" x2="1950" y2="4771" stroke="#e0e0e0" stroke-width="1"/><line x1="2000" y1="-4601" x2="2000" y2="4771" stroke="#e0e0e0" stroke-width="1"/><line x1="2050" y1="-4601" x2="2050" y2="4771" stroke="#e0e0e0" stroke-width="1"/><line x1="2100" y1="-4601" x2="2100" y2="4771" stroke="#e0e0e0" stroke-width="1"/><line x1="2150" y1="-4601" x2="2150" y2="4771" stroke="#e0e0e0" stroke-width="1"/><line x1="2200" y1="-4601" x2="2200" y2="4771" stroke="#e0e0e0" stroke-width="1"/><line x1="2250" y1="-4601" x2="2250" y2="4771" stroke="#e0e0e0" stroke-width="1"/><line x1="2300" y1="-4601" x2="2300" y2="4771" stroke="#e0e0e0" stroke-width="1"/><line x1="2350" y1="-4601" x2="2350" y2="4771" stroke="#e0e0e0" stroke-width="1"/><line x1="2400" y1="-4601" x2="2400" y2="4771" stroke="#e0e0e0" stroke-width="1"/><line x1="2450" y1="-4601" x2="2450" y2="4771" stroke="#e0e0e0" stroke-width="1"/><line x1="2500" y1="-4601" x2="2500" y2="4771" stroke="#e0e0e0" stroke-width="1"/><line x1="2550" y1="-4601" x2="2550" y2="4771" stroke="#e0e0e0" stroke-width="1"/><line x1="2600" y1="-4601" x2="2600" y2="4771" stroke="#e0e0e0" stroke-width="1"/><line x1="2650" y1="-4601" x2="2650" y2="4771" stroke="#e0e0e0" stroke-width="1"/><line x1="2700" y1="-4601" x2="2700" y2="4771" stroke="#e0e0e0" stroke-width="1"/><line x1="2750" y1="-4601" x2="2750" y2="4771" stroke="#e0e0e0" stroke-width="1"/><line x1="2800" y1="-4601" x2="2800" y2="4771" stroke="#e0e0e0" stroke-width="1"/><line x1="-2706.25" y1="-4650" x2="2793.75" y2="-4650" stroke="#e0e0e0" stroke-width="1"/><line x1="-2706.25" y1="-4600" x2="2793.75" y2="-4600" stroke="#e0e0e0" stroke-width="1"/><line x1="-2706.25" y1="-4550" x2="2793.75" y2="-4550" stroke="#e0e0e0" stroke-width="1"/><line x1="-2706.25" y1="-4500" x2="2793.75" y2="-4500" stroke="#e0e0e0" stroke-width="1"/><line x1="-2706.25" y1="-4450" x2="2793.75" y2="-4450" stroke="#e0e0e0" stroke-width="1"/><line x1="-2706.25" y1="-4400" x2="2793.75" y2="-4400" stroke="#e0e0e0" stroke-width="1"/><line x1="-2706.25" y1="-4350" x2="2793.75" y2="-4350" stroke="#e0e0e0" stroke-width="1"/><line x1="-2706.25" y1="-4300" x2="2793.75" y2="-4300" stroke="#e0e0e0" stroke-width="1"/><line x1="-2706.25" y1="-4250" x2="2793.75" y2="-4250" stroke="#e0e0e0" stroke-width="1"/><line x1="-2706.25" y1="-4200" x2="2793.75" y2="-4200" stroke="#e0e0e0" stroke-width="1"/><line x1="-2706.25" y1="-4150" x2="2793.75" y2="-4150" stroke="#e0e0e0" stroke-width="1"/><line x1="-2706.25" y1="-4100" x2="2793.75" y2="-4100" stroke="#e0e0e0" stroke-width="1"/><line x1="-2706.25" y1="-4050" x2="2793.75" y2="-4050" stroke="#e0e0e0" stroke-width="1"/><line x1="-2706.25" y1="-4000" x2="2793.75" y2="-4000" stroke="#e0e0e0" stroke-width="1"/><line x1="-2706.25" y1="-3950" x2="2793.75" y2="-3950" stroke="#e0e0e0" stroke-width="1"/><line x1="-2706.25" y1="-3900" x2="2793.75" y2="-3900" stroke="#e0e0e0" stroke-width="1"/><line x1="-2706.25" y1="-3850" x2="2793.75" y2="-3850" stroke="#e0e0e0" stroke-width="1"/><line x1="-2706.25" y1="-3800" x2="2793.75" y2="-3800" stroke="#e0e0e0" stroke-width="1"/><line x1="-2706.25" y1="-3750" x2="2793.75" y2="-3750" stroke="#e0e0e0" stroke-width="1"/><line x1="-2706.25" y1="-3700" x2="2793.75" y2="-3700" stroke="#e0e0e0" stroke-width="1"/><line x1="-2706.25" y1="-3650" x2="2793.75" y2="-3650" stroke="#e0e0e0" stroke-width="1"/><line x1="-2706.25" y1="-3600" x2="2793.75" y2="-3600" stroke="#e0e0e0" stroke-width="1"/><line x1="-2706.25" y1="-3550" x2="2793.75" y2="-3550" stroke="#e0e0e0" stroke-width="1"/><line x1="-2706.25" y1="-3500" x2="2793.75" y2="-3500" stroke="#e0e0e0" stroke-width="1"/><line x1="-2706.25" y1="-3450" x2="2793.75" y2="-3450" stroke="#e0e0e0" stroke-width="1"/><line x1="-2706.25" y1="-3400" x2="2793.75" y2="-3400" stroke="#e0e0e0" stroke-width="1"/><line x1="-2706.25" y1="-3350" x2="2793.75" y2="-3350" stroke="#e0e0e0" stroke-width="1"/><line x1="-2706.25" y1="-3300" x2="2793.75" y2="-3300" stroke="#e0e0e0" stroke-width="1"/><line x1="-2706.25" y1="-3250" x2="2793.75" y2="-3250" stroke="#e0e0e0" stroke-width="1"/><line x1="-2706.25" y1="-3200" x2="2793.75" y2="-3200" stroke="#e0e0e0" stroke-width="1"/><line x1="-2706.25" y1="-3150" x2="2793.75" y2="-3150" stroke="#e0e0e0" stroke-width="1"/><line x1="-2706.25" y1="-3100" x2="2793.75" y2="-3100" stroke="#e0e0e0" stroke-width="1"/><line x1="-2706.25" y1="-3050" x2="2793.75" y2="-3050" stroke="#e0e0e0" stroke-width="1"/><line x1="-2706.25" y1="-3000" x2="2793.75" y2="-3000" stroke="#e0e0e0" stroke-width="1"/><line x1="-2706.25" y1="-2950" x2="2793.75" y2="-2950" stroke="#e0e0e0" stroke-width="1"/><line x1="-2706.25" y1="-2900" x2="2793.75" y2="-2900" stroke="#e0e0e0" stroke-width="1"/><line x1="-2706.25" y1="-2850" x2="2793.75" y2="-2850" stroke="#e0e0e0" stroke-width="1"/><line x1="-2706.25" y1="-2800" x2="2793.75" y2="-2800" stroke="#e0e0e0" stroke-width="1"/><line x1="-2706.25" y1="-2750" x2="2793.75" y2="-2750" stroke="#e0e0e0" stroke-width="1"/><line x1="-2706.25" y1="-2700" x2="2793.75" y2="-2700" stroke="#e0e0e0" stroke-width="1"/><line x1="-2706.25" y1="-2650" x2="2793.75" y2="-2650" stroke="#e0e0e0" stroke-width="1"/><line x1="-2706.25" y1="-2600" x2="2793.75" y2="-2600" stroke="#e0e0e0" stroke-width="1"/><line x1="-2706.25" y1="-2550" x2="2793.75" y2="-2550" stroke="#e0e0e0" stroke-width="1"/><line x1="-2706.25" y1="-2500" x2="2793.75" y2="-2500" stroke="#e0e0e0" stroke-width="1"/><line x1="-2706.25" y1="-2450" x2="2793.75" y2="-2450" stroke="#e0e0e0" stroke-width="1"/><line x1="-2706.25" y1="-2400" x2="2793.75" y2="-2400" stroke="#e0e0e0" stroke-width="1"/><line x1="-2706.25" y1="-2350" x2="2793.75" y2="-2350" stroke="#e0e0e0" stroke-width="1"/><line x1="-2706.25" y1="-2300" x2="2793.75" y2="-2300" stroke="#e0e0e0" stroke-width="1"/><line x1="-2706.25" y1="-2250" x2="2793.75" y2="-2250" stroke="#e0e0e0" stroke-width="1"/><line x1="-2706.25" y1="-2200" x2="2793.75" y2="-2200" stroke="#e0e0e0" stroke-width="1"/><line x1="-2706.25" y1="-2150" x2="2793.75" y2="-2150" stroke="#e0e0e0" stroke-width="1"/><line x1="-2706.25" y1="-2100" x2="2793.75" y2="-2100" stroke="#e0e0e0" stroke-width="1"/><line x1="-2706.25" y1="-2050" x2="2793.75" y2="-2050" stroke="#e0e0e0" stroke-width="1"/><line x1="-2706.25" y1="-2000" x2="2793.75" y2="-2000" stroke="#e0e0e0" stroke-width="1"/><line x1="-2706.25" y1="-1950" x2="2793.75" y2="-1950" stroke="#e0e0e0" stroke-width="1"/><line x1="-2706.25" y1="-1900" x2="2793.75" y2="-1900" stroke="#e0e0e0" stroke-width="1"/><line x1="-2706.25" y1="-1850" x2="2793.75" y2="-1850" stroke="#e0e0e0" stroke-width="1"/><line x1="-2706.25" y1="-1800" x2="2793.75" y2="-1800" stroke="#e0e0e0" stroke-width="1"/><line x1="-2706.25" y1="-1750" x2="2793.75" y2="-1750" stroke="#e0e0e0" stroke-width="1"/><line x1="-2706.25" y1="-1700" x2="2793.75" y2="-1700" stroke="#e0e0e0" stroke-width="1"/><line x1="-2706.25" y1="-1650" x2="2793.75" y2="-1650" stroke="#e0e0e0" stroke-width="1"/><line x1="-2706.25" y1="-1600" x2="2793.75" y2="-1600" stroke="#e0e0e0" stroke-width="1"/><line x1="-2706.25" y1="-1550" x2="2793.75" y2="-1550" stroke="#e0e0e0" stroke-width="1"/><line x1="-2706.25" y1="-1500" x2="2793.75" y2="-1500" stroke="#e0e0e0" stroke-width="1"/><line x1="-2706.25" y1="-1450" x2="2793.75" y2="-1450" stroke="#e0e0e0" stroke-width="1"/><line x1="-2706.25" y1="-1400" x2="2793.75" y2="-1400" stroke="#e0e0e0" stroke-width="1"/><line x1="-2706.25" y1="-1350" x2="2793.75" y2="-1350" stroke="#e0e0e0" stroke-width="1"/><line x1="-2706.25" y1="-1300" x2="2793.75" y2="-1300" stroke="#e0e0e0" stroke-width="1"/><line x1="-2706.25" y1="-1250" x2="2793.75" y2="-1250" stroke="#e0e0e0" stroke-width="1"/><line x1="-2706.25" y1="-1200" x2="2793.75" y2="-1200" stroke="#e0e0e0" stroke-width="1"/><line x1="-2706.25" y1="-1150" x2="2793.75" y2="-1150" stroke="#e0e0e0" stroke-width="1"/><line x1="-2706.25" y1="-1100" x2="2793.75" y2="-1100" stroke="#e0e0e0" stroke-width="1"/><line x1="-2706.25" y1="-1050" x2="2793.75" y2="-1050" stroke="#e0e0e0" stroke-width="1"/><line x1="-2706.25" y1="-1000" x2="2793.75" y2="-1000" stroke="#e0e0e0" stroke-width="1"/><line x1="-2706.25" y1="-950" x2="2793.75" y2="-950" stroke="#e0e0e0" stroke-width="1"/><line x1="-2706.25" y1="-900" x2="2793.75" y2="-900" stroke="#e0e0e0" stroke-width="1"/><line x1="-2706.25" y1="-850" x2="2793.75" y2="-850" stroke="#e0e0e0" stroke-width="1"/><line x1="-2706.25" y1="-800" x2="2793.75" y2="-800" stroke="#e0e0e0" stroke-width="1"/><line x1="-2706.25" y1="-750" x2="2793.75" y2="-750" stroke="#e0e0e0" stroke-width="1"/><line x1="-2706.25" y1="-700" x2="2793.75" y2="-700" stroke="#e0e0e0" stroke-width="1"/><line x1="-2706.25" y1="-650" x2="2793.75" y2="-650" stroke="#e0e0e0" stroke-width="1"/><line x1="-2706.25" y1="-600" x2="2793.75" y2="-600" stroke="#e0e0e0" stroke-width="1"/><line x1="-2706.25" y1="-550" x2="2793.75" y2="-550" stroke="#e0e0e0" stroke-width="1"/><line x1="-2706.25" y1="-500" x2="2793.75" y2="-500" stroke="#e0e0e0" stroke-width="1"/><line x1="-2706.25" y1="-450" x2="2793.75" y2="-450" stroke="#e0e0e0" stroke-width="1"/><line x1="-2706.25" y1="-400" x2="2793.75" y2="-400" stroke="#e0e0e0" stroke-width="1"/><line x1="-2706.25" y1="-350" x2="2793.75" y2="-350" stroke="#e0e0e0" stroke-width="1"/><line x1="-2706.25" y1="-300" x2="2793.75" y2="-300" stroke="#e0e0e0" stroke-width="1"/><line x1="-2706.25" y1="-250" x2="2793.75" y2="-250" stroke="#e0e0e0" stroke-width="1"/><line x1="-2706.25" y1="-200" x2="2793.75" y2="-200" stroke="#e0e0e0" stroke-width="1"/><line x1="-2706.25" y1="-150" x2="2793.75" y2="-150" stroke="#e0e0e0" stroke-width="1"/><line x1="-2706.25" y1="-100" x2="2793.75" y2="-100" stroke="#e0e0e0" stroke-width="1"/><line x1="-2706.25" y1="-50" x2="2793.75" y2="-50" stroke="#e0e0e0" stroke-width="1"/><line x1="-2706.25" y1="0" x2="2793.75" y2="0" stroke="#e0e0e0" stroke-width="1"/><line x1="-2706.25" y1="50" x2="2793.75" y2="50" stroke="#e0e0e0" stroke-width="1"/><line x1="-2706.25" y1="100" x2="2793.75" y2="100" stroke="#e0e0e0" stroke-width="1"/><line x1="-2706.25" y1="150" x2="2793.75" y2="150" stroke="#e0e0e0" stroke-width="1"/><line x1="-2706.25" y1="200" x2="2793.75" y2="200" stroke="#e0e0e0" stroke-width="1"/><line x1="-2706.25" y1="250" x2="2793.75" y2="250" stroke="#e0e0e0" stroke-width="1"/><line x1="-2706.25" y1="300" x2="2793.75" y2="300" stroke="#e0e0e0" stroke-width="1"/><line x1="-2706.25" y1="350" x2="2793.75" y2="350" stroke="#e0e0e0" stroke-width="1"/><line x1="-2706.25" y1="400" x2="2793.75" y2="400" stroke="#e0e0e0" stroke-width="1"/><line x1="-2706.25" y1="450" x2="2793.75" y2="450" stroke="#e0e0e0" stroke-width="1"/><line x1="-2706.25" y1="500" x2="2793.75" y2="500" stroke="#e0e0e0" stroke-width="1"/><line x1="-2706.25" y1="550" x2="2793.75" y2="550" stroke="#e0e0e0" stroke-width="1"/><line x1="-2706.25" y1="600" x2="2793.75" y2="600" stroke="#e0e0e0" stroke-width="1"/><line x1="-2706.25" y1="650" x2="2793.75" y2="650" stroke="#e0e0e0" stroke-width="1"/><line x1="-2706.25" y1="700" x2="2793.75" y2="700" stroke="#e0e0e0" stroke-width="1"/><line x1="-2706.25" y1="750" x2="2793.75" y2="750" stroke="#e0e0e0" stroke-width="1"/><line x1="-2706.25" y1="800" x2="2793.75" y2="800" stroke="#e0e0e0" stroke-width="1"/><line x1="-2706.25" y1="850" x2="2793.75" y2="850" stroke="#e0e0e0" stroke-width="1"/><line x1="-2706.25" y1="900" x2="2793.75" y2="900" stroke="#e0e0e0" stroke-width="1"/><line x1="-2706.25" y1="950" x2="2793.75" y2="950" stroke="#e0e0e0" stroke-width="1"/><line x1="-2706.25" y1="1000" x2="2793.75" y2="1000" stroke="#e0e0e0" stroke-width="1"/><line x1="-2706.25" y1="1050" x2="2793.75" y2="1050" stroke="#e0e0e0" stroke-width="1"/><line x1="-2706.25" y1="1100" x2="2793.75" y2="1100" stroke="#e0e0e0" stroke-width="1"/><line x1="-2706.25" y1="1150" x2="2793.75" y2="1150" stroke="#e0e0e0" stroke-width="1"/><line x1="-2706.25" y1="1200" x2="2793.75" y2="1200" stroke="#e0e0e0" stroke-width="1"/><line x1="-2706.25" y1="1250" x2="2793.75" y2="1250" stroke="#e0e0e0" stroke-width="1"/><line x1="-2706.25" y1="1300" x2="2793.75" y2="1300" stroke="#e0e0e0" stroke-width="1"/><line x1="-2706.25" y1="1350" x2="2793.75" y2="1350" stroke="#e0e0e0" stroke-width="1"/><line x1="-2706.25" y1="1400" x2="2793.75" y2="1400" stroke="#e0e0e0" stroke-width="1"/><line x1="-2706.25" y1="1450" x2="2793.75" y2="1450" stroke="#e0e0e0" stroke-width="1"/><line x1="-2706.25" y1="1500" x2="2793.75" y2="1500" stroke="#e0e0e0" stroke-width="1"/><line x1="-2706.25" y1="1550" x2="2793.75" y2="1550" stroke="#e0e0e0" stroke-width="1"/><line x1="-2706.25" y1="1600" x2="2793.75" y2="1600" stroke="#e0e0e0" stroke-width="1"/><line x1="-2706.25" y1="1650" x2="2793.75" y2="1650" stroke="#e0e0e0" stroke-width="1"/><line x1="-2706.25" y1="1700" x2="2793.75" y2="1700" stroke="#e0e0e0" stroke-width="1"/><line x1="-2706.25" y1="1750" x2="2793.75" y2="1750" stroke="#e0e0e0" stroke-width="1"/><line x1="-2706.25" y1="1800" x2="2793.75" y2="1800" stroke="#e0e0e0" stroke-width="1"/><line x1="-2706.25" y1="1850" x2="2793.75" y2="1850" stroke="#e0e0e0" stroke-width="1"/><line x1="-2706.25" y1="1900" x2="2793.75" y2="1900" stroke="#e0e0e0" stroke-width="1"/><line x1="-2706.25" y1="1950" x2="2793.75" y2="1950" stroke="#e0e0e0" stroke-width="1"/><line x1="-2706.25" y1="2000" x2="2793.75" y2="2000" stroke="#e0e0e0" stroke-width="1"/><line x1="-2706.25" y1="2050" x2="2793.75" y2="2050" stroke="#e0e0e0" stroke-width="1"/><line x1="-2706.25" y1="2100" x2="2793.75" y2="2100" stroke="#e0e0e0" stroke-width="1"/><line x1="-2706.25" y1="2150" x2="2793.75" y2="2150" stroke="#e0e0e0" stroke-width="1"/><line x1="-2706.25" y1="2200" x2="2793.75" y2="2200" stroke="#e0e0e0" stroke-width="1"/><line x1="-2706.25" y1="2250" x2="2793.75" y2="2250" stroke="#e0e0e0" stroke-width="1"/><line x1="-2706.25" y1="2300" x2="2793.75" y2="2300" stroke="#e0e0e0" stroke-width="1"/><line x1="-2706.25" y1="2350" x2="2793.75" y2="2350" stroke="#e0e0e0" stroke-width="1"/><line x1="-2706.25" y1="2400" x2="2793.75" y2="2400" stroke="#e0e0e0" stroke-width="1"/><line x1="-2706.25" y1="2450" x2="2793.75" y2="2450" stroke="#e0e0e0" stroke-width="1"/><line x1="-2706.25" y1="2500" x2="2793.75" y2="2500" stroke="#e0e0e0" stroke-width="1"/><line x1="-2706.25" y1="2550" x2="2793.75" y2="2550" stroke="#e0e0e0" stroke-width="1"/><line x1="-2706.25" y1="2600" x2="2793.75" y2="2600" stroke="#e0e0e0" stroke-width="1"/><line x1="-2706.25" y1="2650" x2="2793.75" y2="2650" stroke="#e0e0e0" stroke-width="1"/><line x1="-2706.25" y1="2700" x2="2793.75" y2="2700" stroke="#e0e0e0" stroke-width="1"/><line x1="-2706.25" y1="2750" x2="2793.75" y2="2750" stroke="#e0e0e0" stroke-width="1"/><line x1="-2706.25" y1="2800" x2="2793.75" y2="2800" stroke="#e0e0e0" stroke-width="1"/><line x1="-2706.25" y1="2850" x2="2793.75" y2="2850" stroke="#e0e0e0" stroke-width="1"/><line x1="-2706.25" y1="2900" x2="2793.75" y2="2900" stroke="#e0e0e0" stroke-width="1"/><line x1="-2706.25" y1="2950" x2="2793.75" y2="2950" stroke="#e0e0e0" stroke-width="1"/><line x1="-2706.25" y1="3000" x2="2793.75" y2="3000" stroke="#e0e0e0" stroke-width="1"/><line x1="-2706.25" y1="3050" x2="2793.75" y2="3050" stroke="#e0e0e0" stroke-width="1"/><line x1="-2706.25" y1="3100" x2="2793.75" y2="3100" stroke="#e0e0e0" stroke-width="1"/><line x1="-2706.25" y1="3150" x2="2793.75" y2="3150" stroke="#e0e0e0" stroke-width="1"/><line x1="-2706.25" y1="3200" x2="2793.75" y2="3200" stroke="#e0e0e0" stroke-width="1"/><line x1="-2706.25" y1="3250" x2="2793.75" y2="3250" stroke="#e0e0e0" stroke-width="1"/><line x1="-2706.25" y1="3300" x2="2793.75" y2="3300" stroke="#e0e0e0" stroke-width="1"/><line x1="-2706.25" y1="3350" x2="2793.75" y2="3350" stroke="#e0e0e0" stroke-width="1"/><line x1="-2706.25" y1="3400" x2="2793.75" y2="3400" stroke="#e0e0e0" stroke-width="1"/><line x1="-2706.25" y1="3450" x2="2793.75" y2="3450" stroke="#e0e0e0" stroke-width="1"/><line x1="-2706.25" y1="3500" x2="2793.75" y2="3500" stroke="#e0e0e0" stroke-width="1"/><line x1="-2706.25" y1="3550" x2="2793.75" y2="3550" stroke="#e0e0e0" stroke-width="1"/><line x1="-2706.25" y1="3600" x2="2793.75" y2="3600" stroke="#e0e0e0" stroke-width="1"/><line x1="-2706.25" y1="3650" x2="2793.75" y2="3650" stroke="#e0e0e0" stroke-width="1"/><line x1="-2706.25" y1="3700" x2="2793.75" y2="3700" stroke="#e0e0e0" stroke-width="1"/><line x1="-2706.25" y1="3750" x2="2793.75" y2="3750" stroke="#e0e0e0" stroke-width="1"/><line x1="-2706.25" y1="3800" x2="2793.75" y2="3800" stroke="#e0e0e0" stroke-width="1"/><line x1="-2706.25" y1="3850" x2="2793.75" y2="3850" stroke="#e0e0e0" stroke-width="1"/><line x1="-2706.25" y1="3900" x2="2793.75" y2="3900" stroke="#e0e0e0" stroke-width="1"/><line x1="-2706.25" y1="3950" x2="2793.75" y2="3950" stroke="#e0e0e0" stroke-width="1"/><line x1="-2706.25" y1="4000" x2="2793.75" y2="4000" stroke="#e0e0e0" stroke-width="1"/><line x1="-2706.25" y1="4050" x2="2793.75" y2="4050" stroke="#e0e0e0" stroke-width="1"/><line x1="-2706.25" y1="4100" x2="2793.75" y2="4100" stroke="#e0e0e0" stroke-width="1"/><line x1="-2706.25" y1="4150" x2="2793.75" y2="4150" stroke="#e0e0e0" stroke-width="1"/><line x1="-2706.25" y1="4200" x2="2793.75" y2="4200" stroke="#e0e0e0" stroke-width="1"/><line x1="-2706.25" y1="4250" x2="2793.75" y2="4250" stroke="#e0e0e0" stroke-width="1"/><line x1="-2706.25" y1="4300" x2="2793.75" y2="4300" stroke="#e0e0e0" stroke-width="1"/><line x1="-2706.25" y1="4350" x2="2793.75" y2="4350" stroke="#e0e0e0" stroke-width="1"/><line x1="-2706.25" y1="4400" x2="2793.75" y2="4400" stroke="#e0e0e0" stroke-width="1"/><line x1="-2706.25" y1="4450" x2="2793.75" y2="4450" stroke="#e0e0e0" stroke-width="1"/><line x1="-2706.25" y1="4500" x2="2793.75" y2="4500" stroke="#e0e0e0" stroke-width="1"/><line x1="-2706.25" y1="4550" x2="2793.75" y2="4550" stroke="#e0e0e0" stroke-width="1"/><line x1="-2706.25" y1="4600" x2="2793.75" y2="4600" stroke="#e0e0e0" stroke-width="1"/><line x1="-2706.25" y1="4650" x2="2793.75" y2="4650" stroke="#e0e0e0" stroke-width="1"/><line x1="-2706.25" y1="4700" x2="2793.75" y2="4700" stroke="#e0e0e0" stroke-width="1"/><line x1="-2706.25" y1="4750" x2="2793.75" y2="4750" stroke="#e0e0e0" stroke-width="1"/><line x1="-2706.25" y1="4800" x2="2793.75" y2="4800" stroke="#e0e0e0" stroke-width="1"/></g>
            <g id="aperture-rays"><polygon points="160,-77.5 160,47.5 140,47.5 140,-77.5" fill="#00ff28" fill-opacity="0.2" stroke="none" pointer-events="none"/><polygon points="160,47.5 160,140 140,160 140,47.5" fill="#00ff28" fill-opacity="0.2" stroke="none" pointer-events="none"/><polygon points="160,140 77.5,140 77.5,160 140,160" fill="#00ff28" fill-opacity="0.2" stroke="none" pointer-events="none"/><polygon points="77.5,140 -10.000000000000002,140 10.000000000000002,160 77.5,160" fill="#00ff28" fill-opacity="0.2" stroke="none" pointer-events="none"/><polygon points="-10.000000000000002,140 -10.000000000000002,85 10.000000000000002,85 10.000000000000002,160" fill="#00ff28" fill-opacity="0.2" stroke="none" pointer-events="none"/><polygon points="-10.000000000000002,85 -14.693015735226608,52.14888985341377 4.6930157352266075,47.85111014658623 10.000000000000002,85" fill="#00ff28" fill-opacity="0.2" stroke="none" pointer-events="none"/><polygon points="-10.000000000000002,140 -10.000000000000002,232.5 10.000000000000002,232.5 10.000000000000002,160" fill="#00ff28" fill-opacity="0.2" stroke="none" pointer-events="none"/><polygon points="-10.000000000000002,232.5 -10.000000000000002,302.5 10.000000000000002,322.5 10.000000000000002,232.5" fill="#00ff28" fill-opacity="0.2" stroke="none" pointer-events="none"/><polygon points="-10.000000000000002,302.5 140,302.5 160,322.5 10.000000000000002,322.5" fill="#00ff28" fill-opacity="0.2" stroke="none" pointer-events="none"/><polygon points="140,302.5 140,420 160,420 160,322.5" fill="#00ff28" fill-opacity="0.2" stroke="none" pointer-events="none"/><polygon points="140,420 145,420 165,420 160,420" fill="#ff0000" fill-opacity="0.2" stroke="none" pointer-events="none"/><polygon points="145,420 145,230 165,230 165,420" fill="#ff0000" fill-opacity="0.2" stroke="none" pointer-events="none"/><polygon points="145,230 145,-120 165,-120 165,230" fill="#ff0000" fill-opacity="0.2" stroke="none" pointer-events="none"/></g><g id="components"><g class="component" data-id="1" data-type="plane" transform="translate(150,-77.5) rotate(90 0 0)"><rect class="component-hit-area" x="-3" y="-20" width="6" height="40" visibility="hidden"/><line x1="0" y1="-20" x2="0" y2="20" stroke="black" stroke-width="1.5" pointer-events="none" style="opacity: 0;"/></g><g class="component" data-id="4" data-type="aperture" transform="translate(150,47.5) rotate(90 0 0)"><rect class="component-hit-area" x="-3" y="-30" width="6" height="60" visibility="hidden"/><rect x="-3" y="-30" width="6" height="20" fill="#000000" pointer-events="none"/><rect x="-3" y="10" width="6" height="20" fill="#000000" pointer-events="none"/></g><g class="component" data-id="5" data-type="mirror" transform="translate(153,150) rotate(45 -3 0)"><rect class="component-hit-area" x="-3" y="-30" width="6" height="60" visibility="hidden"/><path d="M -3 -30 L 3 -30 L 3 30 L -3 30 Z" stroke="black" stroke-width="1.5" fill="#145ec0" fill-opacity="0.4" pointer-events="none"/><line x1="-3" y1="-30.75" x2="-3" y2="30.75" stroke="black" stroke-width="2.5" pointer-events="none"/></g><g class="component" data-id="6" data-type="lens" transform="translate(77.5,150) rotate(180 0 0)"><rect class="component-hit-area" x="-5" y="-30" width="10" height="60" visibility="hidden"/><path d="M 0 -30 C 6 -27 6 27 0 30 C -6 27 -6 -27 0 -30" stroke="black" stroke-width="1.5" fill="#145ec0" fill-opacity="0.3" pointer-events="none"/></g><g class="component" data-id="7" data-type="cube" transform="translate(0,150) rotate(135 0 0)"><rect class="component-hit-area" x="-42" y="-42" width="84" height="84" visibility="hidden"/><path d="M 0 -42 L -42 0 L 0 42 L 42 0 Z" stroke="black" stroke-width="1.5" fill="#145ec0" fill-opacity="0.4" pointer-events="none"/><line x1="0" y1="-42" x2="0" y2="42" stroke="black" stroke-width="2.5" pointer-events="none"/></g><g class="component" data-id="9" data-type="wedge-prism2" transform="translate(0,85) rotate(-90 0 0)"><rect class="component-hit-area" x="-15" y="-30" width="30" height="60" visibility="hidden"/><path d="M 0 -30 L 0 30 L 15 30 Z" fill="#145ec0" fill-opacity="0.3" stroke="black" stroke-width="1.5" pointer-events="none"/></g><g class="component" data-id="10" data-type="dmd" transform="translate(-5,50) rotate(257.5 0 0)"><rect class="component-hit-area" x="-5" y="-40" width="10" height="80" visibility="hidden"/><rect x="0" y="-40" width="5" height="80" stroke="black" stroke-width="1.5" fill="#868686" pointer-events="none"/><rect x="-5" y="-30" width="5" height="18" fill="#000000" pointer-events="none"/><rect x="-5" y="-5" width="5" height="10" fill="#000000" pointer-events="none"/><rect x="-5" y="10" width="5" height="20" fill="#000000" pointer-events="none"/></g><g class="component" data-id="11" data-type="lens" transform="translate(0,232.5) rotate(90 0 0)"><rect class="component-hit-area" x="-5" y="-30" width="10" height="60" visibility="hidden"/><path d="M 0 -30 C 6 -27 6 27 0 30 C -6 27 -6 -27 0 -30" stroke="black" stroke-width="1.5" fill="#145ec0" fill-opacity="0.3" pointer-events="none"/></g><g class="component" data-id="12" data-type="mirror" transform="translate(3,312.5) rotate(135 -3 0)"><rect class="component-hit-area" x="-3" y="-30" width="6" height="60" visibility="hidden"/><path d="M -3 -30 L 3 -30 L 3 30 L -3 30 Z" stroke="black" stroke-width="1.5" fill="#145ec0" fill-opacity="0.4" pointer-events="none"/><line x1="-3" y1="-30.75" x2="-3" y2="30.75" stroke="black" stroke-width="2.5" pointer-events="none"/></g><g class="component" data-id="13" data-type="mirror" transform="translate(153,312.5) rotate(-45 -3 0)"><rect class="component-hit-area" x="-3" y="-30" width="6" height="60" visibility="hidden"/><path d="M -3 -30 L 3 -30 L 3 30 L -3 30 Z" stroke="black" stroke-width="1.5" fill="#145ec0" fill-opacity="0.4" pointer-events="none"/><line x1="-3" y1="-30.75" x2="-3" y2="30.75" stroke="black" stroke-width="2.5" pointer-events="none"/></g><g class="component" data-id="14" data-type="plane" transform="translate(150,420) rotate(90 0 0)"><rect class="component-hit-area" x="-3" y="-20" width="6" height="40" visibility="hidden"/><line x1="0" y1="-20" x2="0" y2="20" stroke="black" stroke-width="1.5" pointer-events="none" style="opacity: 0;"/></g><g class="component" data-id="15" data-type="plane" transform="translate(155,420) rotate(-90 0 0)"><rect class="component-hit-area" x="-3" y="-20" width="6" height="40" visibility="hidden"/><line x1="0" y1="-20" x2="0" y2="20" stroke="black" stroke-width="1.5" pointer-events="none" style="opacity: 0;"/></g><g class="component" data-id="17" data-type="lens" transform="translate(155,230) rotate(-90 0 0)"><rect class="component-hit-area" x="-5" y="-30" width="10" height="60" visibility="hidden"/><path d="M 0 -30 C 6 -27 6 27 0 30 C -6 27 -6 -27 0 -30" stroke="black" stroke-width="1.5" fill="#145ec0" fill-opacity="0.3" pointer-events="none"/></g><g class="component" data-id="18" data-type="plane" transform="translate(155,-120) rotate(-90 0 0)"><rect class="component-hit-area" x="-3" y="-20" width="6" height="40" visibility="hidden"/><line x1="0" y1="-20" x2="0" y2="20" stroke="black" stroke-width="1.5" pointer-events="none" style="opacity: 0;"/></g></g>
          </svg>