<?xml version="1.0" standalone="no"?>
<svg id="canvas" preserveAspectRatio="xMidYMid meet" width="639.5999755859375" height="936" viewBox="-273.3 -458 639.6 936" xmlns="http://www.w3.org/2000/svg">
            <defs>
              <!-- Component definitions will go here -->
            <marker id="arrowhead" markerWidth="10" markerHeight="7" refX="10" refY="3.5" orient="auto" markerUnits="strokeWidth"><path d="M0,0 L10,3.5 L0,7 Z" fill="#2196F3"/></marker><marker id="upVectorArrow" markerWidth="8" markerHeight="6" refX="8" refY="3" orient="auto" markerUnits="userSpaceOnUse"><path d="M0,0 L8,3 L0,6 Z" fill="green"/></marker><marker id="forwardVectorArrow" markerWidth="8" markerHeight="6" refX="8" refY="3" orient="auto" markerUnits="userSpaceOnUse"><path d="M0,0 L8,3 L0,6 Z" fill="blue"/></marker></defs>
            <!-- <circle cx="0" cy="0" r="5" fill="red"/> -->
            <g id="grid" style="display: none;"><line x1="-2200" y1="-3266" x2="-2200" y2="3286" stroke="#e0e0e0" stroke-width="1"/><line x1="-2150" y1="-3266" x2="-2150" y2="3286" stroke="#e0e0e0" stroke-width="1"/><line x1="-2100" y1="-3266" x2="-2100" y2="3286" stroke="#e0e0e0" stroke-width="1"/><line x1="-2050" y1="-3266" x2="-2050" y2="3286" stroke="#e0e0e0" stroke-width="1"/><line x1="-2000" y1="-3266" x2="-2000" y2="3286" stroke="#e0e0e0" stroke-width="1"/><line x1="-1950" y1="-3266" x2="-1950" y2="3286" stroke="#e0e0e0" stroke-width="1"/><line x1="-1900" y1="-3266" x2="-1900" y2="3286" stroke="#e0e0e0" stroke-width="1"/><line x1="-1850" y1="-3266" x2="-1850" y2="3286" stroke="#e0e0e0" stroke-width="1"/><line x1="-1800" y1="-3266" x2="-1800" y2="3286" stroke="#e0e0e0" stroke-width="1"/><line x1="-1750" y1="-3266" x2="-1750" y2="3286" stroke="#e0e0e0" stroke-width="1"/><line x1="-1700" y1="-3266" x2="-1700" y2="3286" stroke="#e0e0e0" stroke-width="1"/><line x1="-1650" y1="-3266" x2="-1650" y2="3286" stroke="#e0e0e0" stroke-width="1"/><line x1="-1600" y1="-3266" x2="-1600" y2="3286" stroke="#e0e0e0" stroke-width="1"/><line x1="-1550" y1="-3266" x2="-1550" y2="3286" stroke="#e0e0e0" stroke-width="1"/><line x1="-1500" y1="-3266" x2="-1500" y2="3286" stroke="#e0e0e0" stroke-width="1"/><line x1="-1450" y1="-3266" x2="-1450" y2="3286" stroke="#e0e0e0" stroke-width="1"/><line x1="-1400" y1="-3266" x2="-1400" y2="3286" stroke="#e0e0e0" stroke-width="1"/><line x1="-1350" y1="-3266" x2="-1350" y2="3286" stroke="#e0e0e0" stroke-width="1"/><line x1="-1300" y1="-3266" x2="-1300" y2="3286" stroke="#e0e0e0" stroke-width="1"/><line x1="-1250" y1="-3266" x2="-1250" y2="3286" stroke="#e0e0e0" stroke-width="1"/><line x1="-1200" y1="-3266" x2="-1200" y2="3286" stroke="#e0e0e0" stroke-width="1"/><line x1="-1150" y1="-3266" x2="-1150" y2="3286" stroke="#e0e0e0" stroke-width="1"/><line x1="-1100" y1="-3266" x2="-1100" y2="3286" stroke="#e0e0e0" stroke-width="1"/><line x1="-1050" y1="-3266" x2="-1050" y2="3286" stroke="#e0e0e0" stroke-width="1"/><line x1="-1000" y1="-3266" x2="-1000" y2="3286" stroke="#e0e0e0" stroke-width="1"/><line x1="-950" y1="-3266" x2="-950" y2="3286" stroke="#e0e0e0" stroke-width="1"/><line x1="-900" y1="-3266" x2="-900" y2="3286" stroke="#e0e0e0" stroke-width="1"/><line x1="-850" y1="-3266" x2="-850" y2="3286" stroke="#e0e0e0" stroke-width="1"/><line x1="-800" y1="-3266" x2="-800" y2="3286" stroke="#e0e0e0" stroke-width="1"/><line x1="-750" y1="-3266" x2="-750" y2="3286" stroke="#e0e0e0" stroke-width="1"/><line x1="-700" y1="-3266" x2="-700" y2="3286" stroke="#e0e0e0" stroke-width="1"/><line x1="-650" y1="-3266" x2="-650" y2="3286" stroke="#e0e0e0" stroke-width="1"/><line x1="-600" y1="-3266" x2="-600" y2="3286" stroke="#e0e0e0" stroke-width="1"/><line x1="-550" y1="-3266" x2="-550" y2="3286" stroke="#e0e0e0" stroke-width="1"/><line x1="-500" y1="-3266" x2="-500" y2="3286" stroke="#e0e0e0" stroke-width="1"/><line x1="-450" y1="-3266" x2="-450" y2="3286" stroke="#e0e0e0" stroke-width="1"/><line x1="-400" y1="-3266" x2="-400" y2="3286" stroke="#e0e0e0" stroke-width="1"/><line x1="-350" y1="-3266" x2="-350" y2="3286" stroke="#e0e0e0" stroke-width="1"/><line x1="-300" y1="-3266" x2="-300" y2="3286" stroke="#e0e0e0" stroke-width="1"/><line x1="-250" y1="-3266" x2="-250" y2="3286" stroke="#e0e0e0" stroke-width="1"/><line x1="-200" y1="-3266" x2="-200" y2="3286" stroke="#e0e0e0" stroke-width="1"/><line x1="-150" y1="-3266" x2="-150" y2="3286" stroke="#e0e0e0" stroke-width="1"/><line x1="-100" y1="-3266" x2="-100" y2="3286" stroke="#e0e0e0" stroke-width="1"/><line x1="-50" y1="-3266" x2="-50" y2="3286" stroke="#e0e0e0" stroke-width="1"/><line x1="0" y1="-3266" x2="0" y2="3286" stroke="#e0e0e0" stroke-width="1"/><line x1="50" y1="-3266" x2="50" y2="3286" stroke="#e0e0e0" stroke-width="1"/><line x1="100" y1="-3266" x2="100" y2="3286" stroke="#e0e0e0" stroke-width="1"/><line x1="150" y1="-3266" x2="150" y2="3286" stroke="#e0e0e0" stroke-width="1"/><line x1="200" y1="-3266" x2="200" y2="3286" stroke="#e0e0e0" stroke-width="1"/><line x1="250" y1="-3266" x2="250" y2="3286" stroke="#e0e0e0" stroke-width="1"/><line x1="300" y1="-3266" x2="300" y2="3286" stroke="#e0e0e0" stroke-width="1"/><line x1="350" y1="-3266" x2="350" y2="3286" stroke="#e0e0e0" stroke-width="1"/><line x1="400" y1="-3266" x2="400" y2="3286" stroke="#e0e0e0" stroke-width="1"/><line x1="450" y1="-3266" x2="450" y2="3286" stroke="#e0e0e0" stroke-width="1"/><line x1="500" y1="-3266" x2="500" y2="3286" stroke="#e0e0e0" stroke-width="1"/><line x1="550" y1="-3266" x2="550" y2="3286" stroke="#e0e0e0" stroke-width="1"/><line x1="600" y1="-3266" x2="600" y2="3286" stroke="#e0e0e0" stroke-width="1"/><line x1="650" y1="-3266" x2="650" y2="3286" stroke="#e0e0e0" stroke-width="1"/><line x1="700" y1="-3266" x2="700" y2="3286" stroke="#e0e0e0" stroke-width="1"/><line x1="750" y1="-3266" x2="750" y2="3286" stroke="#e0e0e0" stroke-width="1"/><line x1="800" y1="-3266" x2="800" y2="3286" stroke="#e0e0e0" stroke-width="1"/><line x1="850" y1="-3266" x2="850" y2="3286" stroke="#e0e0e0" stroke-width="1"/><line x1="900" y1="-3266" x2="900" y2="3286" stroke="#e0e0e0" stroke-width="1"/><line x1="950" y1="-3266" x2="950" y2="3286" stroke="#e0e0e0" stroke-width="1"/><line x1="1000" y1="-3266" x2="1000" y2="3286" stroke="#e0e0e0" stroke-width="1"/><line x1="1050" y1="-3266" x2="1050" y2="3286" stroke="#e0e0e0" stroke-width="1"/><line x1="1100" y1="-3266" x2="1100" y2="3286" stroke="#e0e0e0" stroke-width="1"/><line x1="1150" y1="-3266" x2="1150" y2="3286" stroke="#e0e0e0" stroke-width="1"/><line x1="1200" y1="-3266" x2="1200" y2="3286" stroke="#e0e0e0" stroke-width="1"/><line x1="1250" y1="-3266" x2="1250" y2="3286" stroke="#e0e0e0" stroke-width="1"/><line x1="1300" y1="-3266" x2="1300" y2="3286" stroke="#e0e0e0" stroke-width="1"/><line x1="1350" y1="-3266" x2="1350" y2="3286" stroke="#e0e0e0" stroke-width="1"/><line x1="1400" y1="-3266" x2="1400" y2="3286" stroke="#e0e0e0" stroke-width="1"/><line x1="1450" y1="-3266" x2="1450" y2="3286" stroke="#e0e0e0" stroke-width="1"/><line x1="1500" y1="-3266" x2="1500" y2="3286" stroke="#e0e0e0" stroke-width="1"/><line x1="1550" y1="-3266" x2="1550" y2="3286" stroke="#e0e0e0" stroke-width="1"/><line x1="1600" y1="-3266" x2="1600" y2="3286" stroke="#e0e0e0" stroke-width="1"/><line x1="1650" y1="-3266" x2="1650" y2="3286" stroke="#e0e0e0" stroke-width="1"/><line x1="1700" y1="-3266" x2="1700" y2="3286" stroke="#e0e0e0" stroke-width="1"/><line x1="1750" y1="-3266" x2="1750" y2="3286" stroke="#e0e0e0" stroke-width="1"/><line x1="1800" y1="-3266" x2="1800" y2="3286" stroke="#e0e0e0" stroke-width="1"/><line x1="1850" y1="-3266" x2="1850" y2="3286" stroke="#e0e0e0" stroke-width="1"/><line x1="1900" y1="-3266" x2="1900" y2="3286" stroke="#e0e0e0" stroke-width="1"/><line x1="1950" y1="-3266" x2="1950" y2="3286" stroke="#e0e0e0" stroke-width="1"/><line x1="2000" y1="-3266" x2="2000" y2="3286" stroke="#e0e0e0" stroke-width="1"/><line x1="2050" y1="-3266" x2="2050" y2="3286" stroke="#e0e0e0" stroke-width="1"/><line x1="2100" y1="-3266" x2="2100" y2="3286" stroke="#e0e0e0" stroke-width="1"/><line x1="2150" y1="-3266" x2="2150" y2="3286" stroke="#e0e0e0" stroke-width="1"/><line x1="2200" y1="-3266" x2="2200" y2="3286" stroke="#e0e0e0" stroke-width="1"/><line x1="2250" y1="-3266" x2="2250" y2="3286" stroke="#e0e0e0" stroke-width="1"/><line x1="2300" y1="-3266" x2="2300" y2="3286" stroke="#e0e0e0" stroke-width="1"/><line x1="-2192.0999145507812" y1="-3300" x2="2285.0999145507812" y2="-3300" stroke="#e0e0e0" stroke-width="1"/><line x1="-2192.0999145507812" y1="-3250" x2="2285.0999145507812" y2="-3250" stroke="#e0e0e0" stroke-width="1"/><line x1="-2192.0999145507812" y1="-3200" x2="2285.0999145507812" y2="-3200" stroke="#e0e0e0" stroke-width="1"/><line x1="-2192.0999145507812" y1="-3150" x2="2285.0999145507812" y2="-3150" stroke="#e0e0e0" stroke-width="1"/><line x1="-2192.0999145507812" y1="-3100" x2="2285.0999145507812" y2="-3100" stroke="#e0e0e0" stroke-width="1"/><line x1="-2192.0999145507812" y1="-3050" x2="2285.0999145507812" y2="-3050" stroke="#e0e0e0" stroke-width="1"/><line x1="-2192.0999145507812" y1="-3000" x2="2285.0999145507812" y2="-3000" stroke="#e0e0e0" stroke-width="1"/><line x1="-2192.0999145507812" y1="-2950" x2="2285.0999145507812" y2="-2950" stroke="#e0e0e0" stroke-width="1"/><line x1="-2192.0999145507812" y1="-2900" x2="2285.0999145507812" y2="-2900" stroke="#e0e0e0" stroke-width="1"/><line x1="-2192.0999145507812" y1="-2850" x2="2285.0999145507812" y2="-2850" stroke="#e0e0e0" stroke-width="1"/><line x1="-2192.0999145507812" y1="-2800" x2="2285.0999145507812" y2="-2800" stroke="#e0e0e0" stroke-width="1"/><line x1="-2192.0999145507812" y1="-2750" x2="2285.0999145507812" y2="-2750" stroke="#e0e0e0" stroke-width="1"/><line x1="-2192.0999145507812" y1="-2700" x2="2285.0999145507812" y2="-2700" stroke="#e0e0e0" stroke-width="1"/><line x1="-2192.0999145507812" y1="-2650" x2="2285.0999145507812" y2="-2650" stroke="#e0e0e0" stroke-width="1"/><line x1="-2192.0999145507812" y1="-2600" x2="2285.0999145507812" y2="-2600" stroke="#e0e0e0" stroke-width="1"/><line x1="-2192.0999145507812" y1="-2550" x2="2285.0999145507812" y2="-2550" stroke="#e0e0e0" stroke-width="1"/><line x1="-2192.0999145507812" y1="-2500" x2="2285.0999145507812" y2="-2500" stroke="#e0e0e0" stroke-width="1"/><line x1="-2192.0999145507812" y1="-2450" x2="2285.0999145507812" y2="-2450" stroke="#e0e0e0" stroke-width="1"/><line x1="-2192.0999145507812" y1="-2400" x2="2285.0999145507812" y2="-2400" stroke="#e0e0e0" stroke-width="1"/><line x1="-2192.0999145507812" y1="-2350" x2="2285.0999145507812" y2="-2350" stroke="#e0e0e0" stroke-width="1"/><line x1="-2192.0999145507812" y1="-2300" x2="2285.0999145507812" y2="-2300" stroke="#e0e0e0" stroke-width="1"/><line x1="-2192.0999145507812" y1="-2250" x2="2285.0999145507812" y2="-2250" stroke="#e0e0e0" stroke-width="1"/><line x1="-2192.0999145507812" y1="-2200" x2="2285.0999145507812" y2="-2200" stroke="#e0e0e0" stroke-width="1"/><line x1="-2192.0999145507812" y1="-2150" x2="2285.0999145507812" y2="-2150" stroke="#e0e0e0" stroke-width="1"/><line x1="-2192.0999145507812" y1="-2100" x2="2285.0999145507812" y2="-2100" stroke="#e0e0e0" stroke-width="1"/><line x1="-2192.0999145507812" y1="-2050" x2="2285.0999145507812" y2="-2050" stroke="#e0e0e0" stroke-width="1"/><line x1="-2192.0999145507812" y1="-2000" x2="2285.0999145507812" y2="-2000" stroke="#e0e0e0" stroke-width="1"/><line x1="-2192.0999145507812" y1="-1950" x2="2285.0999145507812" y2="-1950" stroke="#e0e0e0" stroke-width="1"/><line x1="-2192.0999145507812" y1="-1900" x2="2285.0999145507812" y2="-1900" stroke="#e0e0e0" stroke-width="1"/><line x1="-2192.0999145507812" y1="-1850" x2="2285.0999145507812" y2="-1850" stroke="#e0e0e0" stroke-width="1"/><line x1="-2192.0999145507812" y1="-1800" x2="2285.0999145507812" y2="-1800" stroke="#e0e0e0" stroke-width="1"/><line x1="-2192.0999145507812" y1="-1750" x2="2285.0999145507812" y2="-1750" stroke="#e0e0e0" stroke-width="1"/><line x1="-2192.0999145507812" y1="-1700" x2="2285.0999145507812" y2="-1700" stroke="#e0e0e0" stroke-width="1"/><line x1="-2192.0999145507812" y1="-1650" x2="2285.0999145507812" y2="-1650" stroke="#e0e0e0" stroke-width="1"/><line x1="-2192.0999145507812" y1="-1600" x2="2285.0999145507812" y2="-1600" stroke="#e0e0e0" stroke-width="1"/><line x1="-2192.0999145507812" y1="-1550" x2="2285.0999145507812" y2="-1550" stroke="#e0e0e0" stroke-width="1"/><line x1="-2192.0999145507812" y1="-1500" x2="2285.0999145507812" y2="-1500" stroke="#e0e0e0" stroke-width="1"/><line x1="-2192.0999145507812" y1="-1450" x2="2285.0999145507812" y2="-1450" stroke="#e0e0e0" stroke-width="1"/><line x1="-2192.0999145507812" y1="-1400" x2="2285.0999145507812" y2="-1400" stroke="#e0e0e0" stroke-width="1"/><line x1="-2192.0999145507812" y1="-1350" x2="2285.0999145507812" y2="-1350" stroke="#e0e0e0" stroke-width="1"/><line x1="-2192.0999145507812" y1="-1300" x2="2285.0999145507812" y2="-1300" stroke="#e0e0e0" stroke-width="1"/><line x1="-2192.0999145507812" y1="-1250" x2="2285.0999145507812" y2="-1250" stroke="#e0e0e0" stroke-width="1"/><line x1="-2192.0999145507812" y1="-1200" x2="2285.0999145507812" y2="-1200" stroke="#e0e0e0" stroke-width="1"/><line x1="-2192.0999145507812" y1="-1150" x2="2285.0999145507812" y2="-1150" stroke="#e0e0e0" stroke-width="1"/><line x1="-2192.0999145507812" y1="-1100" x2="2285.0999145507812" y2="-1100" stroke="#e0e0e0" stroke-width="1"/><line x1="-2192.0999145507812" y1="-1050" x2="2285.0999145507812" y2="-1050" stroke="#e0e0e0" stroke-width="1"/><line x1="-2192.0999145507812" y1="-1000" x2="2285.0999145507812" y2="-1000" stroke="#e0e0e0" stroke-width="1"/><line x1="-2192.0999145507812" y1="-950" x2="2285.0999145507812" y2="-950" stroke="#e0e0e0" stroke-width="1"/><line x1="-2192.0999145507812" y1="-900" x2="2285.0999145507812" y2="-900" stroke="#e0e0e0" stroke-width="1"/><line x1="-2192.0999145507812" y1="-850" x2="2285.0999145507812" y2="-850" stroke="#e0e0e0" stroke-width="1"/><line x1="-2192.0999145507812" y1="-800" x2="2285.0999145507812" y2="-800" stroke="#e0e0e0" stroke-width="1"/><line x1="-2192.0999145507812" y1="-750" x2="2285.0999145507812" y2="-750" stroke="#e0e0e0" stroke-width="1"/><line x1="-2192.0999145507812" y1="-700" x2="2285.0999145507812" y2="-700" stroke="#e0e0e0" stroke-width="1"/><line x1="-2192.0999145507812" y1="-650" x2="2285.0999145507812" y2="-650" stroke="#e0e0e0" stroke-width="1"/><line x1="-2192.0999145507812" y1="-600" x2="2285.0999145507812" y2="-600" stroke="#e0e0e0" stroke-width="1"/><line x1="-2192.0999145507812" y1="-550" x2="2285.0999145507812" y2="-550" stroke="#e0e0e0" stroke-width="1"/><line x1="-2192.0999145507812" y1="-500" x2="2285.0999145507812" y2="-500" stroke="#e0e0e0" stroke-width="1"/><line x1="-2192.0999145507812" y1="-450" x2="2285.0999145507812" y2="-450" stroke="#e0e0e0" stroke-width="1"/><line x1="-2192.0999145507812" y1="-400" x2="2285.0999145507812" y2="-400" stroke="#e0e0e0" stroke-width="1"/><line x1="-2192.0999145507812" y1="-350" x2="2285.0999145507812" y2="-350" stroke="#e0e0e0" stroke-width="1"/><line x1="-2192.0999145507812" y1="-300" x2="2285.0999145507812" y2="-300" stroke="#e0e0e0" stroke-width="1"/><line x1="-2192.0999145507812" y1="-250" x2="2285.0999145507812" y2="-250" stroke="#e0e0e0" stroke-width="1"/><line x1="-2192.0999145507812" y1="-200" x2="2285.0999145507812" y2="-200" stroke="#e0e0e0" stroke-width="1"/><line x1="-2192.0999145507812" y1="-150" x2="2285.0999145507812" y2="-150" stroke="#e0e0e0" stroke-width="1"/><line x1="-2192.0999145507812" y1="-100" x2="2285.0999145507812" y2="-100" stroke="#e0e0e0" stroke-width="1"/><line x1="-2192.0999145507812" y1="-50" x2="2285.0999145507812" y2="-50" stroke="#e0e0e0" stroke-width="1"/><line x1="-2192.0999145507812" y1="0" x2="2285.0999145507812" y2="0" stroke="#e0e0e0" stroke-width="1"/><line x1="-2192.0999145507812" y1="50" x2="2285.0999145507812" y2="50" stroke="#e0e0e0" stroke-width="1"/><line x1="-2192.0999145507812" y1="100" x2="2285.0999145507812" y2="100" stroke="#e0e0e0" stroke-width="1"/><line x1="-2192.0999145507812" y1="150" x2="2285.0999145507812" y2="150" stroke="#e0e0e0" stroke-width="1"/><line x1="-2192.0999145507812" y1="200" x2="2285.0999145507812" y2="200" stroke="#e0e0e0" stroke-width="1"/><line x1="-2192.0999145507812" y1="250" x2="2285.0999145507812" y2="250" stroke="#e0e0e0" stroke-width="1"/><line x1="-2192.0999145507812" y1="300" x2="2285.0999145507812" y2="300" stroke="#e0e0e0" stroke-width="1"/><line x1="-2192.0999145507812" y1="350" x2="2285.0999145507812" y2="350" stroke="#e0e0e0" stroke-width="1"/><line x1="-2192.0999145507812" y1="400" x2="2285.0999145507812" y2="400" stroke="#e0e0e0" stroke-width="1"/><line x1="-2192.0999145507812" y1="450" x2="2285.0999145507812" y2="450" stroke="#e0e0e0" stroke-width="1"/><line x1="-2192.0999145507812" y1="500" x2="2285.0999145507812" y2="500" stroke="#e0e0e0" stroke-width="1"/><line x1="-2192.0999145507812" y1="550" x2="2285.0999145507812" y2="550" stroke="#e0e0e0" stroke-width="1"/><line x1="-2192.0999145507812" y1="600" x2="2285.0999145507812" y2="600" stroke="#e0e0e0" stroke-width="1"/><line x1="-2192.0999145507812" y1="650" x2="2285.0999145507812" y2="650" stroke="#e0e0e0" stroke-width="1"/><line x1="-2192.0999145507812" y1="700" x2="2285.0999145507812" y2="700" stroke="#e0e0e0" stroke-width="1"/><line x1="-2192.0999145507812" y1="750" x2="2285.0999145507812" y2="750" stroke="#e0e0e0" stroke-width="1"/><line x1="-2192.0999145507812" y1="800" x2="2285.0999145507812" y2="800" stroke="#e0e0e0" stroke-width="1"/><line x1="-2192.0999145507812" y1="850" x2="2285.0999145507812" y2="850" stroke="#e0e0e0" stroke-width="1"/><line x1="-2192.0999145507812" y1="900" x2="2285.0999145507812" y2="900" stroke="#e0e0e0" stroke-width="1"/><line x1="-2192.0999145507812" y1="950" x2="2285.0999145507812" y2="950" stroke="#e0e0e0" stroke-width="1"/><line x1="-2192.0999145507812" y1="1000" x2="2285.0999145507812" y2="1000" stroke="#e0e0e0" stroke-width="1"/><line x1="-2192.0999145507812" y1="1050" x2="2285.0999145507812" y2="1050" stroke="#e0e0e0" stroke-width="1"/><line x1="-2192.0999145507812" y1="1100" x2="2285.0999145507812" y2="1100" stroke="#e0e0e0" stroke-width="1"/><line x1="-2192.0999145507812" y1="1150" x2="2285.0999145507812" y2="1150" stroke="#e0e0e0" stroke-width="1"/><line x1="-2192.0999145507812" y1="1200" x2="2285.0999145507812" y2="1200" stroke="#e0e0e0" stroke-width="1"/><line x1="-2192.0999145507812" y1="1250" x2="2285.0999145507812" y2="1250" stroke="#e0e0e0" stroke-width="1"/><line x1="-2192.0999145507812" y1="1300" x2="2285.0999145507812" y2="1300" stroke="#e0e0e0" stroke-width="1"/><line x1="-2192.0999145507812" y1="1350" x2="2285.0999145507812" y2="1350" stroke="#e0e0e0" stroke-width="1"/><line x1="-2192.0999145507812" y1="1400" x2="2285.0999145507812" y2="1400" stroke="#e0e0e0" stroke-width="1"/><line x1="-2192.0999145507812" y1="1450" x2="2285.0999145507812" y2="1450" stroke="#e0e0e0" stroke-width="1"/><line x1="-2192.0999145507812" y1="1500" x2="2285.0999145507812" y2="1500" stroke="#e0e0e0" stroke-width="1"/><line x1="-2192.0999145507812" y1="1550" x2="2285.0999145507812" y2="1550" stroke="#e0e0e0" stroke-width="1"/><line x1="-2192.0999145507812" y1="1600" x2="2285.0999145507812" y2="1600" stroke="#e0e0e0" stroke-width="1"/><line x1="-2192.0999145507812" y1="1650" x2="2285.0999145507812" y2="1650" stroke="#e0e0e0" stroke-width="1"/><line x1="-2192.0999145507812" y1="1700" x2="2285.0999145507812" y2="1700" stroke="#e0e0e0" stroke-width="1"/><line x1="-2192.0999145507812" y1="1750" x2="2285.0999145507812" y2="1750" stroke="#e0e0e0" stroke-width="1"/><line x1="-2192.0999145507812" y1="1800" x2="2285.0999145507812" y2="1800" stroke="#e0e0e0" stroke-width="1"/><line x1="-2192.0999145507812" y1="1850" x2="2285.0999145507812" y2="1850" stroke="#e0e0e0" stroke-width="1"/><line x1="-2192.0999145507812" y1="1900" x2="2285.0999145507812" y2="1900" stroke="#e0e0e0" stroke-width="1"/><line x1="-2192.0999145507812" y1="1950" x2="2285.0999145507812" y2="1950" stroke="#e0e0e0" stroke-width="1"/><line x1="-2192.0999145507812" y1="2000" x2="2285.0999145507812" y2="2000" stroke="#e0e0e0" stroke-width="1"/><line x1="-2192.0999145507812" y1="2050" x2="2285.0999145507812" y2="2050" stroke="#e0e0e0" stroke-width="1"/><line x1="-2192.0999145507812" y1="2100" x2="2285.0999145507812" y2="2100" stroke="#e0e0e0" stroke-width="1"/><line x1="-2192.0999145507812" y1="2150" x2="2285.0999145507812" y2="2150" stroke="#e0e0e0" stroke-width="1"/><line x1="-2192.0999145507812" y1="2200" x2="2285.0999145507812" y2="2200" stroke="#e0e0e0" stroke-width="1"/><line x1="-2192.0999145507812" y1="2250" x2="2285.0999145507812" y2="2250" stroke="#e0e0e0" stroke-width="1"/><line x1="-2192.0999145507812" y1="2300" x2="2285.0999145507812" y2="2300" stroke="#e0e0e0" stroke-width="1"/><line x1="-2192.0999145507812" y1="2350" x2="2285.0999145507812" y2="2350" stroke="#e0e0e0" stroke-width="1"/><line x1="-2192.0999145507812" y1="2400" x2="2285.0999145507812" y2="2400" stroke="#e0e0e0" stroke-width="1"/><line x1="-2192.0999145507812" y1="2450" x2="2285.0999145507812" y2="2450" stroke="#e0e0e0" stroke-width="1"/><line x1="-2192.0999145507812" y1="2500" x2="2285.0999145507812" y2="2500" stroke="#e0e0e0" stroke-width="1"/><line x1="-2192.0999145507812" y1="2550" x2="2285.0999145507812" y2="2550" stroke="#e0e0e0" stroke-width="1"/><line x1="-2192.0999145507812" y1="2600" x2="2285.0999145507812" y2="2600" stroke="#e0e0e0" stroke-width="1"/><line x1="-2192.0999145507812" y1="2650" x2="2285.0999145507812" y2="2650" stroke="#e0e0e0" stroke-width="1"/><line x1="-2192.0999145507812" y1="2700" x2="2285.0999145507812" y2="2700" stroke="#e0e0e0" stroke-width="1"/><line x1="-2192.0999145507812" y1="2750" x2="2285.0999145507812" y2="2750" stroke="#e0e0e0" stroke-width="1"/><line x1="-2192.0999145507812" y1="2800" x2="2285.0999145507812" y2="2800" stroke="#e0e0e0" stroke-width="1"/><line x1="-2192.0999145507812" y1="2850" x2="2285.0999145507812" y2="2850" stroke="#e0e0e0" stroke-width="1"/><line x1="-2192.0999145507812" y1="2900" x2="2285.0999145507812" y2="2900" stroke="#e0e0e0" stroke-width="1"/><line x1="-2192.0999145507812" y1="2950" x2="2285.0999145507812" y2="2950" stroke="#e0e0e0" stroke-width="1"/><line x1="-2192.0999145507812" y1="3000" x2="2285.0999145507812" y2="3000" stroke="#e0e0e0" stroke-width="1"/><line x1="-2192.0999145507812" y1="3050" x2="2285.0999145507812" y2="3050" stroke="#e0e0e0" stroke-width="1"/><line x1="-2192.0999145507812" y1="3100" x2="2285.0999145507812" y2="3100" stroke="#e0e0e0" stroke-width="1"/><line x1="-2192.0999145507812" y1="3150" x2="2285.0999145507812" y2="3150" stroke="#e0e0e0" stroke-width="1"/><line x1="-2192.0999145507812" y1="3200" x2="2285.0999145507812" y2="3200" stroke="#e0e0e0" stroke-width="1"/><line x1="-2192.0999145507812" y1="3250" x2="2285.0999145507812" y2="3250" stroke="#e0e0e0" stroke-width="1"/><line x1="-2192.0999145507812" y1="3300" x2="2285.0999145507812" y2="3300" stroke="#e0e0e0" stroke-width="1"/></g>
            <g id="center-trace-lines"><line x1="0" y1="0" x2="-45" y2="-75" stroke="black" stroke-width="1" stroke-dasharray="5,5" pointer-events="none"/><line x1="0" y1="0" x2="80" y2="-50" stroke="black" stroke-width="1" stroke-dasharray="5,5" pointer-events="none"/><line x1="80" y1="-50" x2="280" y2="-180" stroke="black" stroke-width="1" stroke-dasharray="5,5" pointer-events="none"/><line x1="280" y1="-180" x2="280" y2="-45" stroke="black" stroke-width="1" stroke-dasharray="5,5" pointer-events="none"/><line x1="280" y1="-45" x2="280" y2="0" stroke="black" stroke-width="1" stroke-dasharray="5,5" pointer-events="none"/><line x1="280" y1="0" x2="280" y2="50" stroke="black" stroke-width="1" stroke-dasharray="5,5" pointer-events="none"/><line x1="280" y1="50" x2="280" y2="150" stroke="black" stroke-width="1" stroke-dasharray="5,5" pointer-events="none"/><line x1="280" y1="150" x2="280" y2="250" stroke="black" stroke-width="1" stroke-dasharray="5,5" pointer-events="none"/><line x1="-45" y1="-75" x2="-145" y2="-250" stroke="black" stroke-width="1" stroke-dasharray="5,5" pointer-events="none"/><line x1="0" y1="0" x2="0" y2="80" stroke="black" stroke-width="1" stroke-dasharray="5,5" pointer-events="none"/><line x1="0" y1="80" x2="0" y2="200" stroke="black" stroke-width="1" stroke-dasharray="5,5" pointer-events="none"/><line x1="-145" y1="-250" x2="-190" y2="-330" stroke="black" stroke-width="1" stroke-dasharray="5,5" pointer-events="none"/><line x1="-190" y1="-330" x2="-190" y2="-210" stroke="black" stroke-width="1" stroke-dasharray="5,5" pointer-events="none"/></g><g id="aperture-rays"><polygon points="0,0 -54.832904884318765,-69.10025706940874 -35.167095115681235,-80.89974293059126 0,0" fill="#03ff00" fill-opacity="0.2" stroke="none" pointer-events="none"/><line x1="0" y1="0" x2="-54.832904884318765" y2="-69.10025706940874" stroke="black" stroke-width="1" stroke-dasharray="3,3" pointer-events="none"/><line x1="0" y1="0" x2="-35.167095115681235" y2="-80.89974293059126" stroke="black" stroke-width="1" stroke-dasharray="3,3" pointer-events="none"/><polygon points="0,0 75.72831748759512,-56.70519842974694 84.27168251240488,-43.29480157025306 0,0" fill="#00bdff" fill-opacity="0.2" stroke="none" pointer-events="none"/><line x1="0" y1="0" x2="75.72831748759512" y2="-56.70519842974694" stroke="black" stroke-width="1" stroke-dasharray="3,3" pointer-events="none"/><line x1="0" y1="0" x2="84.27168251240488" y2="-43.29480157025306" stroke="black" stroke-width="1" stroke-dasharray="3,3" pointer-events="none"/><polygon points="75.72831748759512,-56.70519842974694 272.6330423819587,-184.6932696110833 287.3669576180413,-175.3067303889167 84.27168251240488,-43.29480157025306" fill="#00bdff" fill-opacity="0.2" stroke="none" pointer-events="none"/><line x1="75.72831748759512" y1="-56.70519842974694" x2="272.6330423819587" y2="-184.6932696110833" stroke="black" stroke-width="1" stroke-dasharray="3,3" pointer-events="none"/><line x1="84.27168251240488" y1="-43.29480157025306" x2="287.3669576180413" y2="-175.3067303889167" stroke="black" stroke-width="1" stroke-dasharray="3,3" pointer-events="none"/><polygon points="272.6330423819587,-184.6932696110833 272.6330423819587,-45 287.3669576180413,-45 287.3669576180413,-175.3067303889167" fill="#00bdff" fill-opacity="0.2" stroke="none" pointer-events="none"/><line x1="272.6330423819587" y1="-184.6932696110833" x2="272.6330423819587" y2="-45" stroke="black" stroke-width="1" stroke-dasharray="3,3" pointer-events="none"/><line x1="287.3669576180413" y1="-175.3067303889167" x2="287.3669576180413" y2="-45" stroke="black" stroke-width="1" stroke-dasharray="3,3" pointer-events="none"/><polygon points="272.6330423819587,-45 280,0 280,0 287.3669576180413,-45" fill="#00bdff" fill-opacity="0.2" stroke="none" pointer-events="none"/><line x1="272.6330423819587" y1="-45" x2="280" y2="0" stroke="black" stroke-width="1" stroke-dasharray="3,3" pointer-events="none"/><line x1="287.3669576180413" y1="-45" x2="280" y2="0" stroke="black" stroke-width="1" stroke-dasharray="3,3" pointer-events="none"/><polygon points="280,0 271.8144915355097,50 288.1855084644903,50 280,0" fill="#00bdff" fill-opacity="0.2" stroke="none" pointer-events="none"/><line x1="280" y1="0" x2="271.8144915355097" y2="50" stroke="black" stroke-width="1" stroke-dasharray="3,3" pointer-events="none"/><line x1="280" y1="0" x2="288.1855084644903" y2="50" stroke="black" stroke-width="1" stroke-dasharray="3,3" pointer-events="none"/><polygon points="271.8144915355097,50 271.8144915355097,150 288.1855084644903,150 288.1855084644903,50" fill="#00bdff" fill-opacity="0.2" stroke="none" pointer-events="none"/><line x1="271.8144915355097" y1="50" x2="271.8144915355097" y2="150" stroke="black" stroke-width="1" stroke-dasharray="3,3" pointer-events="none"/><line x1="288.1855084644903" y1="50" x2="288.1855084644903" y2="150" stroke="black" stroke-width="1" stroke-dasharray="3,3" pointer-events="none"/><polygon points="271.8144915355097,150 271.8144915355097,250 288.1855084644903,250 288.1855084644903,150" fill="#00bdff" fill-opacity="0.2" stroke="none" pointer-events="none"/><line x1="271.8144915355097" y1="150" x2="271.8144915355097" y2="250" stroke="black" stroke-width="1" stroke-dasharray="3,3" pointer-events="none"/><line x1="288.1855084644903" y1="150" x2="288.1855084644903" y2="250" stroke="black" stroke-width="1" stroke-dasharray="3,3" pointer-events="none"/><polygon points="-54.832904884318765,-69.10025706940874 -154.93042129639466,-244.27091079054154 -135.06957870360534,-255.72908920945846 -35.167095115681235,-80.89974293059126" fill="#03ff00" fill-opacity="0.2" stroke="none" pointer-events="none"/><line x1="-54.832904884318765" y1="-69.10025706940874" x2="-154.93042129639466" y2="-244.27091079054154" stroke="black" stroke-width="1" stroke-dasharray="3,3" pointer-events="none"/><line x1="-35.167095115681235" y1="-80.89974293059126" x2="-135.06957870360534" y2="-255.72908920945846" stroke="black" stroke-width="1" stroke-dasharray="3,3" pointer-events="none"/><polygon points="-15,2.7554552980815444e-15 -15,80 15,80 15,-2.7554552980815444e-15" fill="#00ffff" fill-opacity="0.2" stroke="none" pointer-events="none"/><line x1="-15" y1="2.7554552980815444e-15" x2="-15" y2="80" stroke="black" stroke-width="1" stroke-dasharray="3,3" pointer-events="none"/><line x1="15" y1="-2.7554552980815444e-15" x2="15" y2="80" stroke="black" stroke-width="1" stroke-dasharray="3,3" pointer-events="none"/><polygon points="-15,2.7554552980815444e-15 -15,80 15,80 15,-2.7554552980815444e-15" fill="#03ff00" fill-opacity="0.2" stroke="none" pointer-events="none"/><line x1="-15" y1="2.7554552980815444e-15" x2="-15" y2="80" stroke="black" stroke-width="1" stroke-dasharray="3,3" pointer-events="none"/><line x1="15" y1="-2.7554552980815444e-15" x2="15" y2="80" stroke="black" stroke-width="1" stroke-dasharray="3,3" pointer-events="none"/><polygon points="-15,80 -15,200 15,200 15,80" fill="#00ffff" fill-opacity="0.2" stroke="none" pointer-events="none"/><line x1="-15" y1="80" x2="-15" y2="200" stroke="black" stroke-width="1" stroke-dasharray="3,3" pointer-events="none"/><line x1="15" y1="80" x2="15" y2="200" stroke="black" stroke-width="1" stroke-dasharray="3,3" pointer-events="none"/><polygon points="-15,80 -15,200 15,200 15,80" fill="#03ff00" fill-opacity="0.2" stroke="none" pointer-events="none"/><line x1="-15" y1="80" x2="-15" y2="200" stroke="black" stroke-width="1" stroke-dasharray="3,3" pointer-events="none"/><line x1="15" y1="80" x2="15" y2="200" stroke="black" stroke-width="1" stroke-dasharray="3,3" pointer-events="none"/><polygon points="-154.93042129639466,-244.27091079054154 -196.4347852879602,-326.999410341641 -183.5652147120398,-333.000589658359 -135.06957870360534,-255.72908920945846" fill="#03ff00" fill-opacity="0.2" stroke="none" pointer-events="none"/><line x1="-154.93042129639466" y1="-244.27091079054154" x2="-196.4347852879602" y2="-326.999410341641" stroke="black" stroke-width="1" stroke-dasharray="3,3" pointer-events="none"/><line x1="-135.06957870360534" y1="-255.72908920945846" x2="-183.5652147120398" y2="-333.000589658359" stroke="black" stroke-width="1" stroke-dasharray="3,3" pointer-events="none"/><polygon points="-196.4347852879602,-326.999410341641 -190,-210 -190,-210 -183.5652147120398,-333.000589658359" fill="#03ff00" fill-opacity="0.2" stroke="none" pointer-events="none"/><line x1="-196.4347852879602" y1="-326.999410341641" x2="-190" y2="-210" stroke="black" stroke-width="1" stroke-dasharray="3,3" pointer-events="none"/><line x1="-183.5652147120398" y1="-333.000589658359" x2="-190" y2="-210" stroke="black" stroke-width="1" stroke-dasharray="3,3" pointer-events="none"/></g><g id="components"><g class="component" data-id="0" data-type="plane" transform="translate(0,0) rotate(270 0 0)"><rect class="component-hit-area" x="-3" y="-30" width="6" height="60" visibility="hidden"/><line x1="0" y1="-20" x2="0" y2="20" stroke="black" stroke-width="1.5" pointer-events="none"/></g><g class="component" data-id="1" data-type="objective" transform="translate(-45,-75) rotate(-120.96375653207352 0 0)"><rect class="component-hit-area" x="-64.5" y="-30" width="129" height="60" visibility="hidden"/><path d="M -46.5 -30 L -48.5 -30 L -64.5 -15 L -64.5 15 L -48.5 30 L -46.5 30 Z" fill="#d9d9d9" stroke="black" stroke-width="1.5" pointer-events="none"/><rect x="-48.5" y="-30" width="10" height="60" fill="#5a5a5a" stroke="black" stroke-width="1.5" pointer-events="none"/><rect x="-38.5" y="-30" width="5" height="60" fill="green" stroke="black" stroke-width="1" pointer-events="none"/><rect x="-33.5" y="-30" width="90" height="60" fill="#888888" stroke="black" stroke-width="1.5" pointer-events="none"/><rect x="56.5" y="-21" width="8" height="42" fill="#686868" fill-opacity="1" stroke="black" stroke-width="1.5" pointer-events="none"/></g><g class="component" data-id="2" data-type="objective" transform="translate(80,-50) rotate(-32.5 0 0)"><rect class="component-hit-area" x="-64.5" y="-30" width="129" height="60" visibility="hidden"/><path d="M -46.5 -30 L -48.5 -30 L -64.5 -15 L -64.5 15 L -48.5 30 L -46.5 30 Z" fill="#d9d9d9" stroke="black" stroke-width="1.5" pointer-events="none"/><rect x="-48.5" y="-30" width="10" height="60" fill="#5a5a5a" stroke="black" stroke-width="1.5" pointer-events="none"/><rect x="-38.5" y="-30" width="5" height="60" fill="green" stroke="black" stroke-width="1" pointer-events="none"/><rect x="-33.5" y="-30" width="90" height="60" fill="#888888" stroke="black" stroke-width="1.5" pointer-events="none"/><rect x="56.5" y="-21" width="8" height="42" fill="#686868" fill-opacity="1" stroke="black" stroke-width="1.5" pointer-events="none"/></g><g class="component" data-id="3" data-type="mirror" transform="translate(283,-180) rotate(-57.5 -3 0)"><rect class="component-hit-area" x="-30" y="-30" width="60" height="60" visibility="hidden"/><path d="M -3 -30 L 3 -30 L 3 30 L -3 30 Z" stroke="black" stroke-width="1.5" fill="#145ec0" fill-opacity="0.4" pointer-events="none"/><line x1="3" y1="-30" x2="3" y2="30" stroke="black" stroke-width="2.5" pointer-events="none"/></g><g class="component" data-id="4" data-type="lens" transform="translate(280,-45) rotate(90 0 0)"><rect class="component-hit-area" x="-30" y="-30" width="60" height="60" visibility="hidden"/><path d="M 0 -30 C 6 -27 6 27 0 30 C -6 27 -6 -27 0 -30" stroke="black" stroke-width="1.5" fill="#145ec0" fill-opacity="0.3" pointer-events="none"/></g><g class="component" data-id="7" data-type="plane" transform="translate(280,0) rotate(90 0 0)"><rect class="component-hit-area" x="-3" y="-30" width="6" height="60" visibility="hidden"/><line x1="0" y1="-20" x2="0" y2="20" stroke="black" stroke-width="1.5" pointer-events="none" style="opacity: 0;"/></g><g class="component" data-id="8" data-type="lens" transform="translate(280,50) rotate(90 0 0)"><rect class="component-hit-area" x="-30" y="-30" width="60" height="60" visibility="hidden"/><path d="M 0 -30 C 6 -27 6 27 0 30 C -6 27 -6 -27 0 -30" stroke="black" stroke-width="1.5" fill="#145ec0" fill-opacity="0.3" pointer-events="none"/></g><g class="component" data-id="9" data-type="mask" transform="translate(280,150) rotate(90 0 0)"><rect class="component-hit-area" x="-3" y="-30" width="6" height="60" visibility="hidden"/><path d="&#10;            M -3 -30&#10;            H 3&#10;            V 30&#10;            H -3&#10;            Z&#10;            " fill="#ffffff" stroke="black" stroke-width="1.5" pointer-events="none"/><rect x="-3" y="-30" width="6" height="10" fill="#000000" pointer-events="none"/><rect x="-3" y="-15" width="6" height="5" fill="#000000" pointer-events="none"/><rect x="-3" y="0" width="6" height="15" fill="#000000" pointer-events="none"/><rect x="-3" y="22" width="6" height="8" fill="#000000" pointer-events="none"/></g><g class="component" data-id="10" data-type="plane" transform="translate(280,250) rotate(90 0 0)"><rect class="component-hit-area" x="-3" y="-30" width="6" height="60" visibility="hidden"/><line x1="0" y1="-20" x2="0" y2="20" stroke="black" stroke-width="1.5" pointer-events="none" style="opacity: 0;"/></g><g class="component" data-id="11" data-type="lens" transform="translate(-145,-250) rotate(-119.98163936884934 0 0)"><rect class="component-hit-area" x="-30" y="-30" width="60" height="60" visibility="hidden"/><path d="M 0 -30 C 6 -27 6 27 0 30 C -6 27 -6 -27 0 -30" stroke="black" stroke-width="1.5" fill="#145ec0" fill-opacity="0.3" pointer-events="none"/></g><g class="component" data-id="12" data-type="objective" transform="translate(0,80) rotate(90 0 0)"><rect class="component-hit-area" x="-64.5" y="-30" width="129" height="60" visibility="hidden"/><path d="M -46.5 -30 L -48.5 -30 L -64.5 -15 L -64.5 15 L -48.5 30 L -46.5 30 Z" fill="#d9d9d9" stroke="black" stroke-width="1.5" pointer-events="none"/><rect x="-48.5" y="-30" width="10" height="60" fill="#5a5a5a" stroke="black" stroke-width="1.5" pointer-events="none"/><rect x="-38.5" y="-30" width="5" height="60" fill="green" stroke="black" stroke-width="1" pointer-events="none"/><rect x="-33.5" y="-30" width="90" height="60" fill="#888888" stroke="black" stroke-width="1.5" pointer-events="none"/><rect x="56.5" y="-21" width="8" height="42" fill="#686868" fill-opacity="1" stroke="black" stroke-width="1.5" pointer-events="none"/></g><g class="component" data-id="13" data-type="lens" transform="translate(0,200) rotate(90 0 0)"><rect class="component-hit-area" x="-30" y="-30" width="60" height="60" visibility="hidden"/><path d="M 0 -30 C 6 -27 6 27 0 30 C -6 27 -6 -27 0 -30" stroke="black" stroke-width="1.5" fill="#145ec0" fill-opacity="0.3" pointer-events="none" style="opacity: 0;"/></g><g class="component" data-id="15" data-type="mirror" transform="translate(-187,-330) rotate(245 -3 0)"><rect class="component-hit-area" x="-30" y="-30" width="60" height="60" visibility="hidden"/><path d="M -3 -30 L 3 -30 L 3 30 L -3 30 Z" stroke="black" stroke-width="1.5" fill="#145ec0" fill-opacity="0.4" pointer-events="none"/><line x1="3" y1="-30" x2="3" y2="30" stroke="black" stroke-width="2.5" pointer-events="none"/></g><g class="component" data-id="16" data-type="detector" transform="translate(-145,-210) rotate(90 -45 0)"><rect class="component-hit-area" x="-42.5" y="-30" width="85" height="60" visibility="hidden"/><path d="&#10;            M -40 -30&#10;            H 40&#10;            V 30&#10;            H -40&#10;            Z&#10;            " fill="#cccccc" stroke="black" stroke-width="1.5" pointer-events="none"/><rect x="-45" y="-20" width="5" height="40" fill="#2e2e2e" stroke="black" stroke-width="1.5" pointer-events="none"/></g></g>
          </svg>